<svg width="62" height="41" viewBox="0 0 62 41" fill="none" xmlns="http://www.w3.org/2000/svg">
<path d="M6.68 23.16C5.57333 23.16 4.58667 22.88 3.72 22.32C2.86667 21.7467 2.19333 20.92 1.7 19.84C1.20667 18.76 0.96 17.48 0.96 16C0.96 14.52 1.20667 13.24 1.7 12.16C2.19333 11.08 2.86667 10.26 3.72 9.7C4.58667 9.12667 5.57333 8.84 6.68 8.84C7.77333 8.84 8.74667 9.12667 9.6 9.7C10.4667 10.26 11.1467 11.08 11.64 12.16C12.1333 13.24 12.38 14.52 12.38 16C12.38 17.48 12.1333 18.76 11.64 19.84C11.1467 20.92 10.4667 21.7467 9.6 22.32C8.74667 22.88 7.77333 23.16 6.68 23.16ZM6.68 21.38C7.8 21.38 8.69333 20.92 9.36 20C10.04 19.08 10.38 17.7467 10.38 16C10.38 14.2533 10.04 12.92 9.36 12C8.69333 11.08 7.8 10.62 6.68 10.62C5.54667 10.62 4.64 11.08 3.96 12C3.29333 12.92 2.96 14.2533 2.96 16C2.96 17.7467 3.29333 19.08 3.96 20C4.64 20.92 5.54667 21.38 6.68 21.38ZM18.5813 9V23H16.6013V10.74H13.4413V9H18.5813Z" fill="#FA8334"/>
<path d="M41.68 40.16C40.5733 40.16 39.5867 39.88 38.72 39.32C37.8667 38.7467 37.1933 37.92 36.7 36.84C36.2067 35.76 35.96 34.48 35.96 33C35.96 31.52 36.2067 30.24 36.7 29.16C37.1933 28.08 37.8667 27.26 38.72 26.7C39.5867 26.1267 40.5733 25.84 41.68 25.84C42.7733 25.84 43.7467 26.1267 44.6 26.7C45.4667 27.26 46.1467 28.08 46.64 29.16C47.1333 30.24 47.38 31.52 47.38 33C47.38 34.48 47.1333 35.76 46.64 36.84C46.1467 37.92 45.4667 38.7467 44.6 39.32C43.7467 39.88 42.7733 40.16 41.68 40.16ZM41.68 38.38C42.8 38.38 43.6933 37.92 44.36 37C45.04 36.08 45.38 34.7467 45.38 33C45.38 31.2533 45.04 29.92 44.36 29C43.6933 28.08 42.8 27.62 41.68 27.62C40.5467 27.62 39.64 28.08 38.96 29C38.2933 29.92 37.96 31.2533 37.96 33C37.96 34.7467 38.2933 36.08 38.96 37C39.64 37.92 40.5467 38.38 41.68 38.38ZM61.4798 36.56H58.8198V40H56.8798V36.56H49.0998V35.16L56.2598 26H58.4198L51.5598 34.84H56.9398V31.8H58.8198V34.84H61.4798V36.56Z" fill="#FA8334"/>
<path d="M32.436 14.844H34.002L28.062 31.8H26.496L32.436 14.844Z" fill="#FA8334"/>
</svg>
