<svg width="98" height="58" viewBox="0 0 98 58" fill="none" xmlns="http://www.w3.org/2000/svg">
<path d="M9.888 3.472C15.296 3.472 18.304 7.504 18.304 14.768C18.304 22.064 15.296 26.096 9.888 26.096C4.448 26.096 1.44 22.064 1.44 14.768C1.44 7.504 4.448 3.472 9.888 3.472ZM9.888 6.416C6.752 6.416 5.184 9.072 5.184 14.768C5.184 20.464 6.752 23.152 9.888 23.152C12.992 23.152 14.56 20.464 14.56 14.768C14.56 9.072 12.992 6.416 9.888 6.416ZM29.958 14.384C31.654 12.688 32.806 10.896 32.806 9.616C32.806 7.792 31.334 6.736 28.87 6.736C26.854 6.736 24.486 7.792 22.566 9.52L21.03 6.608C23.526 4.624 26.438 3.408 29.382 3.408C33.766 3.408 36.742 5.616 36.742 9.072C36.742 11.312 34.982 13.84 32.518 16.4L26.374 22.608H37.83V26H21.414V23.216L29.958 14.384Z" fill="#FA8334"/>
<path d="M67.888 29.472C73.296 29.472 76.304 33.504 76.304 40.768C76.304 48.064 73.296 52.096 67.888 52.096C62.448 52.096 59.44 48.064 59.44 40.768C59.44 33.504 62.448 29.472 67.888 29.472ZM67.888 32.416C64.752 32.416 63.184 35.072 63.184 40.768C63.184 46.464 64.752 49.152 67.888 49.152C70.992 49.152 72.56 46.464 72.56 40.768C72.56 35.072 70.992 32.416 67.888 32.416ZM86.678 29.568H90.326L82.902 43.104H89.782L89.75 37.824H93.27L93.302 43.104H96.598V46.496H93.27V52H89.75V46.496H78.838V43.68L86.678 29.568Z" fill="#FA8334"/>
<path d="M49.472 15.888H52.608L42.464 45.744H39.328L49.472 15.888Z" fill="#FA8334"/>
</svg>
