<svg width="106" height="58" viewBox="0 0 106 58" fill="none" xmlns="http://www.w3.org/2000/svg">
<path d="M9.888 3.472C15.296 3.472 18.304 7.504 18.304 14.768C18.304 22.064 15.296 26.096 9.888 26.096C4.448 26.096 1.44 22.064 1.44 14.768C1.44 7.504 4.448 3.472 9.888 3.472ZM9.888 6.416C6.752 6.416 5.184 9.072 5.184 14.768C5.184 20.464 6.752 23.152 9.888 23.152C12.992 23.152 14.56 20.464 14.56 14.768C14.56 9.072 12.992 6.416 9.888 6.416ZM28.678 3.568H32.326L24.902 17.104H31.782L31.75 11.824H35.27L35.302 17.104H38.598V20.496H35.27V26H31.75V20.496H20.838V17.68L28.678 3.568Z" fill="#FA8334"/>
<path d="M75.888 29.472C81.296 29.472 84.304 33.504 84.304 40.768C84.304 48.064 81.296 52.096 75.888 52.096C70.448 52.096 67.44 48.064 67.44 40.768C67.44 33.504 70.448 29.472 75.888 29.472ZM75.888 32.416C72.752 32.416 71.184 35.072 71.184 40.768C71.184 46.464 72.752 49.152 75.888 49.152C78.992 49.152 80.56 46.464 80.56 40.768C80.56 35.072 78.992 32.416 75.888 32.416ZM94.678 29.568H98.326L90.902 43.104H97.782L97.75 37.824H101.27L101.302 43.104H104.598V46.496H101.27V52H97.75V46.496H86.838V43.68L94.678 29.568Z" fill="#FA8334"/>
<path d="M57.472 15.888H60.608L50.464 45.744H47.328L57.472 15.888Z" fill="#FA8334"/>
</svg>
