<svg width="794" height="139" viewBox="0 0 794 139" fill="none" xmlns="http://www.w3.org/2000/svg">
<path d="M1.764 120.382H7.128V133H4.284V122.794H1.764V120.382ZM16.6714 120.292C19.8034 120.292 21.5314 122.578 21.5314 126.682C21.5314 130.804 19.8034 133.072 16.6714 133.072C13.5214 133.072 11.7934 130.804 11.7934 126.682C11.7934 122.578 13.5214 120.292 16.6714 120.292ZM16.6714 122.38C15.2134 122.38 14.5474 123.676 14.5474 126.682C14.5474 129.67 15.2134 130.984 16.6714 130.984C18.1114 130.984 18.7774 129.67 18.7774 126.682C18.7774 123.676 18.1114 122.38 16.6714 122.38ZM27.7808 120.292C30.9128 120.292 32.6408 122.578 32.6408 126.682C32.6408 130.804 30.9128 133.072 27.7808 133.072C24.6308 133.072 22.9028 130.804 22.9028 126.682C22.9028 122.578 24.6308 120.292 27.7808 120.292ZM27.7808 122.38C26.3228 122.38 25.6568 123.676 25.6568 126.682C25.6568 129.67 26.3228 130.984 27.7808 130.984C29.2208 130.984 29.8868 129.67 29.8868 126.682C29.8868 123.676 29.2208 122.38 27.7808 122.38ZM38.8901 120.292C42.0221 120.292 43.7501 122.578 43.7501 126.682C43.7501 130.804 42.0221 133.072 38.8901 133.072C35.7401 133.072 34.0121 130.804 34.0121 126.682C34.0121 122.578 35.7401 120.292 38.8901 120.292ZM38.8901 122.38C37.4321 122.38 36.7661 123.676 36.7661 126.682C36.7661 129.67 37.4321 130.984 38.8901 130.984C40.3301 130.984 40.9961 129.67 40.9961 126.682C40.9961 123.676 40.3301 122.38 38.8901 122.38ZM52.9515 126.214V128.05H49.8735V131.092H48.1095V128.05H45.0315V126.214H48.1095V123.154H49.8735V126.214H52.9515ZM67.5688 124C66.2368 123.208 64.6528 122.704 63.6448 122.704C62.6908 122.704 62.0428 123.046 62.0428 123.73C62.0428 126.052 68.7568 124.756 68.7388 129.292C68.7388 131.758 66.5968 133.09 63.8068 133.09C61.7368 133.09 59.6668 132.298 58.2448 131.092L59.3788 128.77C60.6748 129.922 62.5108 130.66 63.8428 130.66C65.0128 130.66 65.7148 130.228 65.7148 129.454C65.7148 127.078 59.0008 128.464 59.0008 124C59.0008 121.714 60.9628 120.274 63.8788 120.274C65.6428 120.274 67.4068 120.814 68.6668 121.642L67.5688 124ZM69.4897 120.4H80.0197V122.812H76.1677V133H73.3237V122.812H69.4897V120.4ZM86.7247 120.31C90.5767 120.31 93.4927 123.046 93.4927 126.7C93.4927 130.336 90.5767 133.126 86.7247 133.126C82.8727 133.126 79.9567 130.354 79.9567 126.7C79.9567 123.028 82.8727 120.31 86.7247 120.31ZM86.7607 122.794C84.6367 122.794 82.8727 124.486 82.8727 126.7C82.8727 128.914 84.6547 130.642 86.7607 130.642C88.8667 130.642 90.5767 128.914 90.5767 126.7C90.5767 124.486 88.8667 122.794 86.7607 122.794ZM106.321 133H103.099L101.101 129.4H100.831H98.2027V133H95.3587V120.4H100.831C104.125 120.4 105.997 121.984 105.997 124.774C105.997 126.718 105.169 128.122 103.639 128.842L106.321 133ZM98.2027 122.758V127.024H100.831C102.397 127.024 103.297 126.304 103.297 124.864C103.297 123.46 102.397 122.758 100.831 122.758H98.2027ZM108.384 120.4H117.978V122.758H111.228V125.494H117.312V127.852H111.228V130.642H118.176V133H108.384V120.4ZM128.705 124C127.373 123.208 125.789 122.704 124.781 122.704C123.827 122.704 123.179 123.046 123.179 123.73C123.179 126.052 129.893 124.756 129.875 129.292C129.875 131.758 127.733 133.09 124.943 133.09C122.873 133.09 120.803 132.298 119.381 131.092L120.515 128.77C121.811 129.922 123.647 130.66 124.979 130.66C126.149 130.66 126.851 130.228 126.851 129.454C126.851 127.078 120.137 128.464 120.137 124C120.137 121.714 122.099 120.274 125.015 120.274C126.779 120.274 128.543 120.814 129.803 121.642L128.705 124Z" fill="white"/>
<path fill-rule="evenodd" clip-rule="evenodd" d="M46.9656 50.7115H32.4756C31.4714 50.7115 30.6652 51.5247 30.6652 52.5289V73.3552C30.6652 74.3523 31.4714 75.1656 32.4756 75.1656H46.9656C47.9627 75.1656 48.7759 74.3523 48.7759 73.3552V52.5289C48.7759 51.5247 47.9627 50.7115 46.9656 50.7115ZM45.1552 71.5448H34.2859V54.3393H45.1552V71.5448ZM66.8867 50.7115H52.3967C51.3996 50.7115 50.5863 51.5247 50.5863 52.5289V73.3552C50.5863 74.3523 51.3996 75.1656 52.3967 75.1656H66.8867C67.8909 75.1656 68.697 74.3523 68.697 73.3552V52.5289C68.697 51.5247 67.8909 50.7115 66.8867 50.7115ZM65.0763 71.5448H54.207V54.3393H65.0763V71.5448ZM66.8867 50.7115H52.3967C51.3996 50.7115 50.5863 51.5247 50.5863 52.5289V73.3552C50.5863 74.3523 51.3996 75.1656 52.3967 75.1656H66.8867C67.8909 75.1656 68.697 74.3523 68.697 73.3552V52.5289C68.697 51.5247 67.8909 50.7115 66.8867 50.7115ZM65.0763 71.5448H54.207V54.3393H65.0763V71.5448ZM46.9656 50.7115H32.4756C31.4714 50.7115 30.6652 51.5247 30.6652 52.5289V73.3552C30.6652 74.3523 31.4714 75.1656 32.4756 75.1656H46.9656C47.9627 75.1656 48.7759 74.3523 48.7759 73.3552V52.5289C48.7759 51.5247 47.9627 50.7115 46.9656 50.7115ZM45.1552 71.5448H34.2859V54.3393H45.1552V71.5448ZM46.9656 50.7115H32.4756C31.4714 50.7115 30.6652 51.5247 30.6652 52.5289V73.3552C30.6652 74.3523 31.4714 75.1656 32.4756 75.1656H46.9656C47.9627 75.1656 48.7759 74.3523 48.7759 73.3552V52.5289C48.7759 51.5247 47.9627 50.7115 46.9656 50.7115ZM45.1552 71.5448H34.2859V54.3393H45.1552V71.5448ZM66.8867 50.7115H52.3967C51.3996 50.7115 50.5863 51.5247 50.5863 52.5289V73.3552C50.5863 74.3523 51.3996 75.1656 52.3967 75.1656H66.8867C67.8909 75.1656 68.697 74.3523 68.697 73.3552V52.5289C68.697 51.5247 67.8909 50.7115 66.8867 50.7115ZM65.0763 71.5448H54.207V54.3393H65.0763V71.5448ZM66.8867 50.7115H52.3967C51.3996 50.7115 50.5863 51.5247 50.5863 52.5289V73.3552C50.5863 74.3523 51.3996 75.1656 52.3967 75.1656H66.8867C67.8909 75.1656 68.697 74.3523 68.697 73.3552V52.5289C68.697 51.5247 67.8909 50.7115 66.8867 50.7115ZM65.0763 71.5448H54.207V54.3393H65.0763V71.5448ZM46.9656 50.7115H32.4756C31.4714 50.7115 30.6652 51.5247 30.6652 52.5289V73.3552C30.6652 74.3523 31.4714 75.1656 32.4756 75.1656H46.9656C47.9627 75.1656 48.7759 74.3523 48.7759 73.3552V52.5289C48.7759 51.5247 47.9627 50.7115 46.9656 50.7115ZM45.1552 71.5448H34.2859V54.3393H45.1552V71.5448ZM46.9656 50.7115H32.4756C31.4714 50.7115 30.6652 51.5247 30.6652 52.5289V73.3552C30.6652 74.3523 31.4714 75.1656 32.4756 75.1656H46.9656C47.9627 75.1656 48.7759 74.3523 48.7759 73.3552V52.5289C48.7759 51.5247 47.9627 50.7115 46.9656 50.7115ZM45.1552 71.5448H34.2859V54.3393H45.1552V71.5448ZM66.8867 50.7115H52.3967C51.3996 50.7115 50.5863 51.5247 50.5863 52.5289V73.3552C50.5863 74.3523 51.3996 75.1656 52.3967 75.1656H66.8867C67.8909 75.1656 68.697 74.3523 68.697 73.3552V52.5289C68.697 51.5247 67.8909 50.7115 66.8867 50.7115ZM65.0763 71.5448H54.207V54.3393H65.0763V71.5448ZM66.8867 50.7115H52.3967C51.3996 50.7115 50.5863 51.5247 50.5863 52.5289V73.3552C50.5863 74.3523 51.3996 75.1656 52.3967 75.1656H66.8867C67.8909 75.1656 68.697 74.3523 68.697 73.3552V52.5289C68.697 51.5247 67.8909 50.7115 66.8867 50.7115ZM65.0763 71.5448H54.207V54.3393H65.0763V71.5448ZM46.9656 50.7115H32.4756C31.4714 50.7115 30.6652 51.5247 30.6652 52.5289V73.3552C30.6652 74.3523 31.4714 75.1656 32.4756 75.1656H46.9656C47.9627 75.1656 48.7759 74.3523 48.7759 73.3552V52.5289C48.7759 51.5247 47.9627 50.7115 46.9656 50.7115ZM45.1552 71.5448H34.2859V54.3393H45.1552V71.5448ZM118.058 36.2215V30.7904C118.058 30.5146 117.994 30.2317 117.867 29.9771L103.377 0.997116C103.073 0.381874 102.443 0 101.757 0H29.3004C28.6215 0 27.985 0.381874 27.6809 0.997116L13.1909 29.9771C13.0636 30.2317 13 30.5075 13 30.7904V36.2285C13 41.2283 17.0521 45.2804 22.0518 45.2804H22.0589V83.3193H14.8104C13.8133 83.3193 13 84.1325 13 85.1296C13 86.1267 13.8133 86.94 14.8104 86.94H116.247C117.245 86.94 118.058 86.1267 118.058 85.1296C118.058 84.1325 117.245 83.3193 116.247 83.3193H108.999V45.2804C114.006 45.2804 118.058 41.2283 118.058 36.2215ZM96.7789 83.3193H76.8508V56.1496H96.7789V83.3193ZM105.378 83.3193H100.4V54.3393C100.4 53.3351 99.5864 52.5289 98.5822 52.5289H75.0404C74.0362 52.5289 73.223 53.3351 73.223 54.3393V83.3193H25.6796V44.5237C27.1223 43.8943 28.3669 42.8972 29.3004 41.6596C30.6157 43.4064 32.5392 44.6581 34.7527 45.1036L34.887 45.1248L35.0143 45.1531L35.1487 45.1743L35.2831 45.1955L35.4174 45.2096L35.5518 45.2238L35.6862 45.2379L35.8559 45.2521L36.0327 45.2662L36.3721 45.2804H36.5489C39.512 45.2804 42.1356 43.8589 43.7904 41.6596C45.4452 43.8589 48.0688 45.2804 51.0318 45.2804H51.0389C54.002 45.2804 56.6327 43.8589 58.2874 41.6596C59.9352 43.8589 62.5658 45.2804 65.5289 45.2804C68.492 45.2804 71.1227 43.8589 72.7774 41.6596C74.4252 43.8589 77.0558 45.2804 80.0189 45.2804C82.982 45.2804 85.6127 43.8589 87.2604 41.6596C88.9152 43.8589 91.5458 45.2804 94.5018 45.2804H94.7847L94.9544 45.2733L95.11 45.2662L95.4565 45.2379L95.796 45.1884L96.1991 45.1248L96.3334 45.0965C98.5398 44.651 100.449 43.3993 101.757 41.6596C102.684 42.9043 103.936 43.9014 105.378 44.5308V83.3193ZM108.992 41.6596C108.723 41.6596 108.461 41.6384 108.2 41.596L108.193 41.6031C108.009 41.4828 107.797 41.3909 107.57 41.3414C105.293 40.8464 103.631 38.8097 103.568 36.377L103.561 36.3488V33.9868C103.497 31.9572 102.62 31.547 101.75 31.8723C100.888 31.5541 100.032 31.9431 99.9471 33.9302V34.0646L99.94 34.107V36.3488L99.9329 36.5043L99.9259 36.6458L99.9117 36.7801L99.9046 36.8862L99.8622 37.1903C99.6076 38.5693 98.8439 39.7715 97.7548 40.5777L97.7053 40.6201L97.6275 40.6767L97.5498 40.7332L97.4649 40.7898L97.38 40.8393L97.2952 40.8959L97.2174 40.9383L97.1255 40.9878L97.0406 41.0373L96.9487 41.0798L96.8638 41.1222L96.7719 41.1646L96.687 41.207L96.588 41.2495L96.4961 41.2848L96.4041 41.3202L96.2203 41.3838L95.9657 41.4616L95.704 41.5253L95.4353 41.5818L95.3009 41.6031L95.1666 41.6172L95.0464 41.6313L94.8625 41.6455L94.6786 41.6526L94.5018 41.6596C91.5034 41.6596 89.0707 39.227 89.0707 36.2285V34.0292C89.0707 33.9939 89.0707 33.9585 89.0637 33.9231V33.8666C88.9717 31.936 88.1161 31.547 87.2604 31.8653C86.44 31.5612 85.6127 31.9077 85.4712 33.6827V33.7393C85.4641 33.8029 85.4571 33.8595 85.4571 33.9231V34.0575L85.45 34.0999V36.2215C85.45 39.2199 83.0173 41.6596 80.0189 41.6596C77.0205 41.6596 74.5878 39.2199 74.5878 36.2215V34.1565C74.5878 34.0787 74.5807 34.0009 74.5807 33.9302V33.8807L74.5737 33.7181C74.5312 33.0392 74.411 32.5371 74.2271 32.1906L74.1989 32.1199L74.1494 32.035L74.0786 31.9431C73.7392 31.4693 73.2583 31.3985 72.7774 31.5824C72.4168 31.448 72.0632 31.448 71.7591 31.6531C71.752 31.6531 71.752 31.6602 71.745 31.6602L71.7025 31.6955C71.6884 31.7026 71.6742 31.7168 71.6601 31.7238L71.6318 31.7521C71.6177 31.7663 71.6035 31.7804 71.5894 31.7946C71.5682 31.8158 71.547 31.837 71.5257 31.8582L71.4975 31.8936C71.4833 31.9148 71.4692 31.936 71.455 31.9572L71.4409 31.9713C71.3984 32.035 71.356 32.1057 71.3207 32.1835L71.3065 32.2047C71.1014 32.629 70.9741 33.2725 70.96 34.1707V36.2215C70.96 39.2199 68.5273 41.6596 65.5289 41.6596C62.5305 41.6596 60.0978 39.2199 60.0978 36.2215V34.2272L60.0907 34.0292V33.9585C60.0624 33.0675 59.9069 32.4522 59.6735 32.0633L59.6523 32.0208L59.5886 31.9431C59.2492 31.4622 58.7683 31.3985 58.2874 31.5824C58.0046 31.4763 57.7288 31.4551 57.4742 31.547C57.3257 31.6036 57.1842 31.6955 57.057 31.837L57.0357 31.8582C56.7034 32.2542 56.4771 32.9755 56.47 34.1636V36.2215C56.47 39.2199 54.0373 41.6526 51.0389 41.6526H51.0318C48.0334 41.6526 45.6078 39.227 45.6078 36.2285V34.1707C45.6078 34.1141 45.6078 34.0646 45.6007 34.0151V33.8454C45.6007 33.8312 45.5937 33.8241 45.5937 33.8171C45.4947 31.7168 44.646 31.2571 43.7974 31.5824C43.0549 31.2995 42.3194 31.6178 42.0719 33.0745L42.0649 33.0887C42.0578 33.1382 42.0507 33.1877 42.0436 33.2443L42.0366 33.2867C42.0295 33.3291 42.0295 33.3857 42.0224 33.4352C42.0012 33.6756 41.9871 33.9373 41.9871 34.2272V36.2215C41.9871 39.2199 39.5473 41.6596 36.5489 41.6596C33.5505 41.6596 31.1178 39.2199 31.1178 36.2215V34.0999C31.1107 33.6686 31.0754 33.3079 31.0188 32.9967C30.7571 31.6036 30.0288 31.3066 29.3074 31.5824C29.2721 31.5683 29.2367 31.5541 29.2084 31.547C28.7276 31.3985 28.2608 31.5117 27.9284 32.035L27.9214 32.0562C27.688 32.4381 27.5324 33.0321 27.4971 33.9019V36.2498L27.49 36.37C27.4264 38.7956 25.7645 40.8322 23.4874 41.3343C23.254 41.3838 23.0419 41.4758 22.858 41.596C22.6034 41.6313 22.3347 41.6596 22.0589 41.6596H22.0518C19.0534 41.6596 16.6278 39.227 16.6278 36.2285V31.2147L30.4248 3.62073H100.64L114.437 31.2147V36.2215C114.437 39.2199 112.004 41.6596 108.992 41.6596ZM66.8867 50.7115H52.3967C51.3996 50.7115 50.5863 51.5247 50.5863 52.5289V73.3552C50.5863 74.3523 51.3996 75.1656 52.3967 75.1656H66.8867C67.8909 75.1656 68.697 74.3523 68.697 73.3552V52.5289C68.697 51.5247 67.8909 50.7115 66.8867 50.7115ZM65.0763 71.5448H54.207V54.3393H65.0763V71.5448ZM46.9656 50.7115H32.4756C31.4714 50.7115 30.6652 51.5247 30.6652 52.5289V73.3552C30.6652 74.3523 31.4714 75.1656 32.4756 75.1656H46.9656C47.9627 75.1656 48.7759 74.3523 48.7759 73.3552V52.5289C48.7759 51.5247 47.9627 50.7115 46.9656 50.7115ZM45.1552 71.5448H34.2859V54.3393H45.1552V71.5448ZM46.9656 50.7115H32.4756C31.4714 50.7115 30.6652 51.5247 30.6652 52.5289V73.3552C30.6652 74.3523 31.4714 75.1656 32.4756 75.1656H46.9656C47.9627 75.1656 48.7759 74.3523 48.7759 73.3552V52.5289C48.7759 51.5247 47.9627 50.7115 46.9656 50.7115ZM45.1552 71.5448H34.2859V54.3393H45.1552V71.5448ZM66.8867 50.7115H52.3967C51.3996 50.7115 50.5863 51.5247 50.5863 52.5289V73.3552C50.5863 74.3523 51.3996 75.1656 52.3967 75.1656H66.8867C67.8909 75.1656 68.697 74.3523 68.697 73.3552V52.5289C68.697 51.5247 67.8909 50.7115 66.8867 50.7115ZM65.0763 71.5448H54.207V54.3393H65.0763V71.5448ZM66.8867 50.7115H52.3967C51.3996 50.7115 50.5863 51.5247 50.5863 52.5289V73.3552C50.5863 74.3523 51.3996 75.1656 52.3967 75.1656H66.8867C67.8909 75.1656 68.697 74.3523 68.697 73.3552V52.5289C68.697 51.5247 67.8909 50.7115 66.8867 50.7115ZM65.0763 71.5448H54.207V54.3393H65.0763V71.5448ZM46.9656 50.7115H32.4756C31.4714 50.7115 30.6652 51.5247 30.6652 52.5289V73.3552C30.6652 74.3523 31.4714 75.1656 32.4756 75.1656H46.9656C47.9627 75.1656 48.7759 74.3523 48.7759 73.3552V52.5289C48.7759 51.5247 47.9627 50.7115 46.9656 50.7115ZM45.1552 71.5448H34.2859V54.3393H45.1552V71.5448ZM46.9656 50.7115H32.4756C31.4714 50.7115 30.6652 51.5247 30.6652 52.5289V73.3552C30.6652 74.3523 31.4714 75.1656 32.4756 75.1656H46.9656C47.9627 75.1656 48.7759 74.3523 48.7759 73.3552V52.5289C48.7759 51.5247 47.9627 50.7115 46.9656 50.7115ZM45.1552 71.5448H34.2859V54.3393H45.1552V71.5448ZM66.8867 50.7115H52.3967C51.3996 50.7115 50.5863 51.5247 50.5863 52.5289V73.3552C50.5863 74.3523 51.3996 75.1656 52.3967 75.1656H66.8867C67.8909 75.1656 68.697 74.3523 68.697 73.3552V52.5289C68.697 51.5247 67.8909 50.7115 66.8867 50.7115ZM65.0763 71.5448H54.207V54.3393H65.0763V71.5448ZM66.8867 50.7115H52.3967C51.3996 50.7115 50.5863 51.5247 50.5863 52.5289V73.3552C50.5863 74.3523 51.3996 75.1656 52.3967 75.1656H66.8867C67.8909 75.1656 68.697 74.3523 68.697 73.3552V52.5289C68.697 51.5247 67.8909 50.7115 66.8867 50.7115ZM65.0763 71.5448H54.207V54.3393H65.0763V71.5448ZM46.9656 50.7115H32.4756C31.4714 50.7115 30.6652 51.5247 30.6652 52.5289V73.3552C30.6652 74.3523 31.4714 75.1656 32.4756 75.1656H46.9656C47.9627 75.1656 48.7759 74.3523 48.7759 73.3552V52.5289C48.7759 51.5247 47.9627 50.7115 46.9656 50.7115ZM45.1552 71.5448H34.2859V54.3393H45.1552V71.5448Z" fill="white"/>
<path d="M319.534 125.62C321.658 125.872 323.134 127.096 323.134 129.058C323.134 131.452 321.172 133.126 318.076 133.126C316.294 133.126 314.458 132.532 313.252 131.65L314.404 129.382C315.412 130.354 316.618 130.876 317.86 130.876C319.444 130.876 320.344 130.192 320.344 129.094C320.344 127.942 319.444 127.366 317.842 127.366H315.826V125.8L319.048 122.704H313.9V120.4H322.504V122.11L318.85 125.53L319.534 125.62ZM329.671 120.292C332.803 120.292 334.531 122.578 334.531 126.682C334.531 130.804 332.803 133.072 329.671 133.072C326.521 133.072 324.793 130.804 324.793 126.682C324.793 122.578 326.521 120.292 329.671 120.292ZM329.671 122.38C328.213 122.38 327.547 123.676 327.547 126.682C327.547 129.67 328.213 130.984 329.671 130.984C331.111 130.984 331.777 129.67 331.777 126.682C331.777 123.676 331.111 122.38 329.671 122.38ZM340.781 120.292C343.913 120.292 345.641 122.578 345.641 126.682C345.641 130.804 343.913 133.072 340.781 133.072C337.631 133.072 335.903 130.804 335.903 126.682C335.903 122.578 337.631 120.292 340.781 120.292ZM340.781 122.38C339.323 122.38 338.657 123.676 338.657 126.682C338.657 129.67 339.323 130.984 340.781 130.984C342.221 130.984 342.887 129.67 342.887 126.682C342.887 123.676 342.221 122.38 340.781 122.38ZM354.842 126.214V128.05H351.764V131.092H350V128.05H346.922V126.214H350V123.154H351.764V126.214H354.842ZM366.507 120.4C369.711 120.4 371.547 121.984 371.547 124.774C371.547 127.708 369.711 129.4 366.507 129.4H364.005V133H361.161V120.4H366.507ZM366.363 127.024C367.947 127.024 368.847 126.304 368.847 124.864C368.847 123.46 367.947 122.758 366.363 122.758H364.005V127.024H366.363ZM373.361 120.4H382.955V122.758H376.205V125.494H382.289V127.852H376.205V130.642H383.153V133H373.361V120.4ZM391.252 120.31C395.104 120.31 398.02 123.046 398.02 126.7C398.02 130.336 395.104 133.126 391.252 133.126C387.4 133.126 384.484 130.354 384.484 126.7C384.484 123.028 387.4 120.31 391.252 120.31ZM391.288 122.794C389.164 122.794 387.4 124.486 387.4 126.7C387.4 128.914 389.182 130.642 391.288 130.642C393.394 130.642 395.104 128.914 395.104 126.7C395.104 124.486 393.394 122.794 391.288 122.794ZM405.232 120.4C408.436 120.4 410.272 121.984 410.272 124.774C410.272 127.708 408.436 129.4 405.232 129.4H402.73V133H399.886V120.4H405.232ZM405.088 127.024C406.672 127.024 407.572 126.304 407.572 124.864C407.572 123.46 406.672 122.758 405.088 122.758H402.73V127.024H405.088ZM412.085 120.4H414.929V130.516H420.329V133H412.085V120.4ZM422.017 120.4H431.611V122.758H424.861V125.494H430.945V127.852H424.861V130.642H431.809V133H422.017V120.4Z" fill="white"/>
<path d="M397.354 60.3491C393.78 55.7907 389.008 52.3094 383.565 50.3476C388.829 46.9092 392.311 40.9739 392.311 34.2325C392.311 23.6247 383.686 15 373.078 15C362.47 15.0071 353.86 23.6318 353.86 34.2325C353.86 40.9739 357.341 46.9092 362.606 50.3476C357.156 52.3166 352.397 55.7764 348.816 60.342C347.96 61.4335 348.16 63.0172 349.251 63.8732C350.343 64.7221 351.919 64.5295 352.775 63.438C357.669 57.1889 365.145 53.5578 373.078 53.5578C381.018 53.5578 388.494 57.1889 393.395 63.438C394.244 64.5295 395.828 64.7293 396.919 63.8732C398.01 63.0172 398.203 61.4406 397.354 60.3491ZM373.078 48.4144C365.238 48.4144 358.896 42.0725 358.896 34.2325C358.896 26.3854 365.231 20.0435 373.078 20.0435C380.932 20.0435 387.267 26.3783 387.267 34.2325C387.267 42.0725 380.925 48.4144 373.078 48.4144Z" fill="white"/>
<path d="M358.975 83.9118C356.129 74.7521 349.102 67.4043 340.113 64.1157C345.507 60.5559 348.767 54.5565 348.767 48.0719C348.767 37.464 340.142 28.8394 329.541 28.8394C318.941 28.8394 310.316 37.464 310.316 48.0719C310.316 54.5636 313.583 60.5488 318.969 64.1157C309.981 67.4043 302.961 74.7521 300.115 83.9118C299.701 85.2386 300.443 86.6511 301.763 87.0649C303.089 87.4715 304.502 86.7367 304.916 85.4098C308.269 74.6308 318.256 67.2973 329.541 67.2973C340.827 67.2973 350.821 74.6308 354.174 85.4098C354.588 86.7367 356 87.4715 357.327 87.0649C358.647 86.6511 359.389 85.2386 358.975 83.9118ZM329.541 62.2538C321.694 62.2538 315.359 55.9119 315.359 48.0648C315.359 40.2177 321.694 33.8829 329.541 33.8829C337.388 33.8829 343.73 40.2177 343.73 48.0648C343.73 55.9119 337.388 62.2538 329.541 62.2538Z" fill="white"/>
<path d="M446.064 83.9118C443.211 74.7378 436.191 67.4114 427.203 64.1157C432.589 60.5488 435.856 54.5707 435.856 48.0719C435.856 37.464 427.231 28.8394 416.623 28.8394C406.015 28.8394 397.398 37.464 397.398 48.0719C397.398 54.5636 400.658 60.5559 406.044 64.1228C397.063 67.4114 390.043 74.7521 387.197 83.9118C386.783 85.2386 387.525 86.6511 388.845 87.0649C390.171 87.4715 391.584 86.7367 391.998 85.4098C395.351 74.6308 405.345 67.2973 416.63 67.2973C427.909 67.2973 437.91 74.6308 441.256 85.4098C441.67 86.7367 443.082 87.4715 444.409 87.0649C445.736 86.6511 446.471 85.2386 446.064 83.9118ZM416.623 62.2538C408.783 62.2538 402.441 55.9119 402.441 48.0648C402.441 40.2248 408.79 33.8829 416.623 33.8829C424.478 33.8829 430.812 40.2177 430.812 48.0648C430.812 55.9119 424.47 62.2538 416.623 62.2538Z" fill="white"/>
<path d="M616.386 120.4H619.23V125.656H624.936V120.4H627.78V133H624.936V128.032H619.23V133H616.386V120.4ZM636.422 120.31C640.274 120.31 643.19 123.046 643.19 126.7C643.19 130.336 640.274 133.126 636.422 133.126C632.57 133.126 629.654 130.354 629.654 126.7C629.654 123.028 632.57 120.31 636.422 120.31ZM636.458 122.794C634.334 122.794 632.57 124.486 632.57 126.7C632.57 128.914 634.352 130.642 636.458 130.642C638.564 130.642 640.274 128.914 640.274 126.7C640.274 124.486 638.564 122.794 636.458 122.794ZM647.666 127.726C647.666 129.544 648.854 130.642 650.546 130.642C652.238 130.642 653.354 129.544 653.354 127.726V120.4H656.198V127.726C656.198 131.056 654.02 133.126 650.546 133.126C647.054 133.126 644.822 131.056 644.822 127.726V120.4H647.666V127.726ZM667.03 124C665.698 123.208 664.114 122.704 663.106 122.704C662.152 122.704 661.504 123.046 661.504 123.73C661.504 126.052 668.218 124.756 668.2 129.292C668.2 131.758 666.058 133.09 663.268 133.09C661.198 133.09 659.128 132.298 657.706 131.092L658.84 128.77C660.136 129.922 661.972 130.66 663.304 130.66C664.474 130.66 665.176 130.228 665.176 129.454C665.176 127.078 658.462 128.464 658.462 124C658.462 121.714 660.424 120.274 663.34 120.274C665.104 120.274 666.868 120.814 668.128 121.642L667.03 124ZM670.193 120.4H679.787V122.758H673.037V125.494H679.121V127.852H673.037V130.642H679.985V133H670.193V120.4ZM692.426 120.31C696.278 120.31 699.194 123.046 699.194 126.7C699.194 130.336 696.278 133.126 692.426 133.126C688.574 133.126 685.658 130.354 685.658 126.7C685.658 123.028 688.574 120.31 692.426 120.31ZM692.462 122.794C690.338 122.794 688.574 124.486 688.574 126.7C688.574 128.914 690.356 130.642 692.462 130.642C694.568 130.642 696.278 128.914 696.278 126.7C696.278 124.486 694.568 122.794 692.462 122.794ZM701.06 120.4H710.114L710.096 122.758H703.904V125.854H709.592V128.23H703.904V133H701.06V120.4ZM721.903 120.4C724.675 120.4 726.403 121.606 726.403 123.55C726.403 124.918 725.575 125.98 724.225 126.322C725.845 126.628 726.853 127.852 726.853 129.508C726.853 131.668 725.035 133 722.101 133H716.107V120.4H721.903ZM721.759 125.476C722.821 125.476 723.487 124.954 723.487 124.072C723.487 123.208 722.821 122.722 721.759 122.722H718.951V125.476H721.759ZM721.759 130.678C723.109 130.678 723.919 130.12 723.919 129.148C723.919 128.23 723.109 127.672 721.759 127.672H718.951V130.678H721.759ZM739.883 133H736.661L734.663 129.4H734.393H731.765V133H728.921V120.4H734.393C737.687 120.4 739.559 121.984 739.559 124.774C739.559 126.718 738.731 128.122 737.201 128.842L739.883 133ZM731.765 122.758V127.024H734.393C735.959 127.024 736.859 126.304 736.859 124.864C736.859 123.46 735.959 122.758 734.393 122.758H731.765ZM751.253 133L750.263 130.552H744.431L743.441 133H740.507L745.979 120.4H748.913L754.295 133H751.253ZM745.367 128.266H749.345L747.365 123.37L745.367 128.266ZM755.605 120.4H758.197L764.317 128.5V120.4H767.017V133H764.425L758.323 124.918V133H755.605V120.4ZM775.136 120.4C779.042 120.4 781.76 122.974 781.76 126.7C781.76 130.408 779.006 133 775.028 133H769.79V120.4H775.136ZM775.208 130.606C777.314 130.606 778.862 129.022 778.862 126.718C778.862 124.396 777.242 122.794 775.082 122.794H772.634V130.606H775.208ZM791.922 124C790.59 123.208 789.006 122.704 787.998 122.704C787.044 122.704 786.396 123.046 786.396 123.73C786.396 126.052 793.11 124.756 793.092 129.292C793.092 131.758 790.95 133.09 788.16 133.09C786.09 133.09 784.02 132.298 782.598 131.092L783.732 128.77C785.028 129.922 786.864 130.66 788.196 130.66C789.366 130.66 790.068 130.228 790.068 129.454C790.068 127.078 783.354 128.464 783.354 124C783.354 121.714 785.316 120.274 788.232 120.274C789.996 120.274 791.76 120.814 793.02 121.642L791.922 124Z" fill="white"/>
<path d="M719.302 22.0726C719.085 21.4169 718.531 20.9236 717.857 20.7792L709.902 19.0165L706.355 11.9297C706.018 11.2619 705.331 10.8468 704.591 10.8468C704.537 10.8468 704.476 10.8468 704.416 10.8528C703.742 10.919 703.146 11.3221 702.844 11.9297L699.298 19.0165L691.343 20.7792C690.662 20.9236 690.114 21.4169 689.897 22.0726C689.675 22.7284 689.813 23.4563 690.265 23.9797L695.63 30.2363L694.703 38.2496C694.619 38.9776 694.944 39.6874 695.546 40.0965C696.142 40.5116 696.925 40.5598 697.569 40.2229L704.597 36.5892L711.63 40.2229C712.275 40.5598 713.058 40.5116 713.654 40.0965C714.256 39.6874 714.575 38.9776 714.497 38.2496L713.569 30.2363L718.935 23.9797C719.387 23.4563 719.525 22.7284 719.302 22.0726ZM709.992 28.2992C709.685 28.6541 709.523 29.1053 709.523 29.5746C709.523 29.6528 709.523 29.731 709.535 29.8092L710.119 35.013L705.494 32.6126C705.217 32.4683 704.904 32.3961 704.603 32.3961C704.29 32.3961 703.989 32.4683 703.706 32.6126L699.081 35.013L699.665 29.8092C699.731 29.2617 699.562 28.7143 699.201 28.2992L695.413 23.8895L701.086 22.6261C701.658 22.4998 702.14 22.1268 702.411 21.6094L704.597 17.2298L706.789 21.6094C707.06 22.1268 707.541 22.4998 708.114 22.6261L713.786 23.8895L709.992 28.2992ZM719.302 22.0726C719.085 21.4169 718.531 20.9236 717.857 20.7792L709.902 19.0165L706.355 11.9297C706.018 11.2619 705.331 10.8468 704.591 10.8468C704.537 10.8468 704.476 10.8468 704.416 10.8528C703.742 10.919 703.146 11.3221 702.844 11.9297L699.298 19.0165L691.343 20.7792C690.662 20.9236 690.114 21.4169 689.897 22.0726C689.675 22.7284 689.813 23.4563 690.265 23.9797L695.63 30.2363L694.703 38.2496C694.619 38.9776 694.944 39.6874 695.546 40.0965C696.142 40.5116 696.925 40.5598 697.569 40.2229L704.597 36.5892L711.63 40.2229C712.275 40.5598 713.058 40.5116 713.654 40.0965C714.256 39.6874 714.575 38.9776 714.497 38.2496L713.569 30.2363L718.935 23.9797C719.387 23.4563 719.525 22.7284 719.302 22.0726ZM709.992 28.2992C709.685 28.6541 709.523 29.1053 709.523 29.5746C709.523 29.6528 709.523 29.731 709.535 29.8092L710.119 35.013L705.494 32.6126C705.217 32.4683 704.904 32.3961 704.603 32.3961C704.29 32.3961 703.989 32.4683 703.706 32.6126L699.081 35.013L699.665 29.8092C699.731 29.2617 699.562 28.7143 699.201 28.2992L695.413 23.8895L701.086 22.6261C701.658 22.4998 702.14 22.1268 702.411 21.6094L704.597 17.2298L706.789 21.6094C707.06 22.1268 707.541 22.4998 708.114 22.6261L713.786 23.8895L709.992 28.2992ZM735.892 73.9424L720.507 47.9895C727.016 43.1286 731.238 35.3619 731.238 26.6328C731.238 11.9477 719.29 0 704.597 0C689.909 0 677.962 11.9477 677.962 26.6328C677.962 35.3619 682.183 43.1346 688.687 47.9895L678.022 65.9893V65.9953C677.715 66.4405 677.613 67 677.733 67.5294C677.848 68.0648 678.185 68.522 678.655 68.7988C679.118 69.0755 679.684 69.1477 680.208 68.9913C680.732 68.8409 681.166 68.4799 681.413 67.9986L692.017 50.0891C695.775 52.1104 700.044 53.2595 704.597 53.2595C709.155 53.2595 713.425 52.1104 717.176 50.0891L730.744 72.9859H723.343C722.602 72.9919 721.922 73.407 721.591 74.0688L718.26 80.7225L706.295 61.0923C705.94 60.4907 705.295 60.1297 704.597 60.1297C703.904 60.1297 703.26 60.4907 702.905 61.0923L690.939 80.7225L687.609 74.0688C687.272 73.407 686.597 72.9919 685.851 72.9859H674.999C674.469 72.9799 673.964 73.1844 673.584 73.5574C673.211 73.9244 673 74.4358 673 74.9591C673 75.4885 673.211 75.9939 673.584 76.3669C673.964 76.7339 674.469 76.9384 674.999 76.9324H684.652L689.03 85.6856C689.349 86.3293 689.994 86.7505 690.71 86.7866C691.427 86.8166 692.107 86.4557 692.481 85.8421L704.597 65.9292L716.719 85.8421C717.092 86.4557 717.773 86.8166 718.489 86.7866C719.206 86.7505 719.85 86.3293 720.169 85.6856L724.547 76.9324H734.2C734.911 76.9324 735.567 76.5534 735.923 75.9337C736.272 75.3141 736.26 74.5561 735.892 73.9424ZM704.597 49.319C692.041 49.319 681.906 39.1881 681.906 26.6328C681.906 14.0834 692.041 3.94648 704.597 3.94648C717.158 3.94648 727.293 14.0774 727.293 26.6328C727.293 39.1881 717.152 49.319 704.597 49.319ZM717.857 20.7792L709.902 19.0165L706.355 11.9297C706.018 11.2619 705.331 10.8468 704.591 10.8468C704.537 10.8468 704.476 10.8468 704.416 10.8528C703.742 10.919 703.146 11.3221 702.844 11.9297L699.298 19.0165L691.343 20.7792C690.662 20.9236 690.114 21.4169 689.897 22.0726C689.675 22.7284 689.813 23.4563 690.265 23.9797L695.63 30.2363L694.703 38.2496C694.619 38.9776 694.944 39.6874 695.546 40.0965C696.142 40.5116 696.925 40.5598 697.569 40.2229L704.597 36.5892L711.63 40.2229C712.275 40.5598 713.058 40.5116 713.654 40.0965C714.256 39.6874 714.575 38.9776 714.497 38.2496L713.569 30.2363L718.935 23.9797C719.387 23.4563 719.525 22.7284 719.302 22.0726C719.085 21.4169 718.531 20.9236 717.857 20.7792ZM709.992 28.2992C709.685 28.6541 709.523 29.1053 709.523 29.5746C709.523 29.6528 709.523 29.731 709.535 29.8092L710.119 35.013L705.494 32.6126C705.217 32.4683 704.904 32.3961 704.603 32.3961C704.29 32.3961 703.989 32.4683 703.706 32.6126L699.081 35.013L699.665 29.8092C699.731 29.2617 699.562 28.7143 699.201 28.2992L695.413 23.8895L701.086 22.6261C701.658 22.4998 702.14 22.1268 702.411 21.6094L704.597 17.2298L706.789 21.6094C707.06 22.1268 707.541 22.4998 708.114 22.6261L713.786 23.8895L709.992 28.2992Z" fill="white"/>
</svg>
