<svg width="18" height="26" viewBox="0 0 18 26" fill="none" xmlns="http://www.w3.org/2000/svg">
<path d="M9.56026 24C11.1603 17.39 16.3403 15.4902 16.6903 10.4902C17.2503 2.62023 10.4003 1.87988 8.93025 1.87988C7.46025 1.87988 0.390243 2.82023 1.17024 10.4902C1.67024 15.4402 6.45027 17.56 8.51027 24C8.51027 24 8.51027 24.3101 9.01027 24.3101C9.51027 24.3101 9.56026 24 9.56026 24Z" stroke="white" stroke-width="2"/>
<path d="M8.92023 13.2207C10.7925 13.2207 12.3102 11.7028 12.3102 9.83057C12.3102 7.95832 10.7925 6.44043 8.92023 6.44043C7.04798 6.44043 5.53027 7.95832 5.53027 9.83057C5.53027 11.7028 7.04798 13.2207 8.92023 13.2207Z" stroke="white" stroke-width="2"/>
</svg>
