<svg width="184" height="163" viewBox="0 0 184 163" fill="none" xmlns="http://www.w3.org/2000/svg">
<path d="M77.29 143.017V153.517H75.34V144.652H73.12V143.017H77.29ZM83.7529 153.667C82.9129 153.667 82.1629 153.457 81.5029 153.037C80.8429 152.607 80.3229 151.987 79.9429 151.177C79.5629 150.357 79.3729 149.387 79.3729 148.267C79.3729 147.147 79.5629 146.182 79.9429 145.372C80.3229 144.552 80.8429 143.932 81.5029 143.512C82.1629 143.082 82.9129 142.867 83.7529 142.867C84.5929 142.867 85.3429 143.082 86.0029 143.512C86.6729 143.932 87.1979 144.552 87.5779 145.372C87.9579 146.182 88.1479 147.147 88.1479 148.267C88.1479 149.387 87.9579 150.357 87.5779 151.177C87.1979 151.987 86.6729 152.607 86.0029 153.037C85.3429 153.457 84.5929 153.667 83.7529 153.667ZM83.7529 151.972C84.5029 151.972 85.0929 151.662 85.5229 151.042C85.9629 150.422 86.1829 149.497 86.1829 148.267C86.1829 147.037 85.9629 146.112 85.5229 145.492C85.0929 144.872 84.5029 144.562 83.7529 144.562C83.0129 144.562 82.4229 144.872 81.9829 145.492C81.5529 146.112 81.3379 147.037 81.3379 148.267C81.3379 149.497 81.5529 150.422 81.9829 151.042C82.4229 151.662 83.0129 151.972 83.7529 151.972ZM93.8457 153.667C93.0057 153.667 92.2557 153.457 91.5957 153.037C90.9357 152.607 90.4157 151.987 90.0357 151.177C89.6557 150.357 89.4657 149.387 89.4657 148.267C89.4657 147.147 89.6557 146.182 90.0357 145.372C90.4157 144.552 90.9357 143.932 91.5957 143.512C92.2557 143.082 93.0057 142.867 93.8457 142.867C94.6857 142.867 95.4357 143.082 96.0957 143.512C96.7657 143.932 97.2907 144.552 97.6707 145.372C98.0507 146.182 98.2407 147.147 98.2407 148.267C98.2407 149.387 98.0507 150.357 97.6707 151.177C97.2907 151.987 96.7657 152.607 96.0957 153.037C95.4357 153.457 94.6857 153.667 93.8457 153.667ZM93.8457 151.972C94.5957 151.972 95.1857 151.662 95.6157 151.042C96.0557 150.422 96.2757 149.497 96.2757 148.267C96.2757 147.037 96.0557 146.112 95.6157 145.492C95.1857 144.872 94.5957 144.562 93.8457 144.562C93.1057 144.562 92.5157 144.872 92.0757 145.492C91.6457 146.112 91.4307 147.037 91.4307 148.267C91.4307 149.497 91.6457 150.422 92.0757 151.042C92.5157 151.662 93.1057 151.972 93.8457 151.972ZM103.938 153.667C103.098 153.667 102.348 153.457 101.688 153.037C101.028 152.607 100.508 151.987 100.128 151.177C99.7484 150.357 99.5584 149.387 99.5584 148.267C99.5584 147.147 99.7484 146.182 100.128 145.372C100.508 144.552 101.028 143.932 101.688 143.512C102.348 143.082 103.098 142.867 103.938 142.867C104.778 142.867 105.528 143.082 106.188 143.512C106.858 143.932 107.383 144.552 107.763 145.372C108.143 146.182 108.333 147.147 108.333 148.267C108.333 149.387 108.143 150.357 107.763 151.177C107.383 151.987 106.858 152.607 106.188 153.037C105.528 153.457 104.778 153.667 103.938 153.667ZM103.938 151.972C104.688 151.972 105.278 151.662 105.708 151.042C106.148 150.422 106.368 149.497 106.368 148.267C106.368 147.037 106.148 146.112 105.708 145.492C105.278 144.872 104.688 144.562 103.938 144.562C103.198 144.562 102.608 144.872 102.168 145.492C101.738 146.112 101.523 147.037 101.523 148.267C101.523 149.497 101.738 150.422 102.168 151.042C102.608 151.662 103.198 151.972 103.938 151.972ZM116.954 149.017H114.299V151.642H112.694V149.017H110.039V147.517H112.694V144.892H114.299V147.517H116.954V149.017ZM126.723 153.667C125.913 153.667 125.128 153.552 124.368 153.322C123.618 153.092 123.023 152.787 122.583 152.407L123.258 150.892C123.688 151.232 124.213 151.512 124.833 151.732C125.463 151.942 126.093 152.047 126.723 152.047C127.503 152.047 128.083 151.922 128.463 151.672C128.853 151.422 129.048 151.092 129.048 150.682C129.048 150.382 128.938 150.137 128.718 149.947C128.508 149.747 128.238 149.592 127.908 149.482C127.578 149.372 127.128 149.247 126.558 149.107C125.758 148.917 125.108 148.727 124.608 148.537C124.118 148.347 123.693 148.052 123.333 147.652C122.983 147.242 122.808 146.692 122.808 146.002C122.808 145.422 122.963 144.897 123.273 144.427C123.593 143.947 124.068 143.567 124.698 143.287C125.338 143.007 126.118 142.867 127.038 142.867C127.678 142.867 128.308 142.947 128.928 143.107C129.548 143.267 130.083 143.497 130.533 143.797L129.918 145.312C129.458 145.042 128.978 144.837 128.478 144.697C127.978 144.557 127.493 144.487 127.023 144.487C126.253 144.487 125.678 144.617 125.298 144.877C124.928 145.137 124.743 145.482 124.743 145.912C124.743 146.212 124.848 146.457 125.058 146.647C125.278 146.837 125.553 146.987 125.883 147.097C126.213 147.207 126.663 147.332 127.233 147.472C128.013 147.652 128.653 147.842 129.153 148.042C129.653 148.232 130.078 148.527 130.428 148.927C130.788 149.327 130.968 149.867 130.968 150.547C130.968 151.127 130.808 151.652 130.488 152.122C130.178 152.592 129.703 152.967 129.063 153.247C128.423 153.527 127.643 153.667 126.723 153.667ZM134.885 144.667H131.405V143.017H140.315V144.667H136.835V153.517H134.885V144.667ZM146.537 153.667C145.467 153.667 144.502 153.437 143.642 152.977C142.782 152.507 142.107 151.862 141.617 151.042C141.127 150.212 140.882 149.287 140.882 148.267C140.882 147.247 141.127 146.327 141.617 145.507C142.107 144.677 142.782 144.032 143.642 143.572C144.502 143.102 145.467 142.867 146.537 142.867C147.607 142.867 148.572 143.102 149.432 143.572C150.292 144.032 150.967 144.672 151.457 145.492C151.947 146.312 152.192 147.237 152.192 148.267C152.192 149.297 151.947 150.222 151.457 151.042C150.967 151.862 150.292 152.507 149.432 152.977C148.572 153.437 147.607 153.667 146.537 153.667ZM146.537 151.957C147.237 151.957 147.867 151.802 148.427 151.492C148.987 151.172 149.427 150.732 149.747 150.172C150.067 149.602 150.227 148.967 150.227 148.267C150.227 147.567 150.067 146.937 149.747 146.377C149.427 145.807 148.987 145.367 148.427 145.057C147.867 144.737 147.237 144.577 146.537 144.577C145.837 144.577 145.207 144.737 144.647 145.057C144.087 145.367 143.647 145.807 143.327 146.377C143.007 146.937 142.847 147.567 142.847 148.267C142.847 148.967 143.007 149.602 143.327 150.172C143.647 150.732 144.087 151.172 144.647 151.492C145.207 151.802 145.837 151.957 146.537 151.957ZM161.129 153.517L158.984 150.442C158.894 150.452 158.759 150.457 158.579 150.457H156.209V153.517H154.259V143.017H158.579C159.489 143.017 160.279 143.167 160.949 143.467C161.629 143.767 162.149 144.197 162.509 144.757C162.869 145.317 163.049 145.982 163.049 146.752C163.049 147.542 162.854 148.222 162.464 148.792C162.084 149.362 161.534 149.787 160.814 150.067L163.229 153.517H161.129ZM161.084 146.752C161.084 146.082 160.864 145.567 160.424 145.207C159.984 144.847 159.339 144.667 158.489 144.667H156.209V148.852H158.489C159.339 148.852 159.984 148.672 160.424 148.312C160.864 147.942 161.084 147.422 161.084 146.752ZM173.105 151.882V153.517H165.23V143.017H172.895V144.652H167.18V147.382H172.25V148.987H167.18V151.882H173.105ZM178.534 153.667C177.724 153.667 176.939 153.552 176.179 153.322C175.429 153.092 174.834 152.787 174.394 152.407L175.069 150.892C175.499 151.232 176.024 151.512 176.644 151.732C177.274 151.942 177.904 152.047 178.534 152.047C179.314 152.047 179.894 151.922 180.274 151.672C180.664 151.422 180.859 151.092 180.859 150.682C180.859 150.382 180.749 150.137 180.529 149.947C180.319 149.747 180.049 149.592 179.719 149.482C179.389 149.372 178.939 149.247 178.369 149.107C177.569 148.917 176.919 148.727 176.419 148.537C175.929 148.347 175.504 148.052 175.144 147.652C174.794 147.242 174.619 146.692 174.619 146.002C174.619 145.422 174.774 144.897 175.084 144.427C175.404 143.947 175.879 143.567 176.509 143.287C177.149 143.007 177.929 142.867 178.849 142.867C179.489 142.867 180.119 142.947 180.739 143.107C181.359 143.267 181.894 143.497 182.344 143.797L181.729 145.312C181.269 145.042 180.789 144.837 180.289 144.697C179.789 144.557 179.304 144.487 178.834 144.487C178.064 144.487 177.489 144.617 177.109 144.877C176.739 145.137 176.554 145.482 176.554 145.912C176.554 146.212 176.659 146.457 176.869 146.647C177.089 146.837 177.364 146.987 177.694 147.097C178.024 147.207 178.474 147.332 179.044 147.472C179.824 147.652 180.464 147.842 180.964 148.042C181.464 148.232 181.889 148.527 182.239 148.927C182.599 149.327 182.779 149.867 182.779 150.547C182.779 151.127 182.619 151.652 182.299 152.122C181.989 152.592 181.514 152.967 180.874 153.247C180.234 153.527 179.454 153.667 178.534 153.667Z" fill="white"/>
<path fill-rule="evenodd" clip-rule="evenodd" d="M19.2254 147.239H13.1567C12.7361 147.239 12.3985 147.579 12.3985 148V156.722C12.3985 157.14 12.7361 157.481 13.1567 157.481H19.2254C19.643 157.481 19.9836 157.14 19.9836 156.722V148C19.9836 147.579 19.643 147.239 19.2254 147.239ZM18.4672 155.964H13.9149V148.758H18.4672V155.964ZM27.5687 147.239H21.5C21.0824 147.239 20.7418 147.579 20.7418 148V156.722C20.7418 157.14 21.0824 157.481 21.5 157.481H27.5687C27.9892 157.481 28.3269 157.14 28.3269 156.722V148C28.3269 147.579 27.9892 147.239 27.5687 147.239ZM26.8104 155.964H22.2582V148.758H26.8104V155.964ZM27.5687 147.239H21.5C21.0824 147.239 20.7418 147.579 20.7418 148V156.722C20.7418 157.14 21.0824 157.481 21.5 157.481H27.5687C27.9892 157.481 28.3269 157.14 28.3269 156.722V148C28.3269 147.579 27.9892 147.239 27.5687 147.239ZM26.8104 155.964H22.2582V148.758H26.8104V155.964ZM19.2254 147.239H13.1567C12.7361 147.239 12.3985 147.579 12.3985 148V156.722C12.3985 157.14 12.7361 157.481 13.1567 157.481H19.2254C19.643 157.481 19.9836 157.14 19.9836 156.722V148C19.9836 147.579 19.643 147.239 19.2254 147.239ZM18.4672 155.964H13.9149V148.758H18.4672V155.964ZM19.2254 147.239H13.1567C12.7361 147.239 12.3985 147.579 12.3985 148V156.722C12.3985 157.14 12.7361 157.481 13.1567 157.481H19.2254C19.643 157.481 19.9836 157.14 19.9836 156.722V148C19.9836 147.579 19.643 147.239 19.2254 147.239ZM18.4672 155.964H13.9149V148.758H18.4672V155.964ZM27.5687 147.239H21.5C21.0824 147.239 20.7418 147.579 20.7418 148V156.722C20.7418 157.14 21.0824 157.481 21.5 157.481H27.5687C27.9892 157.481 28.3269 157.14 28.3269 156.722V148C28.3269 147.579 27.9892 147.239 27.5687 147.239ZM26.8104 155.964H22.2582V148.758H26.8104V155.964ZM27.5687 147.239H21.5C21.0824 147.239 20.7418 147.579 20.7418 148V156.722C20.7418 157.14 21.0824 157.481 21.5 157.481H27.5687C27.9892 157.481 28.3269 157.14 28.3269 156.722V148C28.3269 147.579 27.9892 147.239 27.5687 147.239ZM26.8104 155.964H22.2582V148.758H26.8104V155.964ZM19.2254 147.239H13.1567C12.7361 147.239 12.3985 147.579 12.3985 148V156.722C12.3985 157.14 12.7361 157.481 13.1567 157.481H19.2254C19.643 157.481 19.9836 157.14 19.9836 156.722V148C19.9836 147.579 19.643 147.239 19.2254 147.239ZM18.4672 155.964H13.9149V148.758H18.4672V155.964ZM19.2254 147.239H13.1567C12.7361 147.239 12.3985 147.579 12.3985 148V156.722C12.3985 157.14 12.7361 157.481 13.1567 157.481H19.2254C19.643 157.481 19.9836 157.14 19.9836 156.722V148C19.9836 147.579 19.643 147.239 19.2254 147.239ZM18.4672 155.964H13.9149V148.758H18.4672V155.964ZM27.5687 147.239H21.5C21.0824 147.239 20.7418 147.579 20.7418 148V156.722C20.7418 157.14 21.0824 157.481 21.5 157.481H27.5687C27.9892 157.481 28.3269 157.14 28.3269 156.722V148C28.3269 147.579 27.9892 147.239 27.5687 147.239ZM26.8104 155.964H22.2582V148.758H26.8104V155.964ZM27.5687 147.239H21.5C21.0824 147.239 20.7418 147.579 20.7418 148V156.722C20.7418 157.14 21.0824 157.481 21.5 157.481H27.5687C27.9892 157.481 28.3269 157.14 28.3269 156.722V148C28.3269 147.579 27.9892 147.239 27.5687 147.239ZM26.8104 155.964H22.2582V148.758H26.8104V155.964ZM19.2254 147.239H13.1567C12.7361 147.239 12.3985 147.579 12.3985 148V156.722C12.3985 157.14 12.7361 157.481 13.1567 157.481H19.2254C19.643 157.481 19.9836 157.14 19.9836 156.722V148C19.9836 147.579 19.643 147.239 19.2254 147.239ZM18.4672 155.964H13.9149V148.758H18.4672V155.964ZM49 141.17V138.896C49 138.78 48.9733 138.662 48.92 138.555L42.8514 126.418C42.724 126.16 42.4604 126 42.1731 126H11.8269C11.5425 126 11.276 126.16 11.1486 126.418L5.07997 138.555C5.02666 138.662 5 138.777 5 138.896V141.173C5 143.267 6.69709 144.964 8.79106 144.964H8.79402V160.896H5.75821C5.3406 160.896 5 161.236 5 161.654C5 162.071 5.3406 162.412 5.75821 162.412H48.2418C48.6594 162.412 49 162.071 49 161.654C49 161.236 48.6594 160.896 48.2418 160.896H45.206V144.964C47.3029 144.964 49 143.267 49 141.17ZM40.088 160.896H31.7418V149.516H40.088V160.896ZM43.6896 160.896H41.6045V148.758C41.6045 148.338 41.2639 148 40.8433 148H30.9836C30.563 148 30.2224 148.338 30.2224 148.758V160.896H10.3104V144.647C10.9146 144.384 11.4359 143.966 11.8269 143.448C12.3778 144.179 13.1834 144.704 14.1104 144.89L14.1667 144.899L14.22 144.911L14.2763 144.92L14.3325 144.929L14.3888 144.935L14.4451 144.94L14.5013 144.946L14.5724 144.952L14.6465 144.958L14.7886 144.964H14.8627C16.1037 144.964 17.2025 144.369 17.8955 143.448C18.5886 144.369 19.6874 144.964 20.9284 144.964H20.9313C22.1723 144.964 23.2741 144.369 23.9672 143.448C24.6572 144.369 25.759 144.964 27 144.964C28.241 144.964 29.3428 144.369 30.0358 143.448C30.7259 144.369 31.8277 144.964 33.0687 144.964C34.3096 144.964 35.4114 144.369 36.1015 143.448C36.7946 144.369 37.8963 144.964 39.1344 144.964H39.2528L39.3239 144.961L39.3891 144.958L39.5342 144.946L39.6764 144.926L39.8452 144.899L39.9015 144.887C40.8255 144.701 41.6252 144.176 42.1731 143.448C42.5611 143.969 43.0854 144.387 43.6896 144.65V160.896ZM45.203 143.448C45.0905 143.448 44.9809 143.439 44.8713 143.421L44.8683 143.424C44.7913 143.374 44.7025 143.335 44.6077 143.314C43.654 143.107 42.958 142.254 42.9313 141.235L42.9284 141.223V140.234C42.9017 139.384 42.5345 139.212 42.1702 139.349C41.8088 139.215 41.4505 139.378 41.4149 140.211V140.267L41.412 140.285V141.223L41.409 141.289L41.406 141.348L41.4001 141.404L41.3971 141.449L41.3794 141.576C41.2728 142.153 40.9529 142.657 40.4968 142.995L40.476 143.012L40.4435 143.036L40.4109 143.06L40.3753 143.083L40.3398 143.104L40.3043 143.128L40.2717 143.146L40.2332 143.166L40.1976 143.187L40.1591 143.205L40.1236 143.223L40.0851 143.24L40.0495 143.258L40.0081 143.276L39.9696 143.291L39.9311 143.306L39.8541 143.332L39.7474 143.365L39.6379 143.391L39.5253 143.415L39.469 143.424L39.4128 143.43L39.3624 143.436L39.2854 143.442L39.2084 143.445L39.1344 143.448C37.8786 143.448 36.8597 142.429 36.8597 141.173V140.252C36.8597 140.237 36.8597 140.222 36.8568 140.208V140.184C36.8183 139.375 36.4599 139.212 36.1015 139.346C35.7579 139.218 35.4114 139.363 35.3522 140.107V140.131C35.3492 140.157 35.3463 140.181 35.3463 140.208V140.264L35.3433 140.282V141.17C35.3433 142.426 34.3244 143.448 33.0687 143.448C31.8129 143.448 30.794 142.426 30.794 141.17V140.305C30.794 140.273 30.7911 140.24 30.7911 140.211V140.19L30.7881 140.122C30.7703 139.837 30.72 139.627 30.643 139.482L30.6311 139.452L30.6104 139.417L30.5808 139.378C30.4386 139.18 30.2372 139.15 30.0358 139.227C29.8848 139.171 29.7367 139.171 29.6093 139.257C29.6064 139.257 29.6064 139.26 29.6034 139.26L29.5856 139.275C29.5797 139.278 29.5738 139.284 29.5679 139.286L29.556 139.298C29.5501 139.304 29.5442 139.31 29.5382 139.316C29.5293 139.325 29.5205 139.334 29.5116 139.343L29.4997 139.358C29.4938 139.366 29.4879 139.375 29.482 139.384L29.476 139.39C29.4583 139.417 29.4405 139.446 29.4257 139.479L29.4198 139.488C29.3339 139.666 29.2806 139.935 29.2746 140.311V141.17C29.2746 142.426 28.2558 143.448 27 143.448C25.7442 143.448 24.7254 142.426 24.7254 141.17V140.335L24.7224 140.252V140.222C24.7106 139.849 24.6454 139.592 24.5477 139.429L24.5388 139.411L24.5121 139.378C24.37 139.177 24.1686 139.15 23.9672 139.227C23.8487 139.183 23.7332 139.174 23.6265 139.212C23.5644 139.236 23.5051 139.275 23.4518 139.334L23.4429 139.343C23.3037 139.509 23.2089 139.811 23.206 140.308V141.17C23.206 142.426 22.1871 143.445 20.9313 143.445H20.9284C19.6726 143.445 18.6567 142.429 18.6567 141.173V140.311C18.6567 140.288 18.6567 140.267 18.6537 140.246V140.175C18.6537 140.169 18.6508 140.166 18.6508 140.163C18.6093 139.284 18.2539 139.091 17.8985 139.227C17.5875 139.109 17.2795 139.242 17.1758 139.852L17.1729 139.858C17.1699 139.879 17.1669 139.9 17.164 139.923L17.161 139.941C17.1581 139.959 17.1581 139.982 17.1551 140.003C17.1462 140.104 17.1403 140.214 17.1403 140.335V141.17C17.1403 142.426 16.1185 143.448 14.8627 143.448C13.6069 143.448 12.588 142.426 12.588 141.17V140.282C12.5851 140.101 12.5703 139.95 12.5466 139.82C12.437 139.236 12.1319 139.112 11.8298 139.227C11.815 139.221 11.8002 139.215 11.7884 139.212C11.587 139.15 11.3915 139.198 11.2523 139.417L11.2493 139.426C11.1516 139.586 11.0864 139.834 11.0716 140.199V141.182L11.0687 141.232C11.042 142.248 10.346 143.101 9.3923 143.312C9.29456 143.332 9.20571 143.371 9.1287 143.421C9.02208 143.436 8.90953 143.448 8.79402 143.448H8.79106C7.53527 143.448 6.51939 142.429 6.51939 141.173V139.073L12.2978 127.516H41.7052L47.4836 139.073V141.17C47.4836 142.426 46.4647 143.448 45.203 143.448ZM27.5687 147.239H21.5C21.0824 147.239 20.7418 147.579 20.7418 148V156.722C20.7418 157.14 21.0824 157.481 21.5 157.481H27.5687C27.9892 157.481 28.3269 157.14 28.3269 156.722V148C28.3269 147.579 27.9892 147.239 27.5687 147.239ZM26.8104 155.964H22.2582V148.758H26.8104V155.964ZM19.2254 147.239H13.1567C12.7361 147.239 12.3985 147.579 12.3985 148V156.722C12.3985 157.14 12.7361 157.481 13.1567 157.481H19.2254C19.643 157.481 19.9836 157.14 19.9836 156.722V148C19.9836 147.579 19.643 147.239 19.2254 147.239ZM18.4672 155.964H13.9149V148.758H18.4672V155.964ZM19.2254 147.239H13.1567C12.7361 147.239 12.3985 147.579 12.3985 148V156.722C12.3985 157.14 12.7361 157.481 13.1567 157.481H19.2254C19.643 157.481 19.9836 157.14 19.9836 156.722V148C19.9836 147.579 19.643 147.239 19.2254 147.239ZM18.4672 155.964H13.9149V148.758H18.4672V155.964ZM27.5687 147.239H21.5C21.0824 147.239 20.7418 147.579 20.7418 148V156.722C20.7418 157.14 21.0824 157.481 21.5 157.481H27.5687C27.9892 157.481 28.3269 157.14 28.3269 156.722V148C28.3269 147.579 27.9892 147.239 27.5687 147.239ZM26.8104 155.964H22.2582V148.758H26.8104V155.964ZM27.5687 147.239H21.5C21.0824 147.239 20.7418 147.579 20.7418 148V156.722C20.7418 157.14 21.0824 157.481 21.5 157.481H27.5687C27.9892 157.481 28.3269 157.14 28.3269 156.722V148C28.3269 147.579 27.9892 147.239 27.5687 147.239ZM26.8104 155.964H22.2582V148.758H26.8104V155.964ZM19.2254 147.239H13.1567C12.7361 147.239 12.3985 147.579 12.3985 148V156.722C12.3985 157.14 12.7361 157.481 13.1567 157.481H19.2254C19.643 157.481 19.9836 157.14 19.9836 156.722V148C19.9836 147.579 19.643 147.239 19.2254 147.239ZM18.4672 155.964H13.9149V148.758H18.4672V155.964ZM19.2254 147.239H13.1567C12.7361 147.239 12.3985 147.579 12.3985 148V156.722C12.3985 157.14 12.7361 157.481 13.1567 157.481H19.2254C19.643 157.481 19.9836 157.14 19.9836 156.722V148C19.9836 147.579 19.643 147.239 19.2254 147.239ZM18.4672 155.964H13.9149V148.758H18.4672V155.964ZM27.5687 147.239H21.5C21.0824 147.239 20.7418 147.579 20.7418 148V156.722C20.7418 157.14 21.0824 157.481 21.5 157.481H27.5687C27.9892 157.481 28.3269 157.14 28.3269 156.722V148C28.3269 147.579 27.9892 147.239 27.5687 147.239ZM26.8104 155.964H22.2582V148.758H26.8104V155.964ZM27.5687 147.239H21.5C21.0824 147.239 20.7418 147.579 20.7418 148V156.722C20.7418 157.14 21.0824 157.481 21.5 157.481H27.5687C27.9892 157.481 28.3269 157.14 28.3269 156.722V148C28.3269 147.579 27.9892 147.239 27.5687 147.239ZM26.8104 155.964H22.2582V148.758H26.8104V155.964ZM19.2254 147.239H13.1567C12.7361 147.239 12.3985 147.579 12.3985 148V156.722C12.3985 157.14 12.7361 157.481 13.1567 157.481H19.2254C19.643 157.481 19.9836 157.14 19.9836 156.722V148C19.9836 147.579 19.643 147.239 19.2254 147.239ZM18.4672 155.964H13.9149V148.758H18.4672V155.964Z" fill="white"/>
<path d="M80.13 82.3787C81.1 82.4987 81.84 82.8287 82.35 83.3687C82.86 83.9087 83.115 84.5837 83.115 85.3937C83.115 86.0037 82.96 86.5587 82.65 87.0587C82.34 87.5587 81.87 87.9587 81.24 88.2587C80.62 88.5487 79.86 88.6937 78.96 88.6937C78.21 88.6937 77.485 88.5887 76.785 88.3787C76.095 88.1587 75.505 87.8587 75.015 87.4787L75.855 85.9637C76.235 86.2837 76.695 86.5387 77.235 86.7287C77.785 86.9087 78.35 86.9987 78.93 86.9987C79.62 86.9987 80.16 86.8587 80.55 86.5787C80.95 86.2887 81.15 85.8987 81.15 85.4087C81.15 84.9187 80.96 84.5387 80.58 84.2687C80.21 83.9887 79.64 83.8487 78.87 83.8487H77.91V82.5137L80.295 79.6787H75.525V78.0437H82.68V79.3487L80.13 82.3787ZM88.7705 88.6937C87.9305 88.6937 87.1805 88.4837 86.5205 88.0637C85.8605 87.6337 85.3405 87.0137 84.9605 86.2037C84.5805 85.3837 84.3905 84.4137 84.3905 83.2937C84.3905 82.1737 84.5805 81.2087 84.9605 80.3987C85.3405 79.5787 85.8605 78.9587 86.5205 78.5387C87.1805 78.1087 87.9305 77.8937 88.7705 77.8937C89.6105 77.8937 90.3605 78.1087 91.0205 78.5387C91.6905 78.9587 92.2155 79.5787 92.5955 80.3987C92.9755 81.2087 93.1655 82.1737 93.1655 83.2937C93.1655 84.4137 92.9755 85.3837 92.5955 86.2037C92.2155 87.0137 91.6905 87.6337 91.0205 88.0637C90.3605 88.4837 89.6105 88.6937 88.7705 88.6937ZM88.7705 86.9987C89.5205 86.9987 90.1105 86.6887 90.5405 86.0687C90.9805 85.4487 91.2005 84.5237 91.2005 83.2937C91.2005 82.0637 90.9805 81.1387 90.5405 80.5187C90.1105 79.8987 89.5205 79.5887 88.7705 79.5887C88.0305 79.5887 87.4405 79.8987 87.0005 80.5187C86.5705 81.1387 86.3555 82.0637 86.3555 83.2937C86.3555 84.5237 86.5705 85.4487 87.0005 86.0687C87.4405 86.6887 88.0305 86.9987 88.7705 86.9987ZM98.8632 88.6937C98.0232 88.6937 97.2732 88.4837 96.6132 88.0637C95.9532 87.6337 95.4332 87.0137 95.0532 86.2037C94.6732 85.3837 94.4832 84.4137 94.4832 83.2937C94.4832 82.1737 94.6732 81.2087 95.0532 80.3987C95.4332 79.5787 95.9532 78.9587 96.6132 78.5387C97.2732 78.1087 98.0232 77.8937 98.8632 77.8937C99.7032 77.8937 100.453 78.1087 101.113 78.5387C101.783 78.9587 102.308 79.5787 102.688 80.3987C103.068 81.2087 103.258 82.1737 103.258 83.2937C103.258 84.4137 103.068 85.3837 102.688 86.2037C102.308 87.0137 101.783 87.6337 101.113 88.0637C100.453 88.4837 99.7032 88.6937 98.8632 88.6937ZM98.8632 86.9987C99.6132 86.9987 100.203 86.6887 100.633 86.0687C101.073 85.4487 101.293 84.5237 101.293 83.2937C101.293 82.0637 101.073 81.1387 100.633 80.5187C100.203 79.8987 99.6132 79.5887 98.8632 79.5887C98.1232 79.5887 97.5332 79.8987 97.0932 80.5187C96.6632 81.1387 96.4482 82.0637 96.4482 83.2937C96.4482 84.5237 96.6632 85.4487 97.0932 86.0687C97.5332 86.6887 98.1232 86.9987 98.8632 86.9987ZM111.879 84.0437H109.224V86.6687H107.619V84.0437H104.964V82.5437H107.619V79.9187H109.224V82.5437H111.879V84.0437ZM122.712 78.0437C123.622 78.0437 124.412 78.1937 125.082 78.4937C125.762 78.7937 126.282 79.2237 126.642 79.7837C127.002 80.3437 127.182 81.0087 127.182 81.7787C127.182 82.5387 127.002 83.2037 126.642 83.7737C126.282 84.3337 125.762 84.7637 125.082 85.0637C124.412 85.3637 123.622 85.5137 122.712 85.5137H120.342V88.5437H118.392V78.0437H122.712ZM122.622 83.8637C123.472 83.8637 124.117 83.6837 124.557 83.3237C124.997 82.9637 125.217 82.4487 125.217 81.7787C125.217 81.1087 124.997 80.5937 124.557 80.2337C124.117 79.8737 123.472 79.6937 122.622 79.6937H120.342V83.8637H122.622ZM137.005 86.9087V88.5437H129.13V78.0437H136.795V79.6787H131.08V82.4087H136.15V84.0137H131.08V86.9087H137.005ZM144.04 88.6937C142.97 88.6937 142.005 88.4637 141.145 88.0037C140.285 87.5337 139.61 86.8887 139.12 86.0687C138.63 85.2387 138.385 84.3137 138.385 83.2937C138.385 82.2737 138.63 81.3537 139.12 80.5337C139.61 79.7037 140.285 79.0587 141.145 78.5987C142.005 78.1287 142.97 77.8937 144.04 77.8937C145.11 77.8937 146.075 78.1287 146.935 78.5987C147.795 79.0587 148.47 79.6987 148.96 80.5187C149.45 81.3387 149.695 82.2637 149.695 83.2937C149.695 84.3237 149.45 85.2487 148.96 86.0687C148.47 86.8887 147.795 87.5337 146.935 88.0037C146.075 88.4637 145.11 88.6937 144.04 88.6937ZM144.04 86.9837C144.74 86.9837 145.37 86.8287 145.93 86.5187C146.49 86.1987 146.93 85.7587 147.25 85.1987C147.57 84.6287 147.73 83.9937 147.73 83.2937C147.73 82.5937 147.57 81.9637 147.25 81.4037C146.93 80.8337 146.49 80.3937 145.93 80.0837C145.37 79.7637 144.74 79.6037 144.04 79.6037C143.34 79.6037 142.71 79.7637 142.15 80.0837C141.59 80.3937 141.15 80.8337 140.83 81.4037C140.51 81.9637 140.35 82.5937 140.35 83.2937C140.35 83.9937 140.51 84.6287 140.83 85.1987C141.15 85.7587 141.59 86.1987 142.15 86.5187C142.71 86.8287 143.34 86.9837 144.04 86.9837ZM156.082 78.0437C156.992 78.0437 157.782 78.1937 158.452 78.4937C159.132 78.7937 159.652 79.2237 160.012 79.7837C160.372 80.3437 160.552 81.0087 160.552 81.7787C160.552 82.5387 160.372 83.2037 160.012 83.7737C159.652 84.3337 159.132 84.7637 158.452 85.0637C157.782 85.3637 156.992 85.5137 156.082 85.5137H153.712V88.5437H151.762V78.0437H156.082ZM155.992 83.8637C156.842 83.8637 157.487 83.6837 157.927 83.3237C158.367 82.9637 158.587 82.4487 158.587 81.7787C158.587 81.1087 158.367 80.5937 157.927 80.2337C157.487 79.8737 156.842 79.6937 155.992 79.6937H153.712V83.8637H155.992ZM162.499 78.0437H164.449V86.8937H169.939V88.5437H162.499V78.0437ZM179.353 86.9087V88.5437H171.478V78.0437H179.143V79.6787H173.428V82.4087H178.498V84.0137H173.428V86.9087H179.353Z" fill="white"/>
<path d="M35.9643 83.7527C34.644 82.0688 32.881 80.7827 30.8702 80.058C32.8151 78.7878 34.1011 76.5952 34.1011 74.1048C34.1011 70.1861 30.915 67 26.9963 67C23.0776 67.0026 19.8968 70.1887 19.8968 74.1048C19.8968 76.5952 21.1828 78.7878 23.1277 80.058C21.1143 80.7854 19.3565 82.0635 18.0336 83.7501C17.7173 84.1533 17.7911 84.7383 18.1943 85.0546C18.5975 85.3682 19.1799 85.297 19.4962 84.8938C21.304 82.5853 24.0658 81.2439 26.9963 81.2439C29.9294 81.2439 32.6912 82.5853 34.5017 84.8938C34.8153 85.297 35.4003 85.3708 35.8035 85.0546C36.2067 84.7383 36.2779 84.1559 35.9643 83.7527ZM26.9963 79.3438C24.1001 79.3438 21.7573 77.001 21.7573 74.1048C21.7573 71.206 24.0975 68.8632 26.9963 68.8632C29.8978 68.8632 32.238 71.2033 32.238 74.1048C32.238 77.001 29.8952 79.3438 26.9963 79.3438Z" fill="white"/>
<path d="M21.7864 92.4572C20.7349 89.0735 18.1391 86.3591 14.8186 85.1442C16.8109 83.8292 18.0152 81.6129 18.0152 79.2174C18.0152 75.2986 14.8291 72.1125 10.913 72.1125C6.99696 72.1125 3.81086 75.2986 3.81086 79.2174C3.81086 81.6155 5.01784 83.8265 7.0075 85.1442C3.687 86.3591 1.09385 89.0735 0.0423576 92.4572C-0.110491 92.9474 0.163582 93.4692 0.651116 93.622C1.14129 93.7722 1.66308 93.5008 1.81593 93.0106C3.05453 89.0287 6.74397 86.3196 10.913 86.3196C15.0821 86.3196 18.7742 89.0287 20.0128 93.0106C20.1657 93.5008 20.6874 93.7722 21.1776 93.622C21.6651 93.4692 21.9392 92.9474 21.7864 92.4572ZM10.913 84.4564C8.0142 84.4564 5.67403 82.1136 5.67403 79.2147C5.67403 76.3159 8.0142 73.9757 10.913 73.9757C13.8119 73.9757 16.1547 76.3159 16.1547 79.2147C16.1547 82.1136 13.8119 84.4564 10.913 84.4564Z" fill="white"/>
<path d="M53.9587 92.4572C52.9046 89.0682 50.3114 86.3617 46.9909 85.1442C48.9806 83.8265 50.1875 81.6181 50.1875 79.2174C50.1875 75.2986 47.0014 72.1125 43.0827 72.1125C39.164 72.1125 35.9805 75.2986 35.9805 79.2174C35.9805 81.6155 37.1849 83.8292 39.1745 85.1468C35.8567 86.3617 33.2635 89.0735 32.212 92.4572C32.0592 92.9474 32.3333 93.4692 32.8208 93.622C33.311 93.7722 33.8328 93.5008 33.9856 93.0106C35.2242 89.0287 38.9163 86.3196 43.0854 86.3196C47.2518 86.3196 50.9465 89.0287 52.1825 93.0106C52.3353 93.5008 52.8571 93.7722 53.3473 93.622C53.8375 93.4692 54.1089 92.9474 53.9587 92.4572ZM43.0827 84.4564C40.1865 84.4564 37.8437 82.1136 37.8437 79.2147C37.8437 76.3185 40.1891 73.9757 43.0827 73.9757C45.9842 73.9757 48.3244 76.3159 48.3244 79.2147C48.3244 82.1136 45.9816 84.4564 43.0827 84.4564Z" fill="white"/>
<path d="M80.048 12.784H82.448L79.104 19.424H81.712V16.944H84.032L84.048 19.424H85.568V21.456H84.032V24H81.712V21.456H76.48V19.696L80.048 12.784ZM93.443 17.968V19.6H90.707V22.304H89.139V19.6H86.403V17.968H89.139V15.248H90.707V17.968H93.443ZM104.212 12.8C106.676 12.8 108.212 13.872 108.212 15.6C108.212 16.816 107.476 17.76 106.276 18.064C107.716 18.336 108.612 19.424 108.612 20.896C108.612 22.816 106.996 24 104.388 24H99.0601V12.8H104.212ZM104.084 17.312C105.028 17.312 105.62 16.848 105.62 16.064C105.62 15.296 105.028 14.864 104.084 14.864H101.588V17.312H104.084ZM104.084 21.936C105.284 21.936 106.004 21.44 106.004 20.576C106.004 19.76 105.284 19.264 104.084 19.264H101.588V21.936H104.084ZM120.195 24H117.331L115.555 20.8H115.315H112.979V24H110.451V12.8H115.315C118.243 12.8 119.907 14.208 119.907 16.688C119.907 18.416 119.171 19.664 117.811 20.304L120.195 24ZM112.979 14.896V18.688H115.315C116.707 18.688 117.507 18.048 117.507 16.768C117.507 15.52 116.707 14.896 115.315 14.896H112.979ZM130.301 24L129.421 21.824H124.237L123.357 24H120.749L125.613 12.8H128.221L133.005 24H130.301ZM125.069 19.792H128.605L126.845 15.44L125.069 19.792ZM134.17 12.8H136.474L141.914 20V12.8H144.314V24H142.01L136.586 16.816V24H134.17V12.8ZM151.531 12.8C155.003 12.8 157.419 15.088 157.419 18.4C157.419 21.696 154.971 24 151.435 24H146.779V12.8H151.531ZM151.595 21.872C153.467 21.872 154.843 20.464 154.843 18.416C154.843 16.352 153.403 14.928 151.483 14.928H149.307V21.872H151.595ZM166.452 16C165.268 15.296 163.86 14.848 162.964 14.848C162.116 14.848 161.54 15.152 161.54 15.76C161.54 17.824 167.508 16.672 167.492 20.704C167.492 22.896 165.588 24.08 163.108 24.08C161.268 24.08 159.428 23.376 158.164 22.304L159.172 20.24C160.324 21.264 161.956 21.92 163.14 21.92C164.18 21.92 164.804 21.536 164.804 20.848C164.804 18.736 158.836 19.968 158.836 16C158.836 13.968 160.58 12.688 163.172 12.688C164.74 12.688 166.308 13.168 167.428 13.904L166.452 16Z" fill="white"/>
<path d="M36.0345 10.9807C35.9266 10.6545 35.651 10.4091 35.3155 10.3373L31.3581 9.46035L29.5936 5.93479C29.4258 5.60259 29.0843 5.39608 28.7158 5.39608C28.6888 5.39608 28.6589 5.39608 28.6289 5.39907C28.2934 5.432 27.9968 5.63252 27.847 5.93479L26.0825 9.46035L22.1251 10.3373C21.7866 10.4091 21.514 10.6545 21.4061 10.9807C21.2953 11.3069 21.3642 11.6691 21.5889 11.9294L24.2581 15.042L23.7967 19.0284C23.7548 19.3906 23.9166 19.7437 24.2162 19.9472C24.5127 20.1538 24.9022 20.1777 25.2227 20.0101L28.7188 18.2024L32.2178 20.0101C32.5384 20.1777 32.9278 20.1538 33.2244 19.9472C33.524 19.7437 33.6828 19.3906 33.6438 19.0284L33.1825 15.042L35.8517 11.9294C36.0764 11.6691 36.1453 11.3069 36.0345 10.9807ZM31.403 14.0783C31.2502 14.2549 31.1693 14.4793 31.1693 14.7128C31.1693 14.7517 31.1693 14.7906 31.1753 14.8295L31.4659 17.4183L29.1652 16.2242C29.0274 16.1523 28.8716 16.1164 28.7218 16.1164C28.566 16.1164 28.4162 16.1523 28.2754 16.2242L25.9747 17.4183L26.2653 14.8295C26.2982 14.5571 26.2143 14.2848 26.0346 14.0783L24.1502 11.8845L26.9723 11.2561C27.2569 11.1932 27.4965 11.0076 27.6313 10.7503L28.7188 8.57148L29.8092 10.7503C29.9441 11.0076 30.1837 11.1932 30.4683 11.2561L33.2903 11.8845L31.403 14.0783ZM36.0345 10.9807C35.9266 10.6545 35.651 10.4091 35.3155 10.3373L31.3581 9.46035L29.5936 5.93479C29.4258 5.60259 29.0843 5.39608 28.7158 5.39608C28.6888 5.39608 28.6589 5.39608 28.6289 5.39907C28.2934 5.432 27.9968 5.63252 27.847 5.93479L26.0825 9.46035L22.1251 10.3373C21.7866 10.4091 21.514 10.6545 21.4061 10.9807C21.2953 11.3069 21.3642 11.6691 21.5889 11.9294L24.2581 15.042L23.7967 19.0284C23.7548 19.3906 23.9166 19.7437 24.2162 19.9472C24.5127 20.1538 24.9022 20.1777 25.2227 20.0101L28.7188 18.2024L32.2178 20.0101C32.5384 20.1777 32.9278 20.1538 33.2244 19.9472C33.524 19.7437 33.6828 19.3906 33.6438 19.0284L33.1825 15.042L35.8517 11.9294C36.0764 11.6691 36.1453 11.3069 36.0345 10.9807ZM31.403 14.0783C31.2502 14.2549 31.1693 14.4793 31.1693 14.7128C31.1693 14.7517 31.1693 14.7906 31.1753 14.8295L31.4659 17.4183L29.1652 16.2242C29.0274 16.1523 28.8716 16.1164 28.7218 16.1164C28.566 16.1164 28.4162 16.1523 28.2754 16.2242L25.9747 17.4183L26.2653 14.8295C26.2982 14.5571 26.2143 14.2848 26.0346 14.0783L24.1502 11.8845L26.9723 11.2561C27.2569 11.1932 27.4965 11.0076 27.6313 10.7503L28.7188 8.57148L29.8092 10.7503C29.9441 11.0076 30.1837 11.1932 30.4683 11.2561L33.2903 11.8845L31.403 14.0783ZM44.2878 36.7849L36.6336 23.8738C39.872 21.4556 41.9721 17.5919 41.9721 13.2493C41.9721 5.94377 36.0285 0 28.7188 0C21.4121 0 15.4685 5.94377 15.4685 13.2493C15.4685 17.5919 17.5685 21.4586 20.804 23.8738L15.4985 32.8284V32.8314C15.3457 33.0529 15.2948 33.3312 15.3547 33.5946C15.4116 33.8609 15.5794 34.0884 15.813 34.2261C16.0437 34.3637 16.3253 34.3996 16.5859 34.3218C16.8466 34.247 17.0623 34.0674 17.1851 33.828L22.4606 24.9183C24.33 25.9239 26.454 26.4956 28.7188 26.4956C30.9866 26.4956 33.1106 25.9239 34.9769 24.9183L41.7264 36.3091H38.0446C37.6761 36.3121 37.3376 36.5186 37.1728 36.8478L35.5162 40.1579L29.5636 30.3922C29.3868 30.093 29.0663 29.9134 28.7188 29.9134C28.3743 29.9134 28.0537 30.093 27.877 30.3922L21.9244 40.1579L20.2677 36.8478C20.1 36.5186 19.7644 36.3121 19.393 36.3091H13.9946C13.731 36.3061 13.4793 36.4078 13.2906 36.5934C13.1049 36.776 13 37.0303 13 37.2907C13 37.5541 13.1049 37.8055 13.2906 37.991C13.4793 38.1736 13.731 38.2754 13.9946 38.2724H18.7968L20.9747 42.6269C21.1335 42.9472 21.4541 43.1567 21.8106 43.1746C22.167 43.1896 22.5056 43.01 22.6913 42.7048L28.7188 32.7985L34.7493 42.7048C34.935 43.01 35.2735 43.1896 35.63 43.1746C35.9865 43.1567 36.3071 42.9472 36.4658 42.6269L38.6438 38.2724H43.446C43.7995 38.2724 44.126 38.0838 44.3028 37.7756C44.4765 37.4673 44.4705 37.0902 44.2878 36.7849ZM28.7188 24.5353C22.4726 24.5353 17.4307 19.4953 17.4307 13.2493C17.4307 7.00623 22.4726 1.9633 28.7188 1.9633C34.968 1.9633 40.0098 7.00323 40.0098 13.2493C40.0098 19.4953 34.965 24.5353 28.7188 24.5353ZM35.3155 10.3373L31.3581 9.46035L29.5936 5.93479C29.4258 5.60259 29.0843 5.39608 28.7158 5.39608C28.6888 5.39608 28.6589 5.39608 28.6289 5.39907C28.2934 5.432 27.9968 5.63252 27.847 5.93479L26.0825 9.46035L22.1251 10.3373C21.7866 10.4091 21.514 10.6545 21.4061 10.9807C21.2953 11.3069 21.3642 11.6691 21.5889 11.9294L24.2581 15.042L23.7967 19.0284C23.7548 19.3906 23.9166 19.7437 24.2162 19.9472C24.5127 20.1538 24.9022 20.1777 25.2227 20.0101L28.7188 18.2024L32.2178 20.0101C32.5384 20.1777 32.9278 20.1538 33.2244 19.9472C33.524 19.7437 33.6828 19.3906 33.6438 19.0284L33.1825 15.042L35.8517 11.9294C36.0764 11.6691 36.1453 11.3069 36.0345 10.9807C35.9266 10.6545 35.651 10.4091 35.3155 10.3373ZM31.403 14.0783C31.2502 14.2549 31.1693 14.4793 31.1693 14.7128C31.1693 14.7517 31.1693 14.7906 31.1753 14.8295L31.4659 17.4183L29.1652 16.2242C29.0274 16.1523 28.8716 16.1164 28.7218 16.1164C28.566 16.1164 28.4162 16.1523 28.2754 16.2242L25.9747 17.4183L26.2653 14.8295C26.2982 14.5571 26.2143 14.2848 26.0346 14.0783L24.1502 11.8845L26.9723 11.2561C27.2569 11.1932 27.4965 11.0076 27.6313 10.7503L28.7188 8.57148L29.8092 10.7503C29.9441 11.0076 30.1837 11.1932 30.4683 11.2561L33.2903 11.8845L31.403 14.0783Z" fill="white"/>
</svg>
