<svg width="23" height="18" viewBox="0 0 23 18" fill="none" xmlns="http://www.w3.org/2000/svg">
<path fill-rule="evenodd" clip-rule="evenodd" d="M21.5892 3.40039C21.5892 3.02113 21.4386 2.65734 21.1704 2.38916C20.9022 2.12098 20.5386 1.9707 20.1593 1.9707H2.45923C2.07997 1.9707 1.7163 2.12098 1.44812 2.38916C1.17994 2.65734 1.0293 3.02113 1.0293 3.40039V14.7305C1.0293 15.1097 1.17994 15.4735 1.44812 15.7417C1.7163 16.0099 2.07997 16.1606 2.45923 16.1606H20.1593C20.3475 16.162 20.534 16.1256 20.7081 16.0542C20.8822 15.9828 21.0403 15.8777 21.1733 15.7446C21.3064 15.6116 21.4118 15.4534 21.4832 15.2793C21.5545 15.1052 21.5906 14.9186 21.5892 14.7305V3.40039Z" stroke="white" stroke-width="2"/>
<path d="M0.929688 3.58984L11.0996 8.70996C11.3542 8.84313 11.6374 8.9126 11.9247 8.9126C12.212 8.9126 12.495 8.84313 12.7496 8.70996L21.6896 3.81006" stroke="white" stroke-width="2"/>
</svg>
