<svg width="18" height="26" viewBox="0 0 18 26" fill="none" xmlns="http://www.w3.org/2000/svg">
<path d="M16.3602 22.5897L13.8902 24.4598C13.604 24.6651 13.2706 24.7948 12.921 24.8368C12.5713 24.8787 12.2168 24.8318 11.8902 24.7C11.1721 24.3967 10.4797 24.0354 9.82012 23.62C7.19892 21.5989 5.10331 18.9757 3.71075 15.973C2.31818 12.9703 1.66968 9.67644 1.82012 6.36995C1.92656 5.60623 2.08707 4.85075 2.30022 4.1097C2.39614 3.77315 2.57859 3.46787 2.82952 3.22396C3.08045 2.98004 3.39102 2.80638 3.73015 2.72005L6.73015 1.99984C6.91165 1.95284 7.10118 1.94535 7.28582 1.97786C7.47046 2.01038 7.64595 2.08214 7.80047 2.18831C7.95499 2.29449 8.08489 2.43239 8.18145 2.5931C8.27801 2.7538 8.33895 2.93367 8.36016 3.11995L8.95013 7.6097C8.98649 7.91642 8.91588 8.22656 8.75005 8.48714C8.58423 8.74772 8.33346 8.94291 8.04021 9.03987L5.7802 9.78987C5.97084 11.386 6.41292 12.9418 7.09014 14.3997C7.75738 15.839 8.64093 17.1677 9.71014 18.3397L11.7101 17.0599C11.9789 16.8957 12.2964 16.8301 12.6082 16.8739C12.9201 16.9176 13.2071 17.0678 13.4202 17.2996L16.5102 20.64C16.6412 20.7715 16.7423 20.9296 16.8066 21.1038C16.8708 21.278 16.8967 21.4641 16.8825 21.6493C16.8683 21.8344 16.8142 22.0143 16.7241 22.1766C16.6339 22.3389 16.5098 22.4797 16.3602 22.5897Z" stroke="white" stroke-width="2"/>
</svg>
