<svg width="94" height="51" viewBox="0 0 94 51" fill="none" xmlns="http://www.w3.org/2000/svg">
<rect x="3" width="89" height="51" fill="#B7416C"/>
<path d="M33.3083 22.896C33.3083 25.596 31.6163 27.144 28.9163 27.144C27.0983 27.144 25.6403 26.406 24.5243 25.11L26.0363 22.86C26.9543 23.814 27.9443 24.282 28.6823 24.282C29.4923 24.282 29.9963 23.778 29.9963 22.824V17.1H25.6763V14.382H33.3083V22.896ZM45.7018 14.292C49.6078 14.292 52.5238 17.028 52.5238 20.682C52.5238 24.372 49.6078 27.144 45.7018 27.144C41.7958 27.144 38.8798 24.372 38.8798 20.682C38.8798 17.01 41.7958 14.292 45.7018 14.292ZM45.7378 17.1C43.8478 17.1 42.2638 18.648 42.2638 20.7C42.2638 22.752 43.8658 24.336 45.7378 24.336C47.6278 24.336 49.1398 22.752 49.1398 20.7C49.1398 18.648 47.6278 17.1 45.7378 17.1ZM69.4831 14.382L64.9291 22.968V27H61.6351V23.058L56.9911 14.382H60.2851L63.2731 19.8L66.1891 14.382H69.4831Z" fill="#FCC411"/>
<path d="M18.1688 36.832C18.1688 38.35 19.0708 39.23 20.5338 39.23C21.9968 39.23 22.8768 38.35 22.8768 36.832V32.3H23.7568V36.832C23.7568 38.845 22.5468 40.033 20.5338 40.033C18.5098 40.033 17.2888 38.845 17.2888 36.832V32.3H18.1688V36.832ZM25.9082 32.3H26.8212L31.4412 38.559V32.3H32.3102V40H31.4082L26.7882 33.752V40H25.9082V32.3ZM34.6523 32.3H35.5323V39.186H38.9093V40H34.6523V32.3ZM40.3349 32.3H41.2149V40H40.3349V32.3ZM43.5469 32.3H44.6359L47.4519 37.888L50.2569 32.3H51.3349V40H50.5209L50.5099 33.598L47.7049 39.186H47.1769L44.3829 33.598V40H43.5469V32.3ZM53.6767 32.3H54.5567V40H53.6767V32.3ZM55.8437 32.3H61.7507V33.114H59.2317V40H58.3517V33.114H55.8437V32.3ZM63.0224 32.3H68.2474V33.114H63.9024V35.699H67.7854V36.502H63.9024V39.186H68.3904V40H63.0224V32.3ZM73.3005 32.3C75.5445 32.3 77.2605 33.961 77.2605 36.15C77.2605 38.339 75.5335 40 73.2675 40H70.1875V32.3H73.3005ZM73.3115 39.186C75.0275 39.186 76.3695 37.888 76.3695 36.161C76.3695 34.423 75.0055 33.114 73.2785 33.114H71.0675V39.186H73.3115Z" fill="white"/>
</svg>
