<svg width="241" height="16" viewBox="0 0 241 16" fill="none" xmlns="http://www.w3.org/2000/svg">
<path d="M0.012 5.616H1.428L3.084 10.632L4.692 5.616H6.12L7.74 10.632L9.372 5.616H10.776L8.448 12H7.02L5.4 7.272L3.78 12H2.364L0.012 5.616ZM10.7229 5.616H12.1389L13.7949 10.632L15.4029 5.616H16.8309L18.4509 10.632L20.0829 5.616H21.4869L19.1589 12H17.7309L16.1109 7.272L14.4909 12H13.0749L10.7229 5.616ZM21.4339 5.616H22.8499L24.5059 10.632L26.1139 5.616H27.5419L29.1619 10.632L30.7939 5.616H32.1979L29.8699 12H28.4419L26.8219 7.272L25.2019 12H23.7859L21.4339 5.616ZM33.183 10.524C33.615 10.524 33.939 10.848 33.939 11.304C33.939 11.772 33.615 12.108 33.183 12.108C32.751 12.108 32.427 11.772 32.427 11.304C32.427 10.848 32.751 10.524 33.183 10.524ZM39.1803 5.568C40.9923 5.568 42.2283 6.888 42.2283 8.832C42.2283 10.74 41.0283 12.048 39.2043 12.048C38.1843 12.048 37.4163 11.64 36.9483 10.896V12H35.5683V3.096H36.9483V6.72C37.4163 5.976 38.1843 5.568 39.1803 5.568ZM38.8923 10.872C40.0323 10.872 40.8363 10.008 40.8363 8.784C40.8363 7.596 40.0323 6.72 38.8923 6.72C37.7523 6.72 36.9483 7.584 36.9483 8.784C36.9483 10.02 37.7523 10.872 38.8923 10.872ZM44.3485 2.952C44.8045 2.952 45.1525 3.3 45.1525 3.792C45.1525 4.272 44.8045 4.62 44.3485 4.62C43.8925 4.62 43.5445 4.272 43.5445 3.792C43.5445 3.3 43.8925 2.952 44.3485 2.952ZM43.6645 5.616H45.0325V12H43.6645V5.616ZM51.4667 5.616H52.8347V11.376C52.8347 13.212 51.5267 14.364 49.5227 14.364C48.5267 14.364 47.6507 14.052 46.8707 13.524L47.4587 12.528C48.0587 12.972 48.6827 13.224 49.4627 13.224C50.6747 13.224 51.4667 12.516 51.4667 11.412V10.608C51.0347 11.304 50.3147 11.688 49.3547 11.688C47.6267 11.688 46.4747 10.44 46.4747 8.604C46.4747 6.804 47.6147 5.58 49.3067 5.568C50.2907 5.556 51.0227 5.952 51.4667 6.648V5.616ZM49.6307 10.608C50.7107 10.608 51.4667 9.792 51.4667 8.64C51.4667 7.488 50.7107 6.684 49.6307 6.684C48.5387 6.684 47.7827 7.5 47.7707 8.64C47.7827 9.792 48.5267 10.608 49.6307 10.608ZM58.5545 5.568C60.0425 5.568 60.9305 6.504 60.9305 8.028V12H59.5505V8.412C59.5505 7.452 58.9745 6.864 58.0145 6.864C56.8745 6.876 56.1905 7.728 56.1905 8.856V12H54.8105V3.096H56.1905V6.864C56.6465 5.964 57.4625 5.568 58.5545 5.568ZM65.4058 5.568C67.6498 5.568 68.5618 7.032 68.3938 9.336H63.5698C63.7858 10.32 64.5418 10.932 65.5498 10.932C66.2458 10.932 66.8818 10.668 67.3498 10.188L68.0818 10.968C67.4578 11.652 66.5458 12.048 65.4418 12.048C63.4738 12.048 62.1778 10.74 62.1778 8.82C62.1778 6.888 63.5098 5.58 65.4058 5.568ZM63.5458 8.328H67.1938C67.1458 7.296 66.4618 6.672 65.4178 6.672C64.4098 6.672 63.6898 7.308 63.5458 8.328ZM69.8925 3.096H71.2725V12H69.8925V3.096ZM73.4316 3.096H74.8116V12H73.4316V3.096ZM79.6466 5.568C81.6146 5.568 82.9706 6.876 82.9706 8.808C82.9706 10.728 81.6146 12.048 79.6466 12.048C77.6666 12.048 76.3106 10.728 76.3106 8.808C76.3106 6.876 77.6666 5.568 79.6466 5.568ZM79.6466 6.756C78.4946 6.756 77.6906 7.596 77.6906 8.82C77.6906 10.056 78.4946 10.896 79.6466 10.896C80.7866 10.896 81.5906 10.056 81.5906 8.82C81.5906 7.596 80.7866 6.756 79.6466 6.756ZM84.6986 10.524C85.1306 10.524 85.4546 10.848 85.4546 11.304C85.4546 11.772 85.1306 12.108 84.6986 12.108C84.2666 12.108 83.9426 11.772 83.9426 11.304C83.9426 10.848 84.2666 10.524 84.6986 10.524ZM91.5239 7.5C91.0799 7.044 90.4679 6.768 89.6999 6.78C88.5959 6.78 87.8039 7.608 87.8039 8.82C87.8039 10.032 88.5959 10.86 89.6999 10.86C90.5039 10.86 91.1519 10.596 91.5839 10.092L92.3519 10.86C91.7759 11.616 90.8519 12.048 89.6399 12.048C87.7439 12.048 86.4239 10.74 86.4239 8.82C86.4239 6.888 87.7439 5.568 89.6399 5.568C90.7919 5.568 91.6919 5.94 92.2799 6.612L91.5239 7.5ZM96.2755 5.568C98.2435 5.568 99.5995 6.876 99.5995 8.808C99.5995 10.728 98.2435 12.048 96.2755 12.048C94.2955 12.048 92.9395 10.728 92.9395 8.808C92.9395 6.876 94.2955 5.568 96.2755 5.568ZM96.2755 6.756C95.1235 6.756 94.3195 7.596 94.3195 8.82C94.3195 10.056 95.1235 10.896 96.2755 10.896C97.4155 10.896 98.2195 10.056 98.2195 8.82C98.2195 7.596 97.4155 6.756 96.2755 6.756ZM109.368 5.568C110.832 5.568 111.708 6.504 111.708 8.028V12H110.328V8.412C110.328 7.44 109.752 6.852 108.816 6.852C107.724 6.888 107.064 7.728 107.064 8.844V12H105.684V8.412C105.684 7.44 105.12 6.852 104.184 6.852C103.08 6.888 102.408 7.728 102.408 8.844V12H101.04V5.616H102.408V6.852C102.852 5.952 103.668 5.568 104.724 5.568C105.864 5.568 106.644 6.132 106.944 7.104C107.352 6.036 108.204 5.568 109.368 5.568Z" fill="#333333"/>
<path d="M151.752 4.6C153.492 4.6 154.572 5.392 154.572 6.7C154.572 7.648 154.008 8.356 153.096 8.572C154.224 8.764 154.896 9.568 154.896 10.696C154.896 12.136 153.732 13 151.836 13H148.104V4.6H151.752ZM151.68 8.08C152.58 8.08 153.12 7.66 153.12 6.952C153.12 6.244 152.58 5.86 151.68 5.86H149.52V8.08H151.68ZM151.68 11.74C152.784 11.74 153.444 11.308 153.444 10.516C153.444 9.772 152.784 9.328 151.68 9.328H149.52V11.74H151.68ZM161.677 13H160.321V12.22C159.865 12.784 159.133 13.06 158.209 13.06C156.829 13.06 155.965 12.208 155.965 11.08C155.965 9.916 156.841 9.172 158.377 9.16H160.309V8.968C160.309 8.164 159.793 7.684 158.785 7.684C158.173 7.684 157.537 7.9 156.901 8.332L156.337 7.372C157.225 6.844 157.873 6.568 159.085 6.568C160.729 6.568 161.653 7.408 161.665 8.812L161.677 13ZM158.497 11.968C159.481 11.968 160.237 11.452 160.309 10.756V10.168H158.581C157.681 10.168 157.261 10.408 157.261 11.02C157.261 11.596 157.729 11.968 158.497 11.968ZM167.256 6.568C168.744 6.568 169.632 7.504 169.632 9.028V13H168.252V9.412C168.252 8.452 167.676 7.864 166.716 7.864C165.66 7.876 165 8.608 164.904 9.604V13H163.524V6.616H164.904V7.84C165.36 6.952 166.176 6.568 167.256 6.568ZM175.873 6.616H177.241V12.376C177.241 14.212 175.933 15.364 173.929 15.364C172.933 15.364 172.057 15.052 171.277 14.524L171.865 13.528C172.465 13.972 173.089 14.224 173.869 14.224C175.081 14.224 175.873 13.516 175.873 12.412V11.608C175.441 12.304 174.721 12.688 173.761 12.688C172.033 12.688 170.881 11.44 170.881 9.604C170.881 7.804 172.021 6.58 173.713 6.568C174.697 6.556 175.429 6.952 175.873 7.648V6.616ZM174.037 11.608C175.117 11.608 175.873 10.792 175.873 9.64C175.873 8.488 175.117 7.684 174.037 7.684C172.945 7.684 172.189 8.5 172.177 9.64C172.189 10.792 172.933 11.608 174.037 11.608ZM184.341 13H182.985V12.22C182.529 12.784 181.797 13.06 180.873 13.06C179.493 13.06 178.629 12.208 178.629 11.08C178.629 9.916 179.505 9.172 181.041 9.16H182.973V8.968C182.973 8.164 182.457 7.684 181.449 7.684C180.837 7.684 180.201 7.9 179.565 8.332L179.001 7.372C179.889 6.844 180.537 6.568 181.749 6.568C183.393 6.568 184.317 7.408 184.329 8.812L184.341 13ZM181.161 11.968C182.145 11.968 182.901 11.452 182.973 10.756V10.168H181.245C180.345 10.168 179.925 10.408 179.925 11.02C179.925 11.596 180.393 11.968 181.161 11.968ZM186.248 4.096H187.628V13H186.248V4.096ZM192.463 6.568C194.431 6.568 195.787 7.876 195.787 9.808C195.787 11.728 194.431 13.048 192.463 13.048C190.483 13.048 189.127 11.728 189.127 9.808C189.127 7.876 190.483 6.568 192.463 6.568ZM192.463 7.756C191.311 7.756 190.507 8.596 190.507 9.82C190.507 11.056 191.311 11.896 192.463 11.896C193.603 11.896 194.407 11.056 194.407 9.82C194.407 8.596 193.603 7.756 192.463 7.756ZM198.607 7.888C199.039 7.024 199.807 6.568 200.815 6.568V7.888C199.531 7.816 198.715 8.572 198.607 9.664V13H197.227V6.616H198.607V7.888ZM204.578 6.568C206.822 6.568 207.734 8.032 207.566 10.336H202.742C202.958 11.32 203.714 11.932 204.722 11.932C205.418 11.932 206.054 11.668 206.522 11.188L207.254 11.968C206.63 12.652 205.718 13.048 204.614 13.048C202.646 13.048 201.35 11.74 201.35 9.82C201.35 7.888 202.682 6.58 204.578 6.568ZM202.718 9.328H206.366C206.318 8.296 205.634 7.672 204.59 7.672C203.582 7.672 202.862 8.308 202.718 9.328Z" fill="#333333"/>
<path d="M128.5 11C130.433 11 132 9.433 132 7.5C132 5.567 130.433 4 128.5 4C126.567 4 125 5.567 125 7.5C125 9.433 126.567 11 128.5 11Z" fill="#333333"/>
</svg>
