<svg width="228" height="16" viewBox="0 0 228 16" fill="none" xmlns="http://www.w3.org/2000/svg">
<path d="M0.012 6.616H1.428L3.084 11.632L4.692 6.616H6.12L7.74 11.632L9.372 6.616H10.776L8.448 13H7.02L5.4 8.272L3.78 13H2.364L0.012 6.616ZM10.7229 6.616H12.1389L13.7949 11.632L15.4029 6.616H16.8309L18.4509 11.632L20.0829 6.616H21.4869L19.1589 13H17.7309L16.1109 8.272L14.4909 13H13.0749L10.7229 6.616ZM21.4339 6.616H22.8499L24.5059 11.632L26.1139 6.616H27.5419L29.1619 11.632L30.7939 6.616H32.1979L29.8699 13H28.4419L26.8219 8.272L25.2019 13H23.7859L21.4339 6.616ZM33.183 11.524C33.615 11.524 33.939 11.848 33.939 12.304C33.939 12.772 33.615 13.108 33.183 13.108C32.751 13.108 32.427 12.772 32.427 12.304C32.427 11.848 32.751 11.524 33.183 11.524ZM36.1803 3.952C36.6843 3.952 37.0323 4.3 37.0323 4.792C37.0323 5.272 36.6843 5.632 36.1803 5.632C35.7003 5.632 35.3403 5.272 35.3403 4.792C35.3403 4.3 35.7003 3.952 36.1803 3.952ZM36.8643 13.18C36.8643 14.692 35.8203 15.388 34.8003 15.388C34.3203 15.388 33.8403 15.232 33.4683 14.956L33.9243 13.888C34.1763 14.068 34.4763 14.176 34.7403 14.176C35.1603 14.176 35.4963 13.924 35.4963 13.312V6.616H36.8643V13.18ZM41.6896 6.568C43.6576 6.568 45.0136 7.876 45.0136 9.808C45.0136 11.728 43.6576 13.048 41.6896 13.048C39.7096 13.048 38.3536 11.728 38.3536 9.808C38.3536 7.876 39.7096 6.568 41.6896 6.568ZM41.6896 7.756C40.5376 7.756 39.7336 8.596 39.7336 9.82C39.7336 11.056 40.5376 11.896 41.6896 11.896C42.8296 11.896 43.6336 11.056 43.6336 9.82C43.6336 8.596 42.8296 7.756 41.6896 7.756ZM48.7272 13.876C48.3312 14.884 47.6112 15.388 46.6512 15.388C46.0752 15.388 45.6192 15.22 45.1752 14.848L45.7632 13.78C46.0632 13.996 46.3032 14.092 46.5912 14.092C47.0112 14.092 47.3472 13.864 47.5632 13.384L47.7792 12.904L45.1392 6.616H46.5672L48.4752 11.452L50.2512 6.616H51.6312L48.7272 13.876ZM57.0102 6.616H58.3902V13H57.0102V11.752C56.5782 12.64 55.7742 13.036 54.7302 13.048C53.2662 13.048 52.3902 12.112 52.3902 10.588V6.616H53.7702V10.204C53.7702 11.164 54.3342 11.752 55.2582 11.752C56.3622 11.728 57.0102 10.876 57.0102 9.76V6.616ZM64.1661 6.568C65.6541 6.568 66.5421 7.504 66.5421 9.028V13H65.1621V9.412C65.1621 8.452 64.5861 7.864 63.6261 7.864C62.5701 7.876 61.9101 8.608 61.8141 9.604V13H60.4341V6.616H61.8141V7.84C62.2701 6.952 63.0861 6.568 64.1661 6.568ZM68.4511 4.096H69.8311V13H68.4511V4.096ZM75.1942 11.536L75.5422 12.592C75.0382 12.892 74.5102 13.06 73.9702 13.06C73.0102 13.06 72.1822 12.508 72.1822 11.2V7.888H71.2822V6.856H72.1822V5.104H73.5502V6.856H75.4342V7.888H73.5502V10.948C73.5502 11.608 73.8022 11.812 74.2342 11.812C74.5222 11.812 74.8222 11.716 75.1942 11.536ZM81.4506 4.096H82.8306V13H81.4506V11.908C80.9946 12.652 80.2266 13.06 79.2066 13.06C77.3706 13.06 76.1466 11.728 76.1466 9.784C76.1466 7.864 77.3826 6.556 79.1826 6.556C80.2146 6.556 80.9826 6.976 81.4506 7.72V4.096ZM79.4946 11.908C80.6466 11.908 81.4506 11.044 81.4506 9.832C81.4506 8.596 80.6466 7.732 79.4946 7.732C78.3426 7.732 77.5386 8.608 77.5266 9.832C77.5386 11.044 78.3306 11.908 79.4946 11.908ZM85.2143 11.524C85.6463 11.524 85.9703 11.848 85.9703 12.304C85.9703 12.772 85.6463 13.108 85.2143 13.108C84.7823 13.108 84.4583 12.772 84.4583 12.304C84.4583 11.848 84.7823 11.524 85.2143 11.524ZM88.2235 3.952C88.6795 3.952 89.0275 4.3 89.0275 4.792C89.0275 5.272 88.6795 5.62 88.2235 5.62C87.7675 5.62 87.4195 5.272 87.4195 4.792C87.4195 4.3 87.7675 3.952 88.2235 3.952ZM87.5395 6.616H88.9075V13H87.5395V6.616ZM94.6817 6.568C96.1697 6.568 97.0577 7.504 97.0577 9.028V13H95.6777V9.412C95.6777 8.452 95.1017 7.864 94.1417 7.864C93.0857 7.876 92.4257 8.608 92.3297 9.604V13H90.9497V6.616H92.3297V7.84C92.7857 6.952 93.6017 6.568 94.6817 6.568Z" fill="#333333"/>
<path d="M146.752 3.6C148.492 3.6 149.572 4.392 149.572 5.7C149.572 6.648 149.008 7.356 148.096 7.572C149.224 7.764 149.896 8.568 149.896 9.696C149.896 11.136 148.732 12 146.836 12H143.104V3.6H146.752ZM146.68 7.08C147.58 7.08 148.12 6.66 148.12 5.952C148.12 5.244 147.58 4.86 146.68 4.86H144.52V7.08H146.68ZM146.68 10.74C147.784 10.74 148.444 10.308 148.444 9.516C148.444 8.772 147.784 8.328 146.68 8.328H144.52V10.74H146.68ZM156.677 12H155.321V11.22C154.865 11.784 154.133 12.06 153.209 12.06C151.829 12.06 150.965 11.208 150.965 10.08C150.965 8.916 151.841 8.172 153.377 8.16H155.309V7.968C155.309 7.164 154.793 6.684 153.785 6.684C153.173 6.684 152.537 6.9 151.901 7.332L151.337 6.372C152.225 5.844 152.873 5.568 154.085 5.568C155.729 5.568 156.653 6.408 156.665 7.812L156.677 12ZM153.497 10.968C154.481 10.968 155.237 10.452 155.309 9.756V9.168H153.581C152.681 9.168 152.261 9.408 152.261 10.02C152.261 10.596 152.729 10.968 153.497 10.968ZM162.256 5.568C163.744 5.568 164.632 6.504 164.632 8.028V12H163.252V8.412C163.252 7.452 162.676 6.864 161.716 6.864C160.66 6.876 160 7.608 159.904 8.604V12H158.524V5.616H159.904V6.84C160.36 5.952 161.176 5.568 162.256 5.568ZM170.873 5.616H172.241V11.376C172.241 13.212 170.933 14.364 168.929 14.364C167.933 14.364 167.057 14.052 166.277 13.524L166.865 12.528C167.465 12.972 168.089 13.224 168.869 13.224C170.081 13.224 170.873 12.516 170.873 11.412V10.608C170.441 11.304 169.721 11.688 168.761 11.688C167.033 11.688 165.881 10.44 165.881 8.604C165.881 6.804 167.021 5.58 168.713 5.568C169.697 5.556 170.429 5.952 170.873 6.648V5.616ZM169.037 10.608C170.117 10.608 170.873 9.792 170.873 8.64C170.873 7.488 170.117 6.684 169.037 6.684C167.945 6.684 167.189 7.5 167.177 8.64C167.189 9.792 167.933 10.608 169.037 10.608ZM179.341 12H177.985V11.22C177.529 11.784 176.797 12.06 175.873 12.06C174.493 12.06 173.629 11.208 173.629 10.08C173.629 8.916 174.505 8.172 176.041 8.16H177.973V7.968C177.973 7.164 177.457 6.684 176.449 6.684C175.837 6.684 175.201 6.9 174.565 7.332L174.001 6.372C174.889 5.844 175.537 5.568 176.749 5.568C178.393 5.568 179.317 6.408 179.329 7.812L179.341 12ZM176.161 10.968C177.145 10.968 177.901 10.452 177.973 9.756V9.168H176.245C175.345 9.168 174.925 9.408 174.925 10.02C174.925 10.596 175.393 10.968 176.161 10.968ZM181.248 3.096H182.628V12H181.248V3.096ZM187.463 5.568C189.431 5.568 190.787 6.876 190.787 8.808C190.787 10.728 189.431 12.048 187.463 12.048C185.483 12.048 184.127 10.728 184.127 8.808C184.127 6.876 185.483 5.568 187.463 5.568ZM187.463 6.756C186.311 6.756 185.507 7.596 185.507 8.82C185.507 10.056 186.311 10.896 187.463 10.896C188.603 10.896 189.407 10.056 189.407 8.82C189.407 7.596 188.603 6.756 187.463 6.756ZM193.607 6.888C194.039 6.024 194.807 5.568 195.815 5.568V6.888C194.531 6.816 193.715 7.572 193.607 8.664V12H192.227V5.616H193.607V6.888ZM199.578 5.568C201.822 5.568 202.734 7.032 202.566 9.336H197.742C197.958 10.32 198.714 10.932 199.722 10.932C200.418 10.932 201.054 10.668 201.522 10.188L202.254 10.968C201.63 11.652 200.718 12.048 199.614 12.048C197.646 12.048 196.35 10.74 196.35 8.82C196.35 6.888 197.682 5.58 199.578 5.568ZM197.718 8.328H201.366C201.318 7.296 200.634 6.672 199.59 6.672C198.582 6.672 197.862 7.308 197.718 8.328Z" fill="#333333"/>
<path d="M123.5 12C125.433 12 127 10.433 127 8.5C127 6.567 125.433 5 123.5 5C121.567 5 120 6.567 120 8.5C120 10.433 121.567 12 123.5 12Z" fill="#333333"/>
</svg>
