<svg width="234" height="51" viewBox="0 0 234 51" fill="none" xmlns="http://www.w3.org/2000/svg">
<path d="M98.467 45.4035C98.9292 45.2384 99.2925 44.9908 99.5401 44.6605C99.8208 44.2808 99.9529 43.802 99.9529 43.2242C99.9529 42.4812 99.7052 41.9033 99.1934 41.4906C98.6816 41.0778 97.9882 40.8467 97.0966 40.8467H93.7285V50.0429H97.2782C97.8561 50.0429 98.3679 49.9438 98.7972 49.7457C99.2264 49.5476 99.5566 49.2669 99.7878 48.9037C100.019 48.5405 100.134 48.1112 100.134 47.6324C100.134 47.0215 99.9859 46.5262 99.6722 46.1465C99.3915 45.8163 98.9788 45.5686 98.467 45.4035ZM97.0801 41.6557C97.691 41.6557 98.1698 41.8043 98.5 42.0849C98.8302 42.3656 98.9953 42.7784 98.9953 43.2902C98.9953 43.835 98.8467 44.2643 98.533 44.5615C98.2193 44.8587 97.7735 45.0238 97.1957 45.0238H94.6531V41.6557H97.0801ZM98.6981 48.7386C98.3514 49.0358 97.8891 49.1844 97.2947 49.1844H94.6696V45.8163H97.2947C97.8891 45.8163 98.3679 45.9649 98.6981 46.262C99.0448 46.5592 99.2099 46.972 99.2099 47.4838C99.2099 47.9956 99.0448 48.4249 98.6981 48.7221V48.7386Z" fill="#DCDCDC"/>
<path d="M110.371 45.1559C110.702 44.7101 110.867 44.1652 110.867 43.5048C110.867 42.6793 110.603 42.0354 110.058 41.5566C109.529 41.0778 108.786 40.8467 107.862 40.8467H104.428V50.0429H105.352V46.229H108.043L109.926 50.0429H110.949L108.985 46.0804C109.579 45.9153 110.041 45.6181 110.371 45.1724V45.1559ZM107.895 45.387H105.369V41.6722H107.878C108.506 41.6722 109.001 41.8373 109.364 42.151C109.728 42.4647 109.909 42.927 109.909 43.5213C109.909 44.1157 109.728 44.545 109.381 44.8752C109.034 45.2054 108.539 45.3705 107.895 45.3705V45.387Z" fill="#DCDCDC"/>
<path d="M117.751 40.8301L114.366 50.0263H115.307L116.199 47.5828H120.442L121.334 50.0263H122.291L118.874 40.8301H117.734H117.751ZM116.496 46.7738L118.197 42.1179C118.197 42.1179 118.246 41.9858 118.263 41.9198C118.279 41.8537 118.296 41.7877 118.312 41.7547C118.312 41.8042 118.345 41.8537 118.362 41.9198C118.395 41.9858 118.411 42.0518 118.428 42.1179L120.145 46.7738H116.48H116.496Z" fill="#DCDCDC"/>
<path d="M132.231 48.4904L127.178 40.8296H126.237V50.0258H127.162V42.3816L132.231 50.0258H133.139V40.8296H132.231V48.4904Z" fill="#DCDCDC"/>
<path d="M143.243 41.4245C142.549 41.0448 141.74 40.8467 140.816 40.8467H138.042V50.0429H140.849C141.773 50.0429 142.582 49.8448 143.276 49.465C143.969 49.0853 144.498 48.5405 144.877 47.847C145.257 47.1536 145.455 46.3611 145.455 45.4365C145.455 44.512 145.257 43.7195 144.877 43.026C144.498 42.3326 143.953 41.8043 143.259 41.408L143.243 41.4245ZM144.035 47.4343C143.738 47.9956 143.309 48.4249 142.764 48.7386C142.219 49.0523 141.559 49.2009 140.816 49.2009H138.983V41.7052H140.799C141.559 41.7052 142.219 41.8538 142.764 42.1675C143.309 42.4647 143.738 42.9105 144.052 43.4718C144.349 44.0332 144.514 44.6936 144.514 45.4696C144.514 46.2455 144.365 46.8894 144.052 47.4508L144.035 47.4343Z" fill="#DCDCDC"/>
<path d="M153.133 45.172L151.548 44.7923C151.069 44.6767 150.706 44.4786 150.475 44.2144C150.227 43.9503 150.111 43.6201 150.111 43.2238C150.111 42.6955 150.309 42.2827 150.706 41.9856C151.102 41.6719 151.614 41.5233 152.258 41.5233C152.836 41.5233 153.281 41.6719 153.628 41.9525C153.975 42.2332 154.173 42.646 154.222 43.1578H155.164C155.114 42.646 154.982 42.2002 154.734 41.837C154.487 41.4737 154.156 41.1931 153.744 40.9949C153.331 40.7968 152.836 40.6978 152.291 40.6978C151.68 40.6978 151.135 40.8133 150.673 41.0114C150.21 41.2261 149.847 41.5233 149.6 41.903C149.335 42.2827 149.22 42.7285 149.22 43.2403C149.22 43.8677 149.401 44.3961 149.781 44.8088C150.161 45.2216 150.706 45.5022 151.416 45.6673L152.968 46.0471C153.463 46.1627 153.826 46.3608 154.057 46.6249C154.288 46.8891 154.404 47.2193 154.404 47.6486C154.404 48.1769 154.206 48.5897 153.81 48.8868C153.413 49.2005 152.869 49.3491 152.192 49.3491C151.564 49.3491 151.052 49.2005 150.656 48.9199C150.26 48.6392 150.045 48.2429 150.029 47.7641H149.071C149.121 48.2595 149.269 48.6887 149.534 49.0685C149.798 49.4317 150.161 49.7124 150.607 49.9105C151.069 50.1086 151.597 50.2077 152.175 50.2077C152.803 50.2077 153.364 50.0921 153.826 49.894C154.305 49.6793 154.668 49.3822 154.916 48.9859C155.18 48.5897 155.296 48.1274 155.296 47.6156C155.296 46.9882 155.114 46.4763 154.751 46.0636C154.388 45.6508 153.843 45.3702 153.116 45.2051L153.133 45.172Z" fill="#DCDCDC"/>
<path d="M171.707 48.1273C172.054 47.4669 172.219 46.7074 172.219 45.8324H171.36C171.36 46.6083 171.211 47.2522 170.964 47.7971L168.454 44.9078C169.032 44.5115 169.478 44.1318 169.742 43.7686C170.023 43.3723 170.155 42.9431 170.155 42.4808C170.155 42.1175 170.072 41.8039 169.907 41.5397C169.742 41.2755 169.511 41.0609 169.214 40.9123C168.917 40.7637 168.57 40.6812 168.174 40.6812C167.777 40.6812 167.398 40.7637 167.084 40.9123C166.77 41.0774 166.523 41.292 166.357 41.5727C166.176 41.8534 166.093 42.1836 166.093 42.5468C166.093 42.8935 166.192 43.2237 166.39 43.5539C166.572 43.8676 166.869 44.2804 167.282 44.7427C166.787 45.0234 166.357 45.2875 166.027 45.5517C165.648 45.8654 165.367 46.1956 165.185 46.5423C165.004 46.889 164.921 47.2688 164.921 47.665C164.921 48.1768 165.053 48.6061 165.317 48.9858C165.581 49.3656 165.945 49.6462 166.44 49.8609C166.919 50.0755 167.48 50.1746 168.124 50.1746C168.966 50.1746 169.693 49.9929 170.303 49.6297C170.584 49.4646 170.815 49.2665 171.046 49.0353L171.888 49.9929H172.945L171.542 48.3749C171.608 48.2759 171.69 48.1933 171.74 48.0778L171.707 48.1273ZM166.935 42.5468C166.935 42.2001 167.034 41.9359 167.249 41.7213C167.464 41.5232 167.761 41.4076 168.141 41.4076C168.52 41.4076 168.784 41.5067 168.983 41.6883C169.181 41.8864 169.296 42.1506 169.296 42.4808C169.296 42.8605 169.181 43.2072 168.95 43.5209C168.735 43.8016 168.405 44.0823 167.975 44.3464C167.695 44.0162 167.48 43.7521 167.332 43.5539C167.183 43.3558 167.067 43.1742 167.018 43.0091C166.968 42.844 166.935 42.6954 166.935 42.5468ZM168.141 49.4151C167.414 49.4151 166.836 49.25 166.424 48.9363C166.011 48.6226 165.796 48.1768 165.796 47.632C165.796 47.3018 165.862 47.0046 165.994 46.7404C166.126 46.4763 166.357 46.2121 166.655 45.9644C166.919 45.7498 167.282 45.5187 167.695 45.2875L170.485 48.4905C169.924 49.1179 169.131 49.4316 168.141 49.4151Z" fill="#DCDCDC"/>
<path d="M188.449 45.1559C188.779 44.7101 188.944 44.1652 188.944 43.5048C188.944 42.6793 188.68 42.0354 188.135 41.5566C187.607 41.0778 186.864 40.8467 185.939 40.8467H182.505V50.0429H183.429V46.229H186.121L188.003 50.0429H189.026L187.062 46.0804C187.656 45.9153 188.118 45.6181 188.449 45.1724V45.1559ZM185.972 45.387H183.446V41.6722H185.956C186.583 41.6722 187.078 41.8373 187.441 42.151C187.805 42.4647 187.986 42.927 187.986 43.5213C187.986 44.1157 187.805 44.545 187.458 44.8752C187.095 45.2054 186.616 45.3705 185.972 45.3705V45.387Z" fill="#DCDCDC"/>
<path d="M194.309 45.8322H198.453V44.9902H194.309V41.6881H198.883V40.8296H193.385V50.0258H198.899V49.1838H194.309V45.8322Z" fill="#DCDCDC"/>
<path d="M202.449 41.6886H205.272V50.0263H206.197V41.6886H209.037V40.8301H202.449V41.6886Z" fill="#DCDCDC"/>
<path d="M214.567 40.8296L211.183 50.0258H212.124L213.015 47.5823H217.259L218.15 50.0258H219.108L215.69 40.8296H214.551H214.567ZM213.313 46.7733L215.013 42.1174C215.013 42.1174 215.063 41.9853 215.079 41.9193C215.096 41.8532 215.112 41.7872 215.129 41.7542C215.129 41.8037 215.162 41.8532 215.178 41.9193C215.211 41.9853 215.228 42.0514 215.244 42.1174L216.961 46.7733H213.296H213.313Z" fill="#DCDCDC"/>
<path d="M223.978 40.8296H223.054V50.0258H223.978V40.8296Z" fill="#DCDCDC"/>
<path d="M229.773 40.8296H228.849V50.0258H229.014H229.773H234V49.1838H229.773V40.8296Z" fill="#DCDCDC"/>
<path d="M118.709 24.1712C119.947 21.8268 120.558 19.1356 120.558 16.0977C120.558 15.9656 120.541 15.85 120.541 15.7345C120.541 15.6684 120.541 15.6189 120.541 15.5694C120.541 12.515 119.931 9.8403 118.692 7.51235C117.454 5.18441 115.77 3.35177 113.607 2.03095C111.444 0.693614 108.935 0.0332031 106.095 0.0332031C103.255 0.0332031 100.779 0.693614 98.6158 2.03095C96.453 3.36828 94.7524 5.18441 93.5307 7.51235C92.2924 9.8403 91.6815 12.5315 91.6815 15.5694C91.6815 15.7014 91.698 15.8335 91.698 15.9656C91.698 16.0151 91.698 16.0647 91.698 16.1142C91.698 19.1851 92.3089 21.8928 93.5307 24.2207C94.7524 26.5487 96.453 28.3648 98.6158 29.6856C100.795 31.0065 103.272 31.6669 106.078 31.6669C108.885 31.6669 111.444 31.0065 113.624 29.6856C115.803 28.3648 117.504 26.5487 118.725 24.2042L118.709 24.1712ZM111.444 25.7067C109.925 26.6973 108.142 27.1761 106.078 27.1761C104.015 27.1761 102.281 26.6973 100.762 25.7232C99.2432 24.7491 98.0545 23.3952 97.2125 21.6451C96.42 20.0106 96.0072 18.0954 95.9577 15.9326C95.9742 13.6707 96.3869 11.6729 97.2125 9.95587C98.0545 8.20578 99.2432 6.86845 100.762 5.91086C102.281 4.95326 104.064 4.47446 106.078 4.47446C108.093 4.47446 109.909 4.95326 111.444 5.91086C112.963 6.86845 114.152 8.22229 114.994 9.95587C115.787 11.6069 116.199 13.5221 116.249 15.6849C116.232 17.9138 115.82 19.8951 114.994 21.5956C114.152 23.3457 112.963 24.6995 111.444 25.7067Z" fill="white"/>
<path d="M185.278 4.83768H194.326V30.5937H194.342V31.122H198.404V4.83768H207.418V1.08985V0.561523H185.278V4.29284V4.83768Z" fill="white"/>
<path d="M26.499 30.5937L15.5031 0.561523H10.9793L0 30.5937H0.214633L0.0165103 31.1385H4.25965L6.9178 23.6594L8.15607 20.1262L12.7294 7.57839C12.845 7.2812 12.944 6.96751 13.0266 6.6373C13.1091 6.32361 13.1752 6.04293 13.2412 5.8283C13.2743 6.04293 13.3403 6.32361 13.4559 6.6373C13.5714 6.951 13.6705 7.26469 13.753 7.57839L18.3594 20.1262L19.5647 23.6594L22.2723 31.1385H26.5485L26.3504 30.5937H26.532H26.499Z" fill="white"/>
<path d="M56.0854 22.5696C56.0854 20.6379 55.5901 19.0529 54.616 17.8147C53.906 16.9231 52.9154 16.2297 51.6937 15.7344C52.7338 15.206 53.5758 14.5126 54.2032 13.6541C55.0948 12.4158 55.5571 10.8803 55.5571 9.01469C55.5571 8.89912 55.524 8.80005 55.524 8.68448C55.524 8.61844 55.524 8.5524 55.524 8.46985C55.524 6.00982 54.682 4.06161 53.0145 2.65824C51.3304 1.23835 49.0355 0.544922 46.0967 0.544922H34.6385V30.5771H34.6551V31.1219H46.5425C48.5072 31.1219 50.2077 30.8082 51.6441 30.1643C53.0805 29.5204 54.1867 28.6124 54.9462 27.4071C55.7056 26.2019 56.0854 24.7655 56.0854 23.1145C56.0854 22.9824 56.0689 22.8668 56.0524 22.7347C56.0524 22.6852 56.0524 22.6357 56.0524 22.5696H56.0854ZM51.38 9.04771C51.3469 10.5336 50.9012 11.7059 50.0261 12.5149C49.1181 13.3734 47.8137 13.8027 46.1132 13.8027H38.7331V4.70551H45.882C47.6486 4.70551 49.019 5.11827 49.9766 5.92727C50.8516 6.67023 51.2974 7.72689 51.38 9.0312V9.04771ZM46.4599 17.8807C48.177 17.8807 49.5143 18.2935 50.4719 19.119C51.3469 19.8784 51.7927 20.9351 51.8753 22.2394C51.8422 23.7088 51.38 24.848 50.4719 25.6735C49.5308 26.5321 48.1935 26.9613 46.4434 26.9613H38.7331V17.8642H46.4599V17.8807Z" fill="white"/>
<path d="M84.2025 22.2393C84.2025 20.1425 83.5916 18.4089 82.3533 17.0716C81.1151 15.7343 79.2659 14.7767 76.8059 14.2318L71.8693 13.0761C70.4494 12.7459 69.4093 12.2176 68.7158 11.4746C68.105 10.8307 67.7748 9.9722 67.7087 8.93205C67.7417 7.51217 68.3031 6.37296 69.3928 5.53094C70.532 4.65589 72.0344 4.22663 73.9166 4.22663C75.6006 4.22663 76.9545 4.63938 77.9451 5.4649C78.9357 6.29041 79.4971 7.46264 79.6126 8.94856H83.7237C83.7237 8.76695 83.6741 8.58534 83.6576 8.40372H83.7072C83.5916 6.65364 83.1293 5.16771 82.3203 3.91293C81.5113 2.67466 80.3886 1.70056 78.9522 1.02364C77.5323 0.346716 75.8648 0 73.9496 0C71.9023 0 70.0862 0.363226 68.5342 1.07317C66.9658 1.79962 65.7605 2.80675 64.902 4.11106C64.0434 5.41537 63.6142 6.9178 63.6142 8.63487C63.6142 8.76695 63.6307 8.86601 63.6472 8.99809C63.6472 9.06414 63.6472 9.11367 63.6472 9.17971C63.6472 11.3426 64.2746 13.1257 65.5294 14.5125C66.7841 15.9159 68.6333 16.89 71.0768 17.4348L76.0134 18.5575C77.4498 18.8877 78.5064 19.4326 79.1668 20.1755C79.7612 20.836 80.0749 21.678 80.1409 22.6851C80.1079 24.0885 79.5301 25.2112 78.3909 26.0697C77.2186 26.9613 75.6336 27.407 73.6359 27.407C71.7537 27.407 70.2513 26.9778 69.1121 26.1357C67.9729 25.2937 67.395 24.1545 67.362 22.7016H63.2014C63.2014 22.8832 63.2509 23.0648 63.2675 23.2465H63.2179C63.3335 24.9305 63.8123 26.4164 64.6873 27.6712C65.5624 28.926 66.7676 29.9001 68.3031 30.577C69.8385 31.2539 71.6216 31.6006 73.6359 31.6006C75.7657 31.6006 77.6314 31.2374 79.2164 30.5275C80.8014 29.801 82.0396 28.7774 82.9147 27.4566C83.7897 26.1192 84.219 24.5673 84.219 22.7677C84.219 22.6521 84.2025 22.553 84.186 22.4375C84.186 22.3714 84.186 22.3054 84.186 22.2393H84.2025Z" fill="white"/>
<path d="M147.19 26.8128H133.981V1.08985H133.965V0.561523H129.903V30.5937V31.122H130.613H133.981H147.19V27.3412V26.8128Z" fill="white"/>
<path d="M177.254 0.561432H173.143V19.6638C173.143 22.0413 172.499 23.8904 171.228 25.1947C169.956 26.4991 168.14 27.143 165.779 27.143C163.418 27.143 161.569 26.4991 160.281 25.2113C158.993 23.9235 158.366 22.1238 158.35 19.7629V1.08976V0.544922H154.271V19.9115C154.271 19.9115 154.271 19.994 154.271 20.0435V20.4398C154.271 22.7347 154.734 24.7325 155.658 26.4C156.583 28.084 157.92 29.3553 159.654 30.2634C161.387 31.155 163.435 31.6172 165.779 31.6172C168.124 31.6172 170.171 31.155 171.888 30.2469C173.605 29.3388 174.926 28.051 175.85 26.3835C176.775 24.7159 177.237 22.7347 177.237 20.4398V1.08976V0.544922L177.254 0.561432Z" fill="white"/>
<path d="M215.69 0.561523V4.29284V4.83768H229.939V13.6872H217.094V17.3029V17.8313H229.939V26.8128H215.69V30.5937V31.122H234V30.5937V1.08985V0.561523H215.69Z" fill="white"/>
</svg>
