<svg width="533" height="658" viewBox="0 0 533 658" fill="none" xmlns="http://www.w3.org/2000/svg">
<path d="M9.888 3.472C15.296 3.472 18.304 7.504 18.304 14.768C18.304 22.064 15.296 26.096 9.888 26.096C4.448 26.096 1.44 22.064 1.44 14.768C1.44 7.504 4.448 3.472 9.888 3.472ZM9.888 6.416C6.752 6.416 5.184 9.072 5.184 14.768C5.184 20.464 6.752 23.152 9.888 23.152C12.992 23.152 14.56 20.464 14.56 14.768C14.56 9.072 12.992 6.416 9.888 6.416ZM28.678 3.568H32.326L24.902 17.104H31.782L31.75 11.824H35.27L35.302 17.104H38.598V20.496H35.27V26H31.75V20.496H20.838V17.68L28.678 3.568Z" fill="#FA8334"/>
<path d="M75.888 29.472C81.296 29.472 84.304 33.504 84.304 40.768C84.304 48.064 81.296 52.096 75.888 52.096C70.448 52.096 67.44 48.064 67.44 40.768C67.44 33.504 70.448 29.472 75.888 29.472ZM75.888 32.416C72.752 32.416 71.184 35.072 71.184 40.768C71.184 46.464 72.752 49.152 75.888 49.152C78.992 49.152 80.56 46.464 80.56 40.768C80.56 35.072 78.992 32.416 75.888 32.416ZM94.678 29.568H98.326L90.902 43.104H97.782L97.75 37.824H101.27L101.302 43.104H104.598V46.496H101.27V52H97.75V46.496H86.838V43.68L94.678 29.568Z" fill="#FA8334"/>
<path d="M57.472 15.888H60.608L50.464 45.744H47.328L57.472 15.888Z" fill="#FA8334"/>
<path d="M61.49 197H38.958L31.734 181.348H24.252V197H4.3V136.714H33.454C49.794 136.714 59.168 144.54 59.168 158.3C59.168 167.072 55.814 173.608 49.622 177.392L61.49 197ZM24.252 151.85V166.212H33.454C37.754 166.212 40.248 163.546 40.248 158.902C40.248 154.43 37.754 151.85 33.454 151.85H24.252ZM88.7184 149.27C105.144 149.27 114.776 160.45 113.744 177.822H83.1284C84.4184 181.52 87.1704 183.412 90.9544 183.412C94.2224 183.412 97.5764 181.95 100.5 179.198L110.562 189.088C105.574 194.592 98.3504 197.688 89.2344 197.688C73.1524 197.688 63.6064 188.228 63.6064 173.694C63.6064 158.816 73.5824 149.27 88.7184 149.27ZM94.3944 168.878C94.6524 165.008 92.2444 162.17 88.8904 162.17C85.5364 162.17 83.4724 164.922 82.6984 168.878H94.3944ZM129.591 126.738C135.353 126.738 139.395 130.78 139.395 136.542C139.395 142.304 135.353 146.346 129.591 146.346C123.829 146.346 119.787 142.304 119.787 136.542C119.787 130.78 123.829 126.738 129.591 126.738ZM119.873 149.958H139.223V197H119.873V149.958ZM212.663 149.098C222.381 149.098 229.261 156.15 229.261 166.986V197H209.911V172.576C209.911 168.62 207.761 166.126 204.579 166.126C200.967 166.126 198.645 169.136 198.645 173.694V197H179.295V172.576C179.295 168.62 177.145 166.126 173.963 166.126C170.351 166.126 168.029 169.136 168.029 173.694V197H148.679V149.958H168.029V156.58C171.211 151.85 175.941 149.098 182.047 149.098C189.185 149.098 194.775 152.882 197.269 159.16C200.279 152.796 205.611 149.098 212.663 149.098ZM260.327 149.098C273.915 149.098 281.999 155.462 281.999 166.556V197H262.993V191.926C260.241 195.71 255.769 197.86 249.749 197.86C239.773 197.86 234.011 192.012 234.011 183.068C234.011 173.78 240.289 168.878 252.243 168.706H262.993C262.907 165.438 260.413 163.546 255.683 163.546C252.157 163.546 246.739 164.578 241.407 166.556L237.107 153.656C245.105 150.732 253.361 149.098 260.327 149.098ZM256.457 185.562C258.951 185.562 261.445 184.272 262.993 181.95V177.65H256.285C253.619 177.65 252.157 178.94 252.157 181.434C252.157 184.014 253.705 185.562 256.457 185.562ZM317.885 149.958H337.149V193.13C337.149 206.202 326.399 214.544 310.833 214.544C301.803 214.544 293.547 211.706 288.645 208.438L294.751 195.452C298.879 198.032 304.555 199.58 309.113 199.58C314.789 199.58 317.885 197.258 317.885 193.646V189.174C315.047 192.356 311.005 194.162 306.103 194.162C295.009 194.162 286.753 185.304 286.753 171.458C286.753 157.956 294.665 149.27 305.759 149.27C310.833 149.27 314.961 151.076 317.885 154.344V149.958ZM311.349 180.402C315.305 180.402 317.885 177.048 317.885 171.974C317.885 166.814 315.305 163.46 311.349 163.46C307.393 163.46 304.813 166.814 304.813 171.974C304.813 177.048 307.393 180.402 311.349 180.402ZM356.18 126.738C361.942 126.738 365.984 130.78 365.984 136.542C365.984 142.304 361.942 146.346 356.18 146.346C350.418 146.346 346.376 142.304 346.376 136.542C346.376 130.78 350.418 126.738 356.18 126.738ZM346.462 149.958H365.812V197H346.462V149.958ZM408.895 149.098C418.785 149.098 425.751 156.15 425.751 166.986V197H406.401V172.576C406.401 168.62 404.165 166.126 400.811 166.126C397.027 166.126 394.619 169.136 394.619 173.694V197H375.269V149.958H394.619V156.666C397.801 151.85 402.703 149.098 408.895 149.098ZM455.562 149.27C471.988 149.27 481.62 160.45 480.588 177.822H449.972C451.262 181.52 454.014 183.412 457.798 183.412C461.066 183.412 464.42 181.95 467.344 179.198L477.406 189.088C472.418 194.592 465.194 197.688 456.078 197.688C439.996 197.688 430.45 188.228 430.45 173.694C430.45 158.816 440.426 149.27 455.562 149.27ZM461.238 168.878C461.496 165.008 459.088 162.17 455.734 162.17C452.38 162.17 450.316 164.922 449.542 168.878H461.238ZM4.3 221.714H55.298V236.85H24.252V244.246H52.46V259.382H24.252V266.864H56.072V282H4.3V221.714ZM59.893 234.958H82.081L87.499 245.966L93.863 234.958H115.019L100.399 257.834L116.051 282H93.777L87.499 269.788L80.189 282H58.947L74.513 257.92L59.893 234.958ZM152.11 234.27C165.182 234.27 173.696 243.902 173.696 258.78C173.696 273.314 165.44 282.688 152.626 282.688C147.552 282.688 143.252 280.71 140.156 277.184V298.684H120.806V234.958H140.156V239.688C143.166 236.162 147.294 234.27 152.11 234.27ZM147.122 267.38C151.422 267.38 154.174 263.768 154.174 258.264C154.174 252.76 151.422 249.148 147.122 249.148C142.908 249.148 140.156 252.76 140.156 258.264C140.156 263.768 142.908 267.38 147.122 267.38ZM201.425 234.27C217.851 234.27 227.483 245.45 226.451 262.822H195.835C197.125 266.52 199.877 268.412 203.661 268.412C206.929 268.412 210.283 266.95 213.207 264.198L223.269 274.088C218.281 279.592 211.057 282.688 201.941 282.688C185.859 282.688 176.313 273.228 176.313 258.694C176.313 243.816 186.289 234.27 201.425 234.27ZM207.101 253.878C207.359 250.008 204.951 247.17 201.597 247.17C198.243 247.17 196.179 249.922 195.405 253.878H207.101ZM251.93 241.838C255.198 236.936 260.186 234.098 266.292 234.098V251.556C257.606 250.266 251.93 253.362 251.93 259.554V282H232.58V234.958H251.93V241.838ZM281.602 211.738C287.364 211.738 291.406 215.78 291.406 221.542C291.406 227.304 287.364 231.346 281.602 231.346C275.84 231.346 271.798 227.304 271.798 221.542C271.798 215.78 275.84 211.738 281.602 211.738ZM271.884 234.958H291.234V282H271.884V234.958ZM322.363 234.27C338.789 234.27 348.421 245.45 347.389 262.822H316.773C318.063 266.52 320.815 268.412 324.599 268.412C327.867 268.412 331.221 266.95 334.145 264.198L344.207 274.088C339.219 279.592 331.995 282.688 322.879 282.688C306.797 282.688 297.251 273.228 297.251 258.694C297.251 243.816 307.227 234.27 322.363 234.27ZM328.039 253.878C328.297 250.008 325.889 247.17 322.535 247.17C319.181 247.17 317.117 249.922 316.343 253.878H328.039ZM387.143 234.098C397.033 234.098 403.999 241.15 403.999 251.986V282H384.649V257.576C384.649 253.62 382.413 251.126 379.059 251.126C375.275 251.126 372.867 254.136 372.867 258.694V282H353.517V234.958H372.867V241.666C376.049 236.85 380.951 234.098 387.143 234.098ZM440.432 254.394C439.228 251.556 437.164 249.922 434.412 249.922C430.628 249.922 428.22 253.362 428.22 258.608C428.22 263.94 430.628 267.38 434.412 267.38C437.164 267.38 439.142 265.832 440.174 262.306L455.826 269.53C452.386 277.872 444.13 282.688 433.38 282.688C418.416 282.688 408.698 273.228 408.698 258.694C408.698 243.902 418.502 234.27 433.552 234.27C443.786 234.27 451.956 239.258 455.826 247.858L440.432 254.394ZM481.177 234.27C497.603 234.27 507.235 245.45 506.203 262.822H475.587C476.877 266.52 479.629 268.412 483.413 268.412C486.681 268.412 490.035 266.95 492.959 264.198L503.021 274.088C498.033 279.592 490.809 282.688 481.693 282.688C465.611 282.688 456.065 273.228 456.065 258.694C456.065 243.816 466.041 234.27 481.177 234.27ZM486.853 253.878C487.111 250.008 484.703 247.17 481.349 247.17C477.995 247.17 475.931 249.922 475.157 253.878H486.853Z" fill="#293239"/>
<path d="M17.556 407L15.344 401.988H4.676L2.492 407H0.112L8.904 387.4H11.228L19.992 407H17.556ZM5.6 399.916H14.448L9.996 389.836L5.6 399.916ZM30.5417 395.184C29.3937 394.456 27.9097 394.008 26.5377 394.008C24.8857 394.008 23.6257 394.596 23.6257 395.996C23.6257 399.328 31.8577 397.62 31.8577 402.912C31.8577 405.796 29.2817 407.084 26.4537 407.084C24.3537 407.084 22.1977 406.356 20.7977 405.012L21.6377 403.416C22.8977 404.592 24.8017 405.292 26.5377 405.292C28.2737 405.292 29.6737 404.62 29.7017 403.136C29.7857 399.552 21.5257 401.372 21.5537 396.164C21.5537 393.364 23.9897 392.16 26.6777 392.16C28.4417 392.16 30.1497 392.692 31.3817 393.504L30.5417 395.184ZM53.4328 395.884C52.3128 394.792 50.8288 394.148 49.0368 394.148C45.9848 394.148 43.8008 396.388 43.8008 399.636C43.8008 402.912 45.9848 405.152 49.0368 405.152C50.9688 405.152 52.5648 404.48 53.6008 403.248L54.8607 404.536C53.5448 406.132 51.5008 407.084 48.9528 407.084C44.6688 407.084 41.6448 404.032 41.6448 399.636C41.6448 395.268 44.6968 392.188 48.9528 392.188C51.3328 392.188 53.2928 393 54.6368 394.372L53.4328 395.884ZM64.1051 392.188C68.4731 392.188 71.5811 395.24 71.5811 399.608C71.5811 404.032 68.4731 407.084 64.1051 407.084C59.7371 407.084 56.6291 404.032 56.6291 399.608C56.6291 395.24 59.7371 392.188 64.1051 392.188ZM64.1051 394.12C61.0251 394.12 58.8131 396.388 58.8131 399.636C58.8131 402.94 61.0251 405.18 64.1051 405.18C67.1851 405.18 69.3971 402.94 69.3971 399.636C69.3971 396.388 67.1851 394.12 64.1051 394.12ZM83.3177 392.188C86.8457 392.188 88.9177 394.344 88.9177 397.928V407H86.7337V398.488C86.7337 395.856 85.1657 394.288 82.5617 394.288C79.6497 394.316 77.8577 396.248 77.6057 399.104V407H75.4217V392.272H77.6057V395.52C78.6417 393.28 80.6297 392.216 83.3177 392.188ZM101.581 395.184C100.433 394.456 98.9487 394.008 97.5767 394.008C95.9247 394.008 94.6647 394.596 94.6647 395.996C94.6647 399.328 102.897 397.62 102.897 402.912C102.897 405.796 100.321 407.084 97.4927 407.084C95.3927 407.084 93.2367 406.356 91.8367 405.012L92.6767 403.416C93.9367 404.592 95.8407 405.292 97.5767 405.292C99.3127 405.292 100.713 404.62 100.741 403.136C100.825 399.552 92.5647 401.372 92.5927 396.164C92.5927 393.364 95.0287 392.16 97.7167 392.16C99.4807 392.16 101.189 392.692 102.421 393.504L101.581 395.184ZM117.096 392.272H119.28V407H117.096V403.668C116.116 405.964 114.156 407.056 111.496 407.084C108.052 407.084 105.98 404.9 105.98 401.344V392.272H108.164V400.784C108.164 403.416 109.704 404.984 112.252 404.984C115.304 404.928 117.096 402.688 117.096 399.496V392.272ZM143.513 392.188C146.957 392.188 149.001 394.344 149.001 397.928V407H146.817V398.488C146.817 395.828 145.277 394.26 142.729 394.26C139.677 394.344 137.913 396.556 137.913 399.748V407H135.701V398.488C135.701 395.828 134.189 394.26 131.613 394.26C128.589 394.344 126.769 396.556 126.769 399.748V407H124.613V392.272H126.769V395.604C127.749 393.308 129.737 392.216 132.397 392.188C135.169 392.188 137.073 393.588 137.689 396.024C138.613 393.448 140.685 392.216 143.513 392.188ZM159.668 392.188C164.428 392.188 166.78 395.464 166.556 400.448H154.516C154.88 403.36 156.98 405.264 159.864 405.264C161.684 405.264 163.28 404.592 164.428 403.388L165.632 404.648C164.232 406.188 162.16 407.084 159.696 407.084C155.356 407.084 152.36 404.032 152.36 399.636C152.36 395.24 155.384 392.216 159.668 392.188ZM154.516 398.712H164.596C164.456 395.856 162.552 394.008 159.668 394.008C156.84 394.008 154.824 395.856 154.516 398.712ZM172.489 395.548C173.469 393.392 175.289 392.216 177.781 392.188V394.316C174.673 394.26 172.741 396.192 172.489 399.16V407H170.305V392.272H172.489V395.548ZM188.507 395.184C187.359 394.456 185.875 394.008 184.503 394.008C182.851 394.008 181.591 394.596 181.591 395.996C181.591 399.328 189.823 397.62 189.823 402.912C189.823 405.796 187.247 407.084 184.419 407.084C182.319 407.084 180.163 406.356 178.763 405.012L179.603 403.416C180.863 404.592 182.767 405.292 184.503 405.292C186.239 405.292 187.639 404.62 187.667 403.136C187.751 399.552 179.491 401.372 179.519 396.164C179.519 393.364 181.955 392.16 184.643 392.16C186.407 392.16 188.115 392.692 189.347 393.504L188.507 395.184ZM211.762 392.272H213.946V405.46C213.946 409.772 211.006 412.488 206.526 412.488C204.202 412.46 202.27 411.704 200.478 410.332L201.486 408.736C202.942 409.94 204.482 410.584 206.442 410.612C209.662 410.612 211.762 408.624 211.762 405.516V403.276C210.726 405.236 208.822 406.356 206.33 406.356C202.354 406.356 199.61 403.416 199.61 399.244C199.61 395.1 202.326 392.216 206.274 392.188C208.794 392.16 210.698 393.308 211.762 395.268V392.272ZM206.722 404.564C209.662 404.564 211.762 402.352 211.762 399.3C211.762 396.22 209.662 394.008 206.722 394.008C203.754 394.008 201.682 396.22 201.654 399.3C201.682 402.352 203.754 404.564 206.722 404.564ZM224.886 392.188C229.254 392.188 232.362 395.24 232.362 399.608C232.362 404.032 229.254 407.084 224.886 407.084C220.518 407.084 217.41 404.032 217.41 399.608C217.41 395.24 220.518 392.188 224.886 392.188ZM224.886 394.12C221.806 394.12 219.594 396.388 219.594 399.636C219.594 402.94 221.806 405.18 224.886 405.18C227.966 405.18 230.178 402.94 230.178 399.636C230.178 396.388 227.966 394.12 224.886 394.12ZM250.887 404.312L251.503 405.992C250.467 406.692 249.347 407.084 248.171 407.084C246.015 407.112 244.419 405.824 244.419 402.912V394.428H242.291V392.72H244.419V388.856H246.575V392.72H251.251V394.428H246.575V402.548C246.575 404.34 247.275 405.068 248.535 405.068C249.291 405.04 250.075 404.788 250.887 404.312ZM262.861 392.188C266.389 392.188 268.461 394.344 268.461 397.928V407H266.277V398.488C266.277 395.856 264.709 394.288 262.105 394.288C258.969 394.316 257.121 396.556 257.121 399.776V407H254.937V386.224H257.121V395.576C258.129 393.28 260.145 392.216 262.861 392.188ZM275.52 395.548C276.5 393.392 278.32 392.216 280.812 392.188V394.316C277.704 394.26 275.772 396.192 275.52 399.16V407H273.336V392.272H275.52V395.548ZM289.746 392.188C294.114 392.188 297.222 395.24 297.222 399.608C297.222 404.032 294.114 407.084 289.746 407.084C285.378 407.084 282.27 404.032 282.27 399.608C282.27 395.24 285.378 392.188 289.746 392.188ZM289.746 394.12C286.666 394.12 284.454 396.388 284.454 399.636C284.454 402.94 286.666 405.18 289.746 405.18C292.826 405.18 295.038 402.94 295.038 399.636C295.038 396.388 292.826 394.12 289.746 394.12ZM311.674 392.272H313.858V407H311.674V403.668C310.694 405.964 308.734 407.056 306.074 407.084C302.63 407.084 300.558 404.9 300.558 401.344V392.272H302.742V400.784C302.742 403.416 304.282 404.984 306.83 404.984C309.882 404.928 311.674 402.688 311.674 399.496V392.272ZM329.859 392.272H332.043V405.46C332.043 409.772 329.103 412.488 324.623 412.488C322.299 412.46 320.367 411.704 318.575 410.332L319.583 408.736C321.039 409.94 322.579 410.584 324.539 410.612C327.759 410.612 329.859 408.624 329.859 405.516V403.276C328.823 405.236 326.919 406.356 324.427 406.356C320.451 406.356 317.707 403.416 317.707 399.244C317.707 395.1 320.423 392.216 324.371 392.188C326.891 392.16 328.795 393.308 329.859 395.268V392.272ZM324.819 404.564C327.759 404.564 329.859 402.352 329.859 399.3C329.859 396.22 327.759 394.008 324.819 394.008C321.851 394.008 319.779 396.22 319.751 399.3C319.779 402.352 321.851 404.564 324.819 404.564ZM345.056 392.188C348.584 392.188 350.656 394.344 350.656 397.928V407H348.472V398.488C348.472 395.856 346.904 394.288 344.3 394.288C341.164 394.316 339.316 396.556 339.316 399.776V407H337.132V386.224H339.316V395.576C340.324 393.28 342.34 392.216 345.056 392.188ZM3.724 426.56C4.536 426.56 5.152 427.176 5.152 428.044C5.152 428.884 4.536 429.528 3.724 429.528C2.912 429.528 2.296 428.884 2.296 428.044C2.296 427.176 2.912 426.56 3.724 426.56ZM2.66 432.272H4.816V447H2.66V432.272ZM18.0208 432.188C21.5488 432.188 23.6208 434.344 23.6208 437.928V447H21.4368V438.488C21.4368 435.856 19.8688 434.288 17.2648 434.288C14.3528 434.316 12.5608 436.248 12.3088 439.104V447H10.1248V432.272H12.3088V435.52C13.3448 433.28 15.3328 432.216 18.0208 432.188ZM38.8038 435.884C37.6838 434.792 36.1998 434.148 34.4078 434.148C31.3558 434.148 29.1718 436.388 29.1718 439.636C29.1718 442.912 31.3558 445.152 34.4078 445.152C36.3398 445.152 37.9358 444.48 38.9718 443.248L40.2318 444.536C38.9158 446.132 36.8718 447.084 34.3238 447.084C30.0398 447.084 27.0158 444.032 27.0158 439.636C27.0158 435.268 30.0678 432.188 34.3238 432.188C36.7038 432.188 38.6638 433 40.0078 434.372L38.8038 435.884ZM46.3792 435.548C47.3592 433.392 49.1792 432.216 51.6712 432.188V434.316C48.5632 434.26 46.6312 436.192 46.3792 439.16V447H44.1952V432.272H46.3792V435.548ZM60.4371 432.188C65.1971 432.188 67.5491 435.464 67.3251 440.448H55.2851C55.6491 443.36 57.7491 445.264 60.6331 445.264C62.4531 445.264 64.0491 444.592 65.1971 443.388L66.4011 444.648C65.0011 446.188 62.9291 447.084 60.4651 447.084C56.1251 447.084 53.1291 444.032 53.1291 439.636C53.1291 435.24 56.1531 432.216 60.4371 432.188ZM55.2851 438.712H65.3651C65.2251 435.856 63.3211 434.008 60.4371 434.008C57.6091 434.008 55.5931 435.856 55.2851 438.712ZM82.3581 447H80.2301V444.704C79.0541 446.3 77.1781 447.084 74.8261 447.084C71.7741 447.084 69.8141 445.152 69.8141 442.632C69.8141 440.056 71.8581 438.432 75.3301 438.404H80.1741V437.48C80.1741 435.324 78.8301 434.008 76.2261 434.008C74.6021 434.008 73.0901 434.624 71.5501 435.716L70.6261 434.176C72.5301 432.916 74.1261 432.188 76.6461 432.188C80.2861 432.188 82.3021 434.12 82.3301 437.256L82.3581 447ZM75.2461 445.264C77.7381 445.264 79.6421 444.032 80.2021 441.932V440.14H75.6101C73.1461 440.14 71.8581 440.896 71.8581 442.548C71.8581 444.172 73.1741 445.264 75.2461 445.264ZM95.0182 435.184C93.8702 434.456 92.3862 434.008 91.0142 434.008C89.3622 434.008 88.1022 434.596 88.1022 435.996C88.1022 439.328 96.3342 437.62 96.3342 442.912C96.3342 445.796 93.7582 447.084 90.9302 447.084C88.8302 447.084 86.6742 446.356 85.2742 445.012L86.1142 443.416C87.3742 444.592 89.2782 445.292 91.0142 445.292C92.7502 445.292 94.1502 444.62 94.1782 443.136C94.2622 439.552 86.0022 441.372 86.0302 436.164C86.0302 433.364 88.4662 432.16 91.1542 432.16C92.9182 432.16 94.6262 432.692 95.8582 433.504L95.0182 435.184ZM100.986 426.56C101.798 426.56 102.414 427.176 102.414 428.044C102.414 428.884 101.798 429.528 100.986 429.528C100.174 429.528 99.5577 428.884 99.5577 428.044C99.5577 427.176 100.174 426.56 100.986 426.56ZM99.9217 432.272H102.078V447H99.9217V432.272ZM115.283 432.188C118.811 432.188 120.883 434.344 120.883 437.928V447H118.699V438.488C118.699 435.856 117.131 434.288 114.527 434.288C111.615 434.316 109.823 436.248 109.571 439.104V447H107.387V432.272H109.571V435.52C110.607 433.28 112.595 432.216 115.283 432.188ZM136.43 432.272H138.614V445.46C138.614 449.772 135.674 452.488 131.194 452.488C128.87 452.46 126.938 451.704 125.146 450.332L126.154 448.736C127.61 449.94 129.15 450.584 131.11 450.612C134.33 450.612 136.43 448.624 136.43 445.516V443.276C135.394 445.236 133.49 446.356 130.998 446.356C127.022 446.356 124.278 443.416 124.278 439.244C124.278 435.1 126.994 432.216 130.942 432.188C133.462 432.16 135.366 433.308 136.43 435.268V432.272ZM131.39 444.564C134.33 444.564 136.43 442.352 136.43 439.3C136.43 436.22 134.33 434.008 131.39 434.008C128.422 434.008 126.35 436.22 126.322 439.3C126.35 442.352 128.422 444.564 131.39 444.564ZM143.702 426.224H145.886V447H143.702V426.224ZM156.059 449.1C155.135 451.34 153.595 452.516 151.635 452.516C150.403 452.516 149.423 452.18 148.527 451.452L149.451 449.716C150.123 450.192 150.795 450.416 151.523 450.416C152.671 450.416 153.623 449.688 154.211 448.288L154.827 446.888L148.723 432.272H151.019L155.919 444.536L160.595 432.272H162.835L156.059 449.1ZM183.398 435.884C182.278 434.792 180.794 434.148 179.002 434.148C175.95 434.148 173.766 436.388 173.766 439.636C173.766 442.912 175.95 445.152 179.002 445.152C180.934 445.152 182.53 444.48 183.566 443.248L184.826 444.536C183.51 446.132 181.466 447.084 178.918 447.084C174.634 447.084 171.61 444.032 171.61 439.636C171.61 435.268 174.662 432.188 178.918 432.188C181.298 432.188 183.258 433 184.602 434.372L183.398 435.884ZM194.07 432.188C198.438 432.188 201.546 435.24 201.546 439.608C201.546 444.032 198.438 447.084 194.07 447.084C189.702 447.084 186.594 444.032 186.594 439.608C186.594 435.24 189.702 432.188 194.07 432.188ZM194.07 434.12C190.99 434.12 188.778 436.388 188.778 439.636C188.778 442.94 190.99 445.18 194.07 445.18C197.15 445.18 199.362 442.94 199.362 439.636C199.362 436.388 197.15 434.12 194.07 434.12ZM224.287 432.188C227.731 432.188 229.775 434.344 229.775 437.928V447H227.591V438.488C227.591 435.828 226.051 434.26 223.503 434.26C220.451 434.344 218.687 436.556 218.687 439.748V447H216.475V438.488C216.475 435.828 214.963 434.26 212.387 434.26C209.363 434.344 207.543 436.556 207.543 439.748V447H205.387V432.272H207.543V435.604C208.523 433.308 210.511 432.216 213.171 432.188C215.943 432.188 217.847 433.588 218.463 436.024C219.387 433.448 221.459 432.216 224.287 432.188ZM242.625 432.188C246.797 432.188 249.709 435.268 249.709 439.664C249.709 444.032 246.853 447.084 242.681 447.084C240.049 447.084 238.033 445.88 236.941 443.836V452.432H234.757V432.272H236.941V435.436C238.033 433.392 240.049 432.188 242.625 432.188ZM242.233 445.152C245.313 445.152 247.497 442.828 247.497 439.608C247.497 436.416 245.313 434.064 242.233 434.064C239.125 434.064 236.941 436.388 236.941 439.608C236.941 442.856 239.125 445.152 242.233 445.152ZM253.679 426.224H255.863V447H253.679V426.224ZM267.156 432.188C271.916 432.188 274.268 435.464 274.044 440.448H262.004C262.368 443.36 264.468 445.264 267.352 445.264C269.172 445.264 270.768 444.592 271.916 443.388L273.12 444.648C271.72 446.188 269.648 447.084 267.184 447.084C262.844 447.084 259.848 444.032 259.848 439.636C259.848 435.24 262.872 432.216 267.156 432.188ZM262.004 438.712H272.084C271.944 435.856 270.04 434.008 267.156 434.008C264.328 434.008 262.312 435.856 262.004 438.712ZM275.237 432.272H277.757L281.677 437.9L285.653 432.272H288.061L283.133 439.412L288.425 447H285.877L281.677 440.952L277.337 447H274.873L280.249 439.412L275.237 432.272ZM307.457 432.188C311.629 432.188 314.541 435.268 314.541 439.664C314.541 444.032 311.685 447.084 307.513 447.084C304.881 447.084 302.865 445.88 301.773 443.836V447H299.589V426.224H301.773V435.436C302.865 433.392 304.881 432.188 307.457 432.188ZM307.065 445.152C310.145 445.152 312.329 442.828 312.329 439.608C312.329 436.416 310.145 434.064 307.065 434.064C303.957 434.064 301.773 436.388 301.773 439.608C301.773 442.856 303.957 445.152 307.065 445.152ZM328.983 432.272H331.167V447H328.983V443.668C328.003 445.964 326.043 447.056 323.383 447.084C319.939 447.084 317.867 444.9 317.867 441.344V432.272H320.051V440.784C320.051 443.416 321.591 444.984 324.139 444.984C327.191 444.928 328.983 442.688 328.983 439.496V432.272ZM341.204 449.1C340.28 451.34 338.74 452.516 336.78 452.516C335.548 452.516 334.568 452.18 333.672 451.452L334.596 449.716C335.268 450.192 335.94 450.416 336.668 450.416C337.816 450.416 338.768 449.688 339.356 448.288L339.972 446.888L333.868 432.272H336.164L341.064 444.536L345.74 432.272H347.98L341.204 449.1ZM351.619 426.56C352.431 426.56 353.047 427.176 353.047 428.044C353.047 428.884 352.431 429.528 351.619 429.528C350.807 429.528 350.191 428.884 350.191 428.044C350.191 427.176 350.807 426.56 351.619 426.56ZM350.555 432.272H352.711V447H350.555V432.272ZM365.915 432.188C369.443 432.188 371.515 434.344 371.515 437.928V447H369.331V438.488C369.331 435.856 367.763 434.288 365.159 434.288C362.247 434.316 360.455 436.248 360.203 439.104V447H358.019V432.272H360.203V435.52C361.239 433.28 363.227 432.216 365.915 432.188ZM387.062 432.272H389.246V445.46C389.246 449.772 386.306 452.488 381.826 452.488C379.502 452.46 377.57 451.704 375.778 450.332L376.786 448.736C378.242 449.94 379.782 450.584 381.742 450.612C384.962 450.612 387.062 448.624 387.062 445.516V443.276C386.026 445.236 384.122 446.356 381.63 446.356C377.654 446.356 374.91 443.416 374.91 439.244C374.91 435.1 377.626 432.216 381.574 432.188C384.094 432.16 385.998 433.308 387.062 435.268V432.272ZM382.022 444.564C384.962 444.564 387.062 442.352 387.062 439.3C387.062 436.22 384.962 434.008 382.022 434.008C379.054 434.008 376.982 436.22 376.954 439.3C376.982 442.352 379.054 444.564 382.022 444.564ZM12.964 475.884C11.844 474.792 10.36 474.148 8.568 474.148C5.516 474.148 3.332 476.388 3.332 479.636C3.332 482.912 5.516 485.152 8.568 485.152C10.5 485.152 12.096 484.48 13.132 483.248L14.392 484.536C13.076 486.132 11.032 487.084 8.484 487.084C4.2 487.084 1.176 484.032 1.176 479.636C1.176 475.268 4.228 472.188 8.484 472.188C10.864 472.188 12.824 473 14.168 474.372L12.964 475.884ZM23.0593 489.1C22.1353 491.34 20.5953 492.516 18.6353 492.516C17.4033 492.516 16.4233 492.18 15.5273 491.452L16.4513 489.716C17.1233 490.192 17.7953 490.416 18.5233 490.416C19.6713 490.416 20.6233 489.688 21.2113 488.288L21.8273 486.888L15.7233 472.272H18.0193L22.9193 484.536L27.5953 472.272H29.8353L23.0593 489.1ZM42.2492 475.884C41.1292 474.792 39.6452 474.148 37.8532 474.148C34.8012 474.148 32.6172 476.388 32.6172 479.636C32.6172 482.912 34.8012 485.152 37.8532 485.152C39.7852 485.152 41.3812 484.48 42.4172 483.248L43.6772 484.536C42.3612 486.132 40.3172 487.084 37.7692 487.084C33.4852 487.084 30.4612 484.032 30.4612 479.636C30.4612 475.268 33.5132 472.188 37.7692 472.188C40.1492 472.188 42.1092 473 43.4532 474.372L42.2492 475.884ZM47.7805 466.224H49.9645V487H47.7805V466.224ZM61.2574 472.188C66.0174 472.188 68.3694 475.464 68.1454 480.448H56.1054C56.4694 483.36 58.5694 485.264 61.4534 485.264C63.2734 485.264 64.8694 484.592 66.0174 483.388L67.2214 484.648C65.8214 486.188 63.7494 487.084 61.2854 487.084C56.9454 487.084 53.9494 484.032 53.9494 479.636C53.9494 475.24 56.9734 472.216 61.2574 472.188ZM56.1054 478.712H66.1854C66.0454 475.856 64.1414 474.008 61.2574 474.008C58.4294 474.008 56.4134 475.856 56.1054 478.712ZM79.6784 475.184C78.5304 474.456 77.0464 474.008 75.6744 474.008C74.0224 474.008 72.7624 474.596 72.7624 475.996C72.7624 479.328 80.9944 477.62 80.9944 482.912C80.9944 485.796 78.4184 487.084 75.5904 487.084C73.4904 487.084 71.3344 486.356 69.9344 485.012L70.7744 483.416C72.0344 484.592 73.9384 485.292 75.6744 485.292C77.4104 485.292 78.8104 484.62 78.8384 483.136C78.9224 479.552 70.6624 481.372 70.6904 476.164C70.6904 473.364 73.1264 472.16 75.8144 472.16C77.5784 472.16 79.2864 472.692 80.5184 473.504L79.6784 475.184ZM99.2655 484.312L99.8815 485.992C98.8455 486.692 97.7255 487.084 96.5495 487.084C94.3935 487.112 92.7975 485.824 92.7975 482.912V474.428H90.6695V472.72H92.7975V468.856H94.9535V472.72H99.6295V474.428H94.9535V482.548C94.9535 484.34 95.6535 485.068 96.9135 485.068C97.6695 485.04 98.4535 484.788 99.2655 484.312ZM111.24 472.188C114.768 472.188 116.84 474.344 116.84 477.928V487H114.656V478.488C114.656 475.856 113.088 474.288 110.484 474.288C107.348 474.316 105.5 476.556 105.5 479.776V487H103.316V466.224H105.5V475.576C106.508 473.28 108.524 472.216 111.24 472.188ZM132.999 487H130.871V484.704C129.695 486.3 127.819 487.084 125.467 487.084C122.415 487.084 120.455 485.152 120.455 482.632C120.455 480.056 122.499 478.432 125.971 478.404H130.815V477.48C130.815 475.324 129.471 474.008 126.867 474.008C125.243 474.008 123.731 474.624 122.191 475.716L121.267 474.176C123.171 472.916 124.767 472.188 127.287 472.188C130.927 472.188 132.943 474.12 132.971 477.256L132.999 487ZM125.887 485.264C128.379 485.264 130.283 484.032 130.843 481.932V480.14H126.251C123.787 480.14 122.499 480.896 122.499 482.548C122.499 484.172 123.815 485.264 125.887 485.264ZM144.875 484.312L145.491 485.992C144.455 486.692 143.335 487.084 142.159 487.084C140.003 487.112 138.407 485.824 138.407 482.912V474.428H136.279V472.72H138.407V468.856H140.563V472.72H145.239V474.428H140.563V482.548C140.563 484.34 141.263 485.068 142.523 485.068C143.279 485.04 144.063 484.788 144.875 484.312ZM164.253 475.184C163.105 474.456 161.621 474.008 160.249 474.008C158.597 474.008 157.337 474.596 157.337 475.996C157.337 479.328 165.569 477.62 165.569 482.912C165.569 485.796 162.993 487.084 160.165 487.084C158.065 487.084 155.909 486.356 154.509 485.012L155.349 483.416C156.609 484.592 158.513 485.292 160.249 485.292C161.985 485.292 163.385 484.62 163.413 483.136C163.497 479.552 155.237 481.372 155.265 476.164C155.265 473.364 157.701 472.16 160.389 472.16C162.153 472.16 163.861 472.692 165.093 473.504L164.253 475.184ZM176.156 484.312L176.772 485.992C175.736 486.692 174.616 487.084 173.44 487.084C171.284 487.112 169.688 485.824 169.688 482.912V474.428H167.56V472.72H169.688V468.856H171.844V472.72H176.52V474.428H171.844V482.548C171.844 484.34 172.544 485.068 173.804 485.068C174.56 485.04 175.344 484.788 176.156 484.312ZM182.25 475.548C183.23 473.392 185.05 472.216 187.542 472.188V474.316C184.434 474.26 182.502 476.192 182.25 479.16V487H180.066V472.272H182.25V475.548ZM201.057 487H198.929V484.704C197.753 486.3 195.877 487.084 193.525 487.084C190.473 487.084 188.513 485.152 188.513 482.632C188.513 480.056 190.557 478.432 194.029 478.404H198.873V477.48C198.873 475.324 197.529 474.008 194.925 474.008C193.301 474.008 191.789 474.624 190.249 475.716L189.325 474.176C191.229 472.916 192.825 472.188 195.345 472.188C198.985 472.188 201.001 474.12 201.029 477.256L201.057 487ZM193.945 485.264C196.437 485.264 198.341 484.032 198.901 481.932V480.14H194.309C191.845 480.14 190.557 480.896 190.557 482.548C190.557 484.172 191.873 485.264 193.945 485.264ZM217.301 466.224H219.485V487H217.301V483.836C216.209 485.908 214.193 487.112 211.561 487.112C207.361 487.112 204.449 484.004 204.449 479.608C204.449 475.212 207.361 472.16 211.533 472.16C214.165 472.16 216.209 473.364 217.301 475.464V466.224ZM211.981 485.236C215.089 485.236 217.301 482.912 217.301 479.664C217.301 476.416 215.089 474.064 211.981 474.064C208.845 474.064 206.633 476.416 206.633 479.664C206.633 482.912 208.845 485.236 211.981 485.236ZM236.305 466.224H238.489V487H236.305V483.836C235.213 485.908 233.197 487.112 230.565 487.112C226.365 487.112 223.453 484.004 223.453 479.608C223.453 475.212 226.365 472.16 230.537 472.16C233.169 472.16 235.213 473.364 236.305 475.464V466.224ZM230.985 485.236C234.093 485.236 236.305 482.912 236.305 479.664C236.305 476.416 234.093 474.064 230.985 474.064C227.849 474.064 225.637 476.416 225.637 479.664C225.637 482.912 227.849 485.236 230.985 485.236ZM244.081 466.224H246.265V487H244.081V466.224ZM257.558 472.188C262.318 472.188 264.67 475.464 264.446 480.448H252.406C252.77 483.36 254.87 485.264 257.754 485.264C259.574 485.264 261.17 484.592 262.318 483.388L263.522 484.648C262.122 486.188 260.05 487.084 257.586 487.084C253.246 487.084 250.25 484.032 250.25 479.636C250.25 475.24 253.274 472.216 257.558 472.188ZM252.406 478.712H262.486C262.346 475.856 260.442 474.008 257.558 474.008C254.73 474.008 252.714 475.856 252.406 478.712ZM278.063 475.548C279.043 473.392 280.863 472.216 283.355 472.188V474.316C280.247 474.26 278.315 476.192 278.063 479.16V487H275.879V472.272H278.063V475.548ZM292.121 472.188C296.881 472.188 299.233 475.464 299.009 480.448H286.969C287.333 483.36 289.433 485.264 292.317 485.264C294.137 485.264 295.733 484.592 296.881 483.388L298.085 484.648C296.685 486.188 294.613 487.084 292.149 487.084C287.809 487.084 284.813 484.032 284.813 479.636C284.813 475.24 287.837 472.216 292.121 472.188ZM286.969 478.712H297.049C296.909 475.856 295.005 474.008 292.121 474.008C289.293 474.008 287.277 475.856 286.969 478.712ZM309.758 484.312L310.374 485.992C309.338 486.692 308.218 487.084 307.042 487.084C304.886 487.112 303.29 485.824 303.29 482.912V474.428H301.162V472.72H303.29V468.856H305.446V472.72H310.122V474.428H305.446V482.548C305.446 484.34 306.146 485.068 307.406 485.068C308.162 485.04 308.946 484.788 309.758 484.312ZM324.952 487H322.824V484.704C321.648 486.3 319.772 487.084 317.42 487.084C314.368 487.084 312.408 485.152 312.408 482.632C312.408 480.056 314.452 478.432 317.924 478.404H322.768V477.48C322.768 475.324 321.424 474.008 318.82 474.008C317.196 474.008 315.684 474.624 314.144 475.716L313.22 474.176C315.124 472.916 316.72 472.188 319.24 472.188C322.88 472.188 324.896 474.12 324.924 477.256L324.952 487ZM317.84 485.264C320.332 485.264 322.236 484.032 322.796 481.932V480.14H318.204C315.74 480.14 314.452 480.896 314.452 482.548C314.452 484.172 315.768 485.264 317.84 485.264ZM330.892 466.56C331.704 466.56 332.32 467.176 332.32 468.044C332.32 468.884 331.704 469.528 330.892 469.528C330.08 469.528 329.464 468.884 329.464 468.044C329.464 467.176 330.08 466.56 330.892 466.56ZM329.828 472.272H331.984V487H329.828V472.272ZM337.433 466.224H339.617V487H337.433V466.224ZM345.226 484.424C345.954 484.424 346.57 484.956 346.57 485.824C346.57 486.272 346.402 486.636 346.15 487L344.834 488.988H343.602L344.526 486.972C344.106 486.748 343.91 486.3 343.91 485.824C343.91 485.012 344.47 484.424 345.226 484.424ZM0.112 512.272H2.408L6.776 524.788L11.06 512.272H13.356L17.696 524.788L22.008 512.272H24.276L18.816 527H16.548L12.208 514.932L7.896 527H5.628L0.112 512.272ZM32.2184 512.188C36.9784 512.188 39.3304 515.464 39.1064 520.448H27.0664C27.4304 523.36 29.5304 525.264 32.4144 525.264C34.2344 525.264 35.8304 524.592 36.9784 523.388L38.1824 524.648C36.7824 526.188 34.7104 527.084 32.2464 527.084C27.9064 527.084 24.9104 524.032 24.9104 519.636C24.9104 515.24 27.9344 512.216 32.2184 512.188ZM27.0664 518.712H37.1464C37.0064 515.856 35.1024 514.008 32.2184 514.008C29.3904 514.008 27.3744 515.856 27.0664 518.712ZM50.8633 512.188C55.0353 512.188 57.9473 515.268 57.9473 519.664C57.9473 524.032 55.0913 527.084 50.9193 527.084C48.2873 527.084 46.2713 525.88 45.1793 523.836V527H42.9953V506.224H45.1793V515.436C46.2713 513.392 48.2873 512.188 50.8633 512.188ZM50.4713 525.152C53.5513 525.152 55.7353 522.828 55.7353 519.608C55.7353 516.416 53.5513 514.064 50.4713 514.064C47.3633 514.064 45.1793 516.388 45.1793 519.608C45.1793 522.856 47.3633 525.152 50.4713 525.152ZM69.5612 515.184C68.4132 514.456 66.9292 514.008 65.5572 514.008C63.9052 514.008 62.6452 514.596 62.6452 515.996C62.6452 519.328 70.8772 517.62 70.8772 522.912C70.8772 525.796 68.3012 527.084 65.4732 527.084C63.3732 527.084 61.2172 526.356 59.8172 525.012L60.6572 523.416C61.9172 524.592 63.8212 525.292 65.5572 525.292C67.2932 525.292 68.6932 524.62 68.7212 523.136C68.8052 519.552 60.5452 521.372 60.5732 516.164C60.5732 513.364 63.0092 512.16 65.6972 512.16C67.4612 512.16 69.1692 512.692 70.4012 513.504L69.5612 515.184ZM75.5287 506.56C76.3407 506.56 76.9567 507.176 76.9567 508.044C76.9567 508.884 76.3407 509.528 75.5287 509.528C74.7167 509.528 74.1007 508.884 74.1007 508.044C74.1007 507.176 74.7167 506.56 75.5287 506.56ZM74.4647 512.272H76.6207V527H74.4647V512.272ZM88.9295 524.312L89.5455 525.992C88.5095 526.692 87.3895 527.084 86.2135 527.084C84.0575 527.112 82.4615 525.824 82.4615 522.912V514.428H80.3335V512.72H82.4615V508.856H84.6175V512.72H89.2935V514.428H84.6175V522.548C84.6175 524.34 85.3175 525.068 86.5775 525.068C87.3335 525.04 88.1175 524.788 88.9295 524.312ZM98.4449 512.188C103.205 512.188 105.557 515.464 105.333 520.448H93.2929C93.6569 523.36 95.7569 525.264 98.6409 525.264C100.461 525.264 102.057 524.592 103.205 523.388L104.409 524.648C103.009 526.188 100.937 527.084 98.4729 527.084C94.1329 527.084 91.1369 524.032 91.1369 519.636C91.1369 515.24 94.1609 512.216 98.4449 512.188ZM93.2929 518.712H103.373C103.233 515.856 101.329 514.008 98.4449 514.008C95.6169 514.008 93.6009 515.856 93.2929 518.712ZM116.866 515.184C115.718 514.456 114.234 514.008 112.862 514.008C111.21 514.008 109.95 514.596 109.95 515.996C109.95 519.328 118.182 517.62 118.182 522.912C118.182 525.796 115.606 527.084 112.778 527.084C110.678 527.084 108.522 526.356 107.122 525.012L107.962 523.416C109.222 524.592 111.126 525.292 112.862 525.292C114.598 525.292 115.998 524.62 116.026 523.136C116.11 519.552 107.85 521.372 107.878 516.164C107.878 513.364 110.314 512.16 113.002 512.16C114.766 512.16 116.474 512.692 117.706 513.504L116.866 515.184ZM121.909 524.424C122.637 524.424 123.253 524.956 123.253 525.824C123.253 526.272 123.085 526.636 122.833 527L121.517 528.988H120.285L121.209 526.972C120.789 526.748 120.593 526.3 120.593 525.824C120.593 525.012 121.153 524.424 121.909 524.424ZM153.876 512.188C157.32 512.188 159.364 514.344 159.364 517.928V527H157.18V518.488C157.18 515.828 155.64 514.26 153.092 514.26C150.04 514.344 148.276 516.556 148.276 519.748V527H146.064V518.488C146.064 515.828 144.552 514.26 141.976 514.26C138.952 514.344 137.132 516.556 137.132 519.748V527H134.976V512.272H137.132V515.604C138.112 513.308 140.1 512.216 142.76 512.188C145.532 512.188 147.436 513.588 148.052 516.024C148.976 513.448 151.048 512.216 153.876 512.188ZM175.491 527H173.363V524.704C172.187 526.3 170.311 527.084 167.959 527.084C164.907 527.084 162.947 525.152 162.947 522.632C162.947 520.056 164.991 518.432 168.463 518.404H173.307V517.48C173.307 515.324 171.963 514.008 169.359 514.008C167.735 514.008 166.223 514.624 164.683 515.716L163.759 514.176C165.663 512.916 167.259 512.188 169.779 512.188C173.419 512.188 175.435 514.12 175.463 517.256L175.491 527ZM168.379 525.264C170.871 525.264 172.775 524.032 173.335 521.932V520.14H168.743C166.279 520.14 164.991 520.896 164.991 522.548C164.991 524.172 166.307 525.264 168.379 525.264ZM182.551 515.548C183.531 513.392 185.351 512.216 187.843 512.188V514.316C184.735 514.26 182.803 516.192 182.551 519.16V527H180.367V512.272H182.551V515.548ZM201.257 527L196.217 519.524L193.109 522.744V527H190.925V506.224H193.109V519.916L200.697 512.272H203.273L197.757 517.956L203.861 527H201.257ZM212.004 512.188C216.764 512.188 219.116 515.464 218.892 520.448H206.852C207.216 523.36 209.316 525.264 212.2 525.264C214.02 525.264 215.616 524.592 216.764 523.388L217.968 524.648C216.568 526.188 214.496 527.084 212.032 527.084C207.692 527.084 204.696 524.032 204.696 519.636C204.696 515.24 207.72 512.216 212.004 512.188ZM206.852 518.712H216.932C216.792 515.856 214.888 514.008 212.004 514.008C209.176 514.008 207.16 515.856 206.852 518.712ZM229.64 524.312L230.256 525.992C229.22 526.692 228.1 527.084 226.924 527.084C224.768 527.112 223.172 525.824 223.172 522.912V514.428H221.044V512.72H223.172V508.856H225.328V512.72H230.004V514.428H225.328V522.548C225.328 524.34 226.028 525.068 227.288 525.068C228.044 525.04 228.828 524.788 229.64 524.312ZM241.559 512.188C245.731 512.188 248.643 515.268 248.643 519.664C248.643 524.032 245.787 527.084 241.615 527.084C238.983 527.084 236.967 525.88 235.875 523.836V532.432H233.691V512.272H235.875V515.436C236.967 513.392 238.983 512.188 241.559 512.188ZM241.167 525.152C244.247 525.152 246.431 522.828 246.431 519.608C246.431 516.416 244.247 514.064 241.167 514.064C238.059 514.064 235.875 516.388 235.875 519.608C235.875 522.856 238.059 525.152 241.167 525.152ZM252.613 506.224H254.797V527H252.613V506.224ZM271.549 527H269.421V524.704C268.245 526.3 266.369 527.084 264.017 527.084C260.965 527.084 259.005 525.152 259.005 522.632C259.005 520.056 261.049 518.432 264.521 518.404H269.365V517.48C269.365 515.324 268.021 514.008 265.417 514.008C263.793 514.008 262.281 514.624 260.741 515.716L259.817 514.176C261.721 512.916 263.317 512.188 265.837 512.188C269.477 512.188 271.493 514.12 271.521 517.256L271.549 527ZM264.437 525.264C266.929 525.264 268.833 524.032 269.393 521.932V520.14H264.801C262.337 520.14 261.049 520.896 261.049 522.548C261.049 524.172 262.365 525.264 264.437 525.264ZM286.73 515.884C285.61 514.792 284.126 514.148 282.334 514.148C279.282 514.148 277.098 516.388 277.098 519.636C277.098 522.912 279.282 525.152 282.334 525.152C284.266 525.152 285.862 524.48 286.898 523.248L288.158 524.536C286.842 526.132 284.798 527.084 282.25 527.084C277.966 527.084 274.942 524.032 274.942 519.636C274.942 515.268 277.994 512.188 282.25 512.188C284.63 512.188 286.59 513 287.934 514.372L286.73 515.884ZM297.234 512.188C301.994 512.188 304.346 515.464 304.122 520.448H292.082C292.446 523.36 294.546 525.264 297.43 525.264C299.25 525.264 300.846 524.592 301.994 523.388L303.198 524.648C301.798 526.188 299.726 527.084 297.262 527.084C292.922 527.084 289.926 524.032 289.926 519.636C289.926 515.24 292.95 512.216 297.234 512.188ZM292.082 518.712H302.162C302.022 515.856 300.118 514.008 297.234 514.008C294.406 514.008 292.39 515.856 292.082 518.712ZM315.655 515.184C314.507 514.456 313.023 514.008 311.651 514.008C309.999 514.008 308.739 514.596 308.739 515.996C308.739 519.328 316.971 517.62 316.971 522.912C316.971 525.796 314.395 527.084 311.567 527.084C309.467 527.084 307.311 526.356 305.911 525.012L306.751 523.416C308.011 524.592 309.915 525.292 311.651 525.292C313.387 525.292 314.787 524.62 314.815 523.136C314.899 519.552 306.639 521.372 306.667 516.164C306.667 513.364 309.103 512.16 311.791 512.16C313.555 512.16 315.263 512.692 316.495 513.504L315.655 515.184ZM320.698 524.424C321.426 524.424 322.042 524.956 322.042 525.824C322.042 526.272 321.874 526.636 321.622 527L320.306 528.988H319.074L319.998 526.972C319.578 526.748 319.382 526.3 319.382 525.824C319.382 525.012 319.942 524.424 320.698 524.424ZM341.549 515.184C340.401 514.456 338.917 514.008 337.545 514.008C335.893 514.008 334.633 514.596 334.633 515.996C334.633 519.328 342.865 517.62 342.865 522.912C342.865 525.796 340.289 527.084 337.461 527.084C335.361 527.084 333.205 526.356 331.805 525.012L332.645 523.416C333.905 524.592 335.809 525.292 337.545 525.292C339.281 525.292 340.681 524.62 340.709 523.136C340.793 519.552 332.533 521.372 332.561 516.164C332.561 513.364 334.997 512.16 337.685 512.16C339.449 512.16 341.157 512.692 342.389 513.504L341.549 515.184ZM352.445 512.188C356.813 512.188 359.921 515.24 359.921 519.608C359.921 524.032 356.813 527.084 352.445 527.084C348.077 527.084 344.969 524.032 344.969 519.608C344.969 515.24 348.077 512.188 352.445 512.188ZM352.445 514.12C349.365 514.12 347.153 516.388 347.153 519.636C347.153 522.94 349.365 525.18 352.445 525.18C355.525 525.18 357.737 522.94 357.737 519.636C357.737 516.388 355.525 514.12 352.445 514.12ZM374.066 515.884C372.946 514.792 371.462 514.148 369.67 514.148C366.618 514.148 364.434 516.388 364.434 519.636C364.434 522.912 366.618 525.152 369.67 525.152C371.602 525.152 373.198 524.48 374.234 523.248L375.494 524.536C374.178 526.132 372.134 527.084 369.586 527.084C365.302 527.084 362.278 524.032 362.278 519.636C362.278 515.268 365.33 512.188 369.586 512.188C371.966 512.188 373.926 513 375.27 514.372L374.066 515.884ZM380.521 506.56C381.333 506.56 381.949 507.176 381.949 508.044C381.949 508.884 381.333 509.528 380.521 509.528C379.709 509.528 379.093 508.884 379.093 508.044C379.093 507.176 379.709 506.56 380.521 506.56ZM379.457 512.272H381.613V527H379.457V512.272ZM398.206 527H396.078V524.704C394.902 526.3 393.026 527.084 390.674 527.084C387.622 527.084 385.662 525.152 385.662 522.632C385.662 520.056 387.706 518.432 391.178 518.404H396.022V517.48C396.022 515.324 394.678 514.008 392.074 514.008C390.45 514.008 388.938 514.624 387.398 515.716L386.474 514.176C388.378 512.916 389.974 512.188 392.494 512.188C396.134 512.188 398.15 514.12 398.178 517.256L398.206 527ZM391.094 525.264C393.586 525.264 395.49 524.032 396.05 521.932V520.14H391.458C388.994 520.14 387.706 520.896 387.706 522.548C387.706 524.172 389.022 525.264 391.094 525.264ZM403.222 506.224H405.406V527H403.222V506.224ZM10.668 552.188C14.84 552.188 17.752 555.268 17.752 559.664C17.752 564.032 14.896 567.084 10.724 567.084C8.092 567.084 6.076 565.88 4.984 563.836V572.432H2.8V552.272H4.984V555.436C6.076 553.392 8.092 552.188 10.668 552.188ZM10.276 565.152C13.356 565.152 15.54 562.828 15.54 559.608C15.54 556.416 13.356 554.064 10.276 554.064C7.168 554.064 4.984 556.388 4.984 559.608C4.984 562.856 7.168 565.152 10.276 565.152ZM21.7219 546.224H23.9059V567H21.7219V546.224ZM40.6588 567H38.5308V564.704C37.3548 566.3 35.4788 567.084 33.1268 567.084C30.0748 567.084 28.1148 565.152 28.1148 562.632C28.1148 560.056 30.1588 558.432 33.6308 558.404H38.4748V557.48C38.4748 555.324 37.1308 554.008 34.5268 554.008C32.9028 554.008 31.3908 554.624 29.8508 555.716L28.9268 554.176C30.8308 552.916 32.4268 552.188 34.9468 552.188C38.5868 552.188 40.6028 554.12 40.6308 557.256L40.6588 567ZM33.5468 565.264C36.0388 565.264 37.9428 564.032 38.5028 561.932V560.14H33.9108C31.4468 560.14 30.1588 560.896 30.1588 562.548C30.1588 564.172 31.4748 565.264 33.5468 565.264ZM52.535 564.312L53.151 565.992C52.115 566.692 50.995 567.084 49.819 567.084C47.663 567.112 46.067 565.824 46.067 562.912V554.428H43.939V552.72H46.067V548.856H48.223V552.72H52.899V554.428H48.223V562.548C48.223 564.34 48.923 565.068 50.183 565.068C50.939 565.04 51.723 564.788 52.535 564.312ZM61.6532 548.1C60.2252 548.072 59.0492 549.052 59.0492 550.788V552.72H63.2772V554.428H59.0492V567H56.8932V554.428H54.9892V552.72H56.8932V551.068C56.8932 547.876 59.1612 546.112 61.6252 546.14C62.7452 546.14 63.8932 546.504 64.7892 547.176L63.8932 548.856C63.2212 548.38 62.4092 548.1 61.6532 548.1ZM71.2418 552.188C75.6098 552.188 78.7178 555.24 78.7178 559.608C78.7178 564.032 75.6098 567.084 71.2418 567.084C66.8738 567.084 63.7658 564.032 63.7658 559.608C63.7658 555.24 66.8738 552.188 71.2418 552.188ZM71.2418 554.12C68.1618 554.12 65.9498 556.388 65.9498 559.636C65.9498 562.94 68.1618 565.18 71.2418 565.18C74.3218 565.18 76.5338 562.94 76.5338 559.636C76.5338 556.388 74.3218 554.12 71.2418 554.12ZM84.7424 555.548C85.7224 553.392 87.5424 552.216 90.0344 552.188V554.316C86.9264 554.26 84.9944 556.192 84.7424 559.16V567H82.5584V552.272H84.7424V555.548ZM111.876 552.188C115.32 552.188 117.364 554.344 117.364 557.928V567H115.18V558.488C115.18 555.828 113.64 554.26 111.092 554.26C108.04 554.344 106.276 556.556 106.276 559.748V567H104.064V558.488C104.064 555.828 102.552 554.26 99.9764 554.26C96.9524 554.344 95.1324 556.556 95.1324 559.748V567H92.9764V552.272H95.1324V555.604C96.1124 553.308 98.1004 552.216 100.76 552.188C103.532 552.188 105.436 553.588 106.052 556.024C106.976 553.448 109.048 552.216 111.876 552.188ZM129.991 555.184C128.843 554.456 127.359 554.008 125.987 554.008C124.335 554.008 123.075 554.596 123.075 555.996C123.075 559.328 131.307 557.62 131.307 562.912C131.307 565.796 128.731 567.084 125.903 567.084C123.803 567.084 121.647 566.356 120.247 565.012L121.087 563.416C122.347 564.592 124.251 565.292 125.987 565.292C127.723 565.292 129.123 564.62 129.151 563.136C129.235 559.552 120.975 561.372 121.003 556.164C121.003 553.364 123.439 552.16 126.127 552.16C127.891 552.16 129.599 552.692 130.831 553.504L129.991 555.184ZM153.862 567H151.734V564.704C150.558 566.3 148.682 567.084 146.33 567.084C143.278 567.084 141.318 565.152 141.318 562.632C141.318 560.056 143.362 558.432 146.834 558.404H151.678V557.48C151.678 555.324 150.334 554.008 147.73 554.008C146.106 554.008 144.594 554.624 143.054 555.716L142.13 554.176C144.034 552.916 145.63 552.188 148.15 552.188C151.79 552.188 153.806 554.12 153.834 557.256L153.862 567ZM146.75 565.264C149.242 565.264 151.146 564.032 151.706 561.932V560.14H147.114C144.65 560.14 143.362 560.896 143.362 562.548C143.362 564.172 144.678 565.264 146.75 565.264ZM166.634 552.188C170.162 552.188 172.234 554.344 172.234 557.928V567H170.05V558.488C170.05 555.856 168.482 554.288 165.878 554.288C162.966 554.316 161.174 556.248 160.922 559.104V567H158.738V552.272H160.922V555.52C161.958 553.28 163.946 552.216 166.634 552.188ZM188.481 546.224H190.665V567H188.481V563.836C187.389 565.908 185.373 567.112 182.741 567.112C178.541 567.112 175.629 564.004 175.629 559.608C175.629 555.212 178.541 552.16 182.713 552.16C185.345 552.16 187.389 553.364 188.481 555.464V546.224ZM183.161 565.236C186.269 565.236 188.481 562.912 188.481 559.664C188.481 556.416 186.269 554.064 183.161 554.064C180.025 554.064 177.813 556.416 177.813 559.664C177.813 562.912 180.025 565.236 183.161 565.236ZM215.085 567H212.957V564.704C211.781 566.3 209.905 567.084 207.553 567.084C204.501 567.084 202.541 565.152 202.541 562.632C202.541 560.056 204.585 558.432 208.057 558.404H212.901V557.48C212.901 555.324 211.557 554.008 208.953 554.008C207.329 554.008 205.817 554.624 204.277 555.716L203.353 554.176C205.257 552.916 206.853 552.188 209.373 552.188C213.013 552.188 215.029 554.12 215.057 557.256L215.085 567ZM207.973 565.264C210.465 565.264 212.369 564.032 212.929 561.932V560.14H208.337C205.873 560.14 204.585 560.896 204.585 562.548C204.585 564.172 205.901 565.264 207.973 565.264ZM227.969 552.188C232.141 552.188 235.053 555.268 235.053 559.664C235.053 564.032 232.197 567.084 228.025 567.084C225.393 567.084 223.377 565.88 222.285 563.836V572.432H220.101V552.272H222.285V555.436C223.377 553.392 225.393 552.188 227.969 552.188ZM227.577 565.152C230.657 565.152 232.841 562.828 232.841 559.608C232.841 556.416 230.657 554.064 227.577 554.064C224.469 554.064 222.285 556.388 222.285 559.608C222.285 562.856 224.469 565.152 227.577 565.152ZM246.891 552.188C251.063 552.188 253.975 555.268 253.975 559.664C253.975 564.032 251.119 567.084 246.947 567.084C244.315 567.084 242.299 565.88 241.207 563.836V572.432H239.023V552.272H241.207V555.436C242.299 553.392 244.315 552.188 246.891 552.188ZM246.499 565.152C249.579 565.152 251.763 562.828 251.763 559.608C251.763 556.416 249.579 554.064 246.499 554.064C243.391 554.064 241.207 556.388 241.207 559.608C241.207 562.856 243.391 565.152 246.499 565.152ZM265.589 555.184C264.441 554.456 262.957 554.008 261.585 554.008C259.933 554.008 258.673 554.596 258.673 555.996C258.673 559.328 266.905 557.62 266.905 562.912C266.905 565.796 264.329 567.084 261.501 567.084C259.401 567.084 257.245 566.356 255.845 565.012L256.685 563.416C257.945 564.592 259.849 565.292 261.585 565.292C263.321 565.292 264.721 564.62 264.749 563.136C264.833 559.552 256.573 561.372 256.601 556.164C256.601 553.364 259.037 552.16 261.725 552.16C263.489 552.16 265.197 552.692 266.429 553.504L265.589 555.184ZM270.632 564.424C271.36 564.424 271.976 564.956 271.976 565.824C271.976 566.272 271.808 566.636 271.556 567L270.24 568.988H269.008L269.932 566.972C269.512 566.748 269.316 566.3 269.316 565.824C269.316 565.012 269.876 564.424 270.632 564.424ZM281.151 552.272H283.447L287.815 564.788L292.099 552.272H294.395L298.735 564.788L303.047 552.272H305.315L299.855 567H297.587L293.247 554.932L288.935 567H286.667L281.151 552.272ZM313.257 552.188C318.017 552.188 320.369 555.464 320.145 560.448H308.105C308.469 563.36 310.569 565.264 313.453 565.264C315.273 565.264 316.869 564.592 318.017 563.388L319.221 564.648C317.821 566.188 315.749 567.084 313.285 567.084C308.945 567.084 305.949 564.032 305.949 559.636C305.949 555.24 308.973 552.216 313.257 552.188ZM308.105 558.712H318.185C318.045 555.856 316.141 554.008 313.257 554.008C310.429 554.008 308.413 555.856 308.105 558.712ZM339.474 552.188C343.002 552.188 345.074 554.344 345.074 557.928V567H342.89V558.488C342.89 555.856 341.322 554.288 338.718 554.288C335.806 554.316 334.014 556.248 333.762 559.104V567H331.578V552.272H333.762V555.52C334.798 553.28 336.786 552.216 339.474 552.188ZM355.777 552.188C360.537 552.188 362.889 555.464 362.665 560.448H350.625C350.989 563.36 353.089 565.264 355.973 565.264C357.793 565.264 359.389 564.592 360.537 563.388L361.741 564.648C360.341 566.188 358.269 567.084 355.805 567.084C351.465 567.084 348.469 564.032 348.469 559.636C348.469 555.24 351.493 552.216 355.777 552.188ZM350.625 558.712H360.705C360.565 555.856 358.661 554.008 355.777 554.008C352.949 554.008 350.933 555.856 350.625 558.712ZM372.238 552.188C376.998 552.188 379.35 555.464 379.126 560.448H367.086C367.45 563.36 369.55 565.264 372.434 565.264C374.254 565.264 375.85 564.592 376.998 563.388L378.202 564.648C376.802 566.188 374.73 567.084 372.266 567.084C367.926 567.084 364.93 564.032 364.93 559.636C364.93 555.24 367.954 552.216 372.238 552.188ZM367.086 558.712H377.166C377.026 555.856 375.122 554.008 372.238 554.008C369.41 554.008 367.394 555.856 367.086 558.712ZM394.243 546.224H396.427V567H394.243V563.836C393.151 565.908 391.135 567.112 388.503 567.112C384.303 567.112 381.391 564.004 381.391 559.608C381.391 555.212 384.303 552.16 388.475 552.16C391.107 552.16 393.151 553.364 394.243 555.464V546.224ZM388.923 565.236C392.031 565.236 394.243 562.912 394.243 559.664C394.243 556.416 392.031 554.064 388.923 554.064C385.787 554.064 383.575 556.416 383.575 559.664C383.575 562.912 385.787 565.236 388.923 565.236ZM416.562 564.312L417.178 565.992C416.142 566.692 415.022 567.084 413.846 567.084C411.69 567.112 410.094 565.824 410.094 562.912V554.428H407.966V552.72H410.094V548.856H412.25V552.72H416.926V554.428H412.25V562.548C412.25 564.34 412.95 565.068 414.21 565.068C414.966 565.04 415.75 564.788 416.562 564.312ZM426.246 552.188C430.614 552.188 433.722 555.24 433.722 559.608C433.722 564.032 430.614 567.084 426.246 567.084C421.878 567.084 418.77 564.032 418.77 559.608C418.77 555.24 421.878 552.188 426.246 552.188ZM426.246 554.12C423.166 554.12 420.954 556.388 420.954 559.636C420.954 562.94 423.166 565.18 426.246 565.18C429.326 565.18 431.538 562.94 431.538 559.636C431.538 556.388 429.326 554.12 426.246 554.12ZM12.964 595.884C11.844 594.792 10.36 594.148 8.568 594.148C5.516 594.148 3.332 596.388 3.332 599.636C3.332 602.912 5.516 605.152 8.568 605.152C10.5 605.152 12.096 604.48 13.132 603.248L14.392 604.536C13.076 606.132 11.032 607.084 8.484 607.084C4.2 607.084 1.176 604.032 1.176 599.636C1.176 595.268 4.228 592.188 8.484 592.188C10.864 592.188 12.824 593 14.168 594.372L12.964 595.884ZM20.5393 595.548C21.5193 593.392 23.3393 592.216 25.8313 592.188V594.316C22.7233 594.26 20.7913 596.192 20.5393 599.16V607H18.3553V592.272H20.5393V595.548ZM34.5973 592.188C39.3573 592.188 41.7093 595.464 41.4853 600.448H29.4453C29.8093 603.36 31.9093 605.264 34.7933 605.264C36.6133 605.264 38.2093 604.592 39.3573 603.388L40.5613 604.648C39.1613 606.188 37.0893 607.084 34.6253 607.084C30.2853 607.084 27.2893 604.032 27.2893 599.636C27.2893 595.24 30.3133 592.216 34.5973 592.188ZM29.4453 598.712H39.5253C39.3853 595.856 37.4813 594.008 34.5973 594.008C31.7693 594.008 29.7533 595.856 29.4453 598.712ZM56.5182 607H54.3902V604.704C53.2142 606.3 51.3382 607.084 48.9862 607.084C45.9342 607.084 43.9742 605.152 43.9742 602.632C43.9742 600.056 46.0182 598.432 49.4902 598.404H54.3342V597.48C54.3342 595.324 52.9902 594.008 50.3862 594.008C48.7622 594.008 47.2502 594.624 45.7102 595.716L44.7862 594.176C46.6902 592.916 48.2862 592.188 50.8062 592.188C54.4462 592.188 56.4622 594.12 56.4902 597.256L56.5182 607ZM49.4062 605.264C51.8982 605.264 53.8022 604.032 54.3622 601.932V600.14H49.7702C47.3062 600.14 46.0182 600.896 46.0182 602.548C46.0182 604.172 47.3342 605.264 49.4062 605.264ZM68.3944 604.312L69.0104 605.992C67.9744 606.692 66.8544 607.084 65.6784 607.084C63.5224 607.112 61.9264 605.824 61.9264 602.912V594.428H59.7984V592.72H61.9264V588.856H64.0824V592.72H68.7584V594.428H64.0824V602.548C64.0824 604.34 64.7824 605.068 66.0424 605.068C66.7984 605.04 67.5824 604.788 68.3944 604.312ZM77.9098 592.188C82.6698 592.188 85.0218 595.464 84.7978 600.448H72.7578C73.1218 603.36 75.2218 605.264 78.1058 605.264C79.9258 605.264 81.5218 604.592 82.6698 603.388L83.8738 604.648C82.4738 606.188 80.4018 607.084 77.9378 607.084C73.5978 607.084 70.6018 604.032 70.6018 599.636C70.6018 595.24 73.6258 592.216 77.9098 592.188ZM72.7578 598.712H82.8378C82.6978 595.856 80.7938 594.008 77.9098 594.008C75.0818 594.008 73.0658 595.856 72.7578 598.712ZM102.054 592.188C106.814 592.188 109.166 595.464 108.942 600.448H96.9023C97.2663 603.36 99.3663 605.264 102.25 605.264C104.07 605.264 105.666 604.592 106.814 603.388L108.018 604.648C106.618 606.188 104.546 607.084 102.082 607.084C97.7423 607.084 94.7463 604.032 94.7463 599.636C94.7463 595.24 97.7703 592.216 102.054 592.188ZM96.9023 598.712H106.982C106.842 595.856 104.938 594.008 102.054 594.008C99.2263 594.008 97.2103 595.856 96.9023 598.712ZM110.136 592.272H112.656L116.576 597.9L120.552 592.272H122.96L118.032 599.412L123.324 607H120.776L116.576 600.952L112.236 607H109.772L115.148 599.412L110.136 592.272ZM134.672 592.188C138.844 592.188 141.756 595.268 141.756 599.664C141.756 604.032 138.9 607.084 134.728 607.084C132.096 607.084 130.08 605.88 128.988 603.836V612.432H126.804V592.272H128.988V595.436C130.08 593.392 132.096 592.188 134.672 592.188ZM134.28 605.152C137.36 605.152 139.544 602.828 139.544 599.608C139.544 596.416 137.36 594.064 134.28 594.064C131.172 594.064 128.988 596.388 128.988 599.608C128.988 602.856 131.172 605.152 134.28 605.152ZM151.41 592.188C156.17 592.188 158.522 595.464 158.298 600.448H146.258C146.622 603.36 148.722 605.264 151.606 605.264C153.426 605.264 155.022 604.592 156.17 603.388L157.374 604.648C155.974 606.188 153.902 607.084 151.438 607.084C147.098 607.084 144.102 604.032 144.102 599.636C144.102 595.24 147.126 592.216 151.41 592.188ZM146.258 598.712H156.338C156.198 595.856 154.294 594.008 151.41 594.008C148.582 594.008 146.566 595.856 146.258 598.712ZM164.231 595.548C165.211 593.392 167.031 592.216 169.523 592.188V594.316C166.415 594.26 164.483 596.192 164.231 599.16V607H162.047V592.272H164.231V595.548ZM173.529 586.56C174.341 586.56 174.957 587.176 174.957 588.044C174.957 588.884 174.341 589.528 173.529 589.528C172.717 589.528 172.101 588.884 172.101 588.044C172.101 587.176 172.717 586.56 173.529 586.56ZM172.465 592.272H174.621V607H172.465V592.272ZM185.754 592.188C190.514 592.188 192.866 595.464 192.642 600.448H180.602C180.966 603.36 183.066 605.264 185.95 605.264C187.77 605.264 189.366 604.592 190.514 603.388L191.718 604.648C190.318 606.188 188.246 607.084 185.782 607.084C181.442 607.084 178.446 604.032 178.446 599.636C178.446 595.24 181.47 592.216 185.754 592.188ZM180.602 598.712H190.682C190.542 595.856 188.638 594.008 185.754 594.008C182.926 594.008 180.91 595.856 180.602 598.712ZM204.286 592.188C207.814 592.188 209.886 594.344 209.886 597.928V607H207.702V598.488C207.702 595.856 206.134 594.288 203.53 594.288C200.618 594.316 198.826 596.248 198.574 599.104V607H196.39V592.272H198.574V595.52C199.61 593.28 201.598 592.216 204.286 592.188ZM225.069 595.884C223.949 594.792 222.465 594.148 220.673 594.148C217.621 594.148 215.437 596.388 215.437 599.636C215.437 602.912 217.621 605.152 220.673 605.152C222.605 605.152 224.201 604.48 225.237 603.248L226.497 604.536C225.181 606.132 223.137 607.084 220.589 607.084C216.305 607.084 213.281 604.032 213.281 599.636C213.281 595.268 216.333 592.188 220.589 592.188C222.969 592.188 224.929 593 226.273 594.372L225.069 595.884ZM235.574 592.188C240.334 592.188 242.686 595.464 242.462 600.448H230.422C230.786 603.36 232.886 605.264 235.77 605.264C237.59 605.264 239.186 604.592 240.334 603.388L241.538 604.648C240.138 606.188 238.066 607.084 235.602 607.084C231.262 607.084 228.266 604.032 228.266 599.636C228.266 595.24 231.29 592.216 235.574 592.188ZM230.422 598.712H240.502C240.362 595.856 238.458 594.008 235.574 594.008C232.746 594.008 230.73 595.856 230.422 598.712ZM253.995 595.184C252.847 594.456 251.363 594.008 249.991 594.008C248.339 594.008 247.079 594.596 247.079 595.996C247.079 599.328 255.311 597.62 255.311 602.912C255.311 605.796 252.735 607.084 249.907 607.084C247.807 607.084 245.651 606.356 244.251 605.012L245.091 603.416C246.351 604.592 248.255 605.292 249.991 605.292C251.727 605.292 253.127 604.62 253.155 603.136C253.239 599.552 244.979 601.372 245.007 596.164C245.007 593.364 247.443 592.16 250.131 592.16C251.895 592.16 253.603 592.692 254.835 593.504L253.995 595.184ZM273.582 604.312L274.198 605.992C273.162 606.692 272.042 607.084 270.866 607.084C268.71 607.112 267.114 605.824 267.114 602.912V594.428H264.986V592.72H267.114V588.856H269.27V592.72H273.946V594.428H269.27V602.548C269.27 604.34 269.97 605.068 271.23 605.068C271.986 605.04 272.77 604.788 273.582 604.312ZM285.556 592.188C289.084 592.188 291.156 594.344 291.156 597.928V607H288.972V598.488C288.972 595.856 287.404 594.288 284.8 594.288C281.664 594.316 279.816 596.556 279.816 599.776V607H277.632V586.224H279.816V595.576C280.824 593.28 282.84 592.216 285.556 592.188ZM307.315 607H305.187V604.704C304.011 606.3 302.135 607.084 299.783 607.084C296.731 607.084 294.771 605.152 294.771 602.632C294.771 600.056 296.815 598.432 300.287 598.404H305.131V597.48C305.131 595.324 303.787 594.008 301.183 594.008C299.559 594.008 298.047 594.624 296.507 595.716L295.583 594.176C297.487 592.916 299.083 592.188 301.603 592.188C305.243 592.188 307.259 594.12 307.287 597.256L307.315 607ZM300.203 605.264C302.695 605.264 304.599 604.032 305.159 601.932V600.14H300.567C298.103 600.14 296.815 600.896 296.815 602.548C296.815 604.172 298.131 605.264 300.203 605.264ZM319.191 604.312L319.807 605.992C318.771 606.692 317.651 607.084 316.475 607.084C314.319 607.112 312.723 605.824 312.723 602.912V594.428H310.595V592.72H312.723V588.856H314.879V592.72H319.555V594.428H314.879V602.548C314.879 604.34 315.579 605.068 316.839 605.068C317.595 605.04 318.379 604.788 319.191 604.312ZM342.069 607H339.941V604.704C338.765 606.3 336.889 607.084 334.537 607.084C331.485 607.084 329.525 605.152 329.525 602.632C329.525 600.056 331.569 598.432 335.041 598.404H339.885V597.48C339.885 595.324 338.541 594.008 335.937 594.008C334.313 594.008 332.801 594.624 331.261 595.716L330.337 594.176C332.241 592.916 333.837 592.188 336.357 592.188C339.997 592.188 342.013 594.12 342.041 597.256L342.069 607ZM334.957 605.264C337.449 605.264 339.353 604.032 339.913 601.932V600.14H335.321C332.857 600.14 331.569 600.896 331.569 602.548C331.569 604.172 332.885 605.264 334.957 605.264ZM349.129 595.548C350.109 593.392 351.929 592.216 354.421 592.188V594.316C351.313 594.26 349.381 596.192 349.129 599.16V607H346.945V592.272H349.129V595.548ZM363.187 592.188C367.947 592.188 370.299 595.464 370.075 600.448H358.035C358.399 603.36 360.499 605.264 363.383 605.264C365.203 605.264 366.799 604.592 367.947 603.388L369.151 604.648C367.751 606.188 365.679 607.084 363.215 607.084C358.875 607.084 355.879 604.032 355.879 599.636C355.879 595.24 358.903 592.216 363.187 592.188ZM358.035 598.712H368.115C367.975 595.856 366.071 594.008 363.187 594.008C360.359 594.008 358.343 595.856 358.035 598.712ZM21.56 632.188C25.004 632.188 27.048 634.344 27.048 637.928V647H24.864V638.488C24.864 635.828 23.324 634.26 20.776 634.26C17.724 634.344 15.96 636.556 15.96 639.748V647H13.748V638.488C13.748 635.828 12.236 634.26 9.66 634.26C6.636 634.344 4.816 636.556 4.816 639.748V647H2.66V632.272H4.816V635.604C5.796 633.308 7.784 632.216 10.444 632.188C13.216 632.188 15.12 633.588 15.736 636.024C16.66 633.448 18.732 632.216 21.56 632.188ZM37.7145 632.188C42.4745 632.188 44.8265 635.464 44.6025 640.448H32.5625C32.9265 643.36 35.0265 645.264 37.9105 645.264C39.7305 645.264 41.3265 644.592 42.4745 643.388L43.6785 644.648C42.2785 646.188 40.2065 647.084 37.7425 647.084C33.4025 647.084 30.4065 644.032 30.4065 639.636C30.4065 635.24 33.4305 632.216 37.7145 632.188ZM32.5625 638.712H42.6425C42.5025 635.856 40.5985 634.008 37.7145 634.008C34.8865 634.008 32.8705 635.856 32.5625 638.712ZM59.6354 647H57.5074V644.704C56.3314 646.3 54.4554 647.084 52.1034 647.084C49.0514 647.084 47.0914 645.152 47.0914 642.632C47.0914 640.056 49.1354 638.432 52.6074 638.404H57.4514V637.48C57.4514 635.324 56.1074 634.008 53.5034 634.008C51.8794 634.008 50.3674 634.624 48.8274 635.716L47.9034 634.176C49.8074 632.916 51.4034 632.188 53.9234 632.188C57.5634 632.188 59.5794 634.12 59.6074 637.256L59.6354 647ZM52.5234 645.264C55.0154 645.264 56.9194 644.032 57.4794 641.932V640.14H52.8874C50.4234 640.14 49.1354 640.896 49.1354 642.548C49.1354 644.172 50.4514 645.264 52.5234 645.264ZM72.4076 632.188C75.9356 632.188 78.0076 634.344 78.0076 637.928V647H75.8236V638.488C75.8236 635.856 74.2556 634.288 71.6516 634.288C68.7396 634.316 66.9476 636.248 66.6956 639.104V647H64.5116V632.272H66.6956V635.52C67.7316 633.28 69.7196 632.216 72.4076 632.188ZM83.9506 626.56C84.7626 626.56 85.3786 627.176 85.3786 628.044C85.3786 628.884 84.7626 629.528 83.9506 629.528C83.1386 629.528 82.5226 628.884 82.5226 628.044C82.5226 627.176 83.1386 626.56 83.9506 626.56ZM82.8866 632.272H85.0426V647H82.8866V632.272ZM98.2474 632.188C101.775 632.188 103.847 634.344 103.847 637.928V647H101.663V638.488C101.663 635.856 100.095 634.288 97.4914 634.288C94.5794 634.316 92.7874 636.248 92.5354 639.104V647H90.3514V632.272H92.5354V635.52C93.5714 633.28 95.5594 632.216 98.2474 632.188ZM119.394 632.272H121.578V645.46C121.578 649.772 118.638 652.488 114.158 652.488C111.834 652.46 109.902 651.704 108.11 650.332L109.118 648.736C110.574 649.94 112.114 650.584 114.074 650.612C117.294 650.612 119.394 648.624 119.394 645.516V643.276C118.358 645.236 116.454 646.356 113.962 646.356C109.986 646.356 107.242 643.416 107.242 639.244C107.242 635.1 109.958 632.216 113.906 632.188C116.426 632.16 118.33 633.308 119.394 635.268V632.272ZM114.354 644.564C117.294 644.564 119.394 642.352 119.394 639.3C119.394 636.22 117.294 634.008 114.354 634.008C111.386 634.008 109.314 636.22 109.286 639.3C109.314 642.352 111.386 644.564 114.354 644.564ZM131.735 628.1C130.307 628.072 129.131 629.052 129.131 630.788V632.72H133.359V634.428H129.131V647H126.975V634.428H125.071V632.72H126.975V631.068C126.975 627.876 129.243 626.112 131.707 626.14C132.827 626.14 133.975 626.504 134.871 627.176L133.975 628.856C133.303 628.38 132.491 628.1 131.735 628.1ZM146.381 632.272H148.565V647H146.381V643.668C145.401 645.964 143.441 647.056 140.781 647.084C137.337 647.084 135.265 644.9 135.265 641.344V632.272H137.449V640.784C137.449 643.416 138.989 644.984 141.537 644.984C144.589 644.928 146.381 642.688 146.381 639.496V632.272ZM154.038 626.224H156.222V647H154.038V626.224ZM180.659 647H178.531V644.704C177.355 646.3 175.479 647.084 173.127 647.084C170.075 647.084 168.115 645.152 168.115 642.632C168.115 640.056 170.159 638.432 173.631 638.404H178.475V637.48C178.475 635.324 177.131 634.008 174.527 634.008C172.903 634.008 171.391 634.624 169.851 635.716L168.927 634.176C170.831 632.916 172.427 632.188 174.947 632.188C178.587 632.188 180.603 634.12 180.631 637.256L180.659 647ZM173.547 645.264C176.039 645.264 177.943 644.032 178.503 641.932V640.14H173.911C171.447 640.14 170.159 640.896 170.159 642.548C170.159 644.172 171.475 645.264 173.547 645.264ZM193.431 632.188C196.959 632.188 199.031 634.344 199.031 637.928V647H196.847V638.488C196.847 635.856 195.279 634.288 192.675 634.288C189.763 634.316 187.971 636.248 187.719 639.104V647H185.535V632.272H187.719V635.52C188.755 633.28 190.743 632.216 193.431 632.188ZM215.278 626.224H217.462V647H215.278V643.836C214.186 645.908 212.17 647.112 209.538 647.112C205.338 647.112 202.426 644.004 202.426 639.608C202.426 635.212 205.338 632.16 209.51 632.16C212.142 632.16 214.186 633.364 215.278 635.464V626.224ZM209.958 645.236C213.066 645.236 215.278 642.912 215.278 639.664C215.278 636.416 213.066 634.064 209.958 634.064C206.822 634.064 204.61 636.416 204.61 639.664C204.61 642.912 206.822 645.236 209.958 645.236ZM238.382 635.184C237.234 634.456 235.75 634.008 234.378 634.008C232.726 634.008 231.466 634.596 231.466 635.996C231.466 639.328 239.698 637.62 239.698 642.912C239.698 645.796 237.122 647.084 234.294 647.084C232.194 647.084 230.038 646.356 228.638 645.012L229.478 643.416C230.738 644.592 232.642 645.292 234.378 645.292C236.114 645.292 237.514 644.62 237.542 643.136C237.626 639.552 229.366 641.372 229.394 636.164C229.394 633.364 231.83 632.16 234.518 632.16C236.282 632.16 237.99 632.692 239.222 633.504L238.382 635.184ZM249.109 632.188C253.869 632.188 256.221 635.464 255.997 640.448H243.957C244.321 643.36 246.421 645.264 249.305 645.264C251.125 645.264 252.721 644.592 253.869 643.388L255.073 644.648C253.673 646.188 251.601 647.084 249.137 647.084C244.797 647.084 241.801 644.032 241.801 639.636C241.801 635.24 244.825 632.216 249.109 632.188ZM243.957 638.712H254.037C253.897 635.856 251.993 634.008 249.109 634.008C246.281 634.008 244.265 635.856 243.957 638.712ZM271.03 647H268.902V644.704C267.726 646.3 265.85 647.084 263.498 647.084C260.446 647.084 258.486 645.152 258.486 642.632C258.486 640.056 260.53 638.432 264.002 638.404H268.846V637.48C268.846 635.324 267.502 634.008 264.898 634.008C263.274 634.008 261.762 634.624 260.222 635.716L259.298 634.176C261.202 632.916 262.798 632.188 265.318 632.188C268.958 632.188 270.974 634.12 271.002 637.256L271.03 647ZM263.918 645.264C266.41 645.264 268.314 644.032 268.874 641.932V640.14H264.282C261.818 640.14 260.53 640.896 260.53 642.548C260.53 644.172 261.846 645.264 263.918 645.264ZM294.806 632.188C298.25 632.188 300.294 634.344 300.294 637.928V647H298.11V638.488C298.11 635.828 296.57 634.26 294.022 634.26C290.97 634.344 289.206 636.556 289.206 639.748V647H286.994V638.488C286.994 635.828 285.482 634.26 282.906 634.26C279.882 634.344 278.062 636.556 278.062 639.748V647H275.906V632.272H278.062V635.604C279.042 633.308 281.03 632.216 283.69 632.188C286.462 632.188 288.366 633.588 288.982 636.024C289.906 633.448 291.978 632.216 294.806 632.188ZM305.277 626.224H307.461V647H305.277V626.224ZM318.754 632.188C323.514 632.188 325.866 635.464 325.642 640.448H313.602C313.966 643.36 316.066 645.264 318.95 645.264C320.77 645.264 322.366 644.592 323.514 643.388L324.718 644.648C323.318 646.188 321.246 647.084 318.782 647.084C314.442 647.084 311.446 644.032 311.446 639.636C311.446 635.24 314.47 632.216 318.754 632.188ZM313.602 638.712H323.682C323.542 635.856 321.638 634.008 318.754 634.008C315.926 634.008 313.91 635.856 313.602 638.712ZM337.174 635.184C336.026 634.456 334.542 634.008 333.17 634.008C331.518 634.008 330.258 634.596 330.258 635.996C330.258 639.328 338.49 637.62 338.49 642.912C338.49 645.796 335.914 647.084 333.086 647.084C330.986 647.084 328.83 646.356 327.43 645.012L328.27 643.416C329.53 644.592 331.434 645.292 333.17 645.292C334.906 645.292 336.306 644.62 336.334 643.136C336.418 639.552 328.158 641.372 328.186 636.164C328.186 633.364 330.622 632.16 333.31 632.16C335.074 632.16 336.782 632.692 338.014 633.504L337.174 635.184ZM349.862 635.184C348.714 634.456 347.23 634.008 345.858 634.008C344.206 634.008 342.946 634.596 342.946 635.996C342.946 639.328 351.178 637.62 351.178 642.912C351.178 645.796 348.602 647.084 345.774 647.084C343.674 647.084 341.518 646.356 340.118 645.012L340.958 643.416C342.218 644.592 344.122 645.292 345.858 645.292C347.594 645.292 348.994 644.62 349.022 643.136C349.106 639.552 340.846 641.372 340.874 636.164C340.874 633.364 343.31 632.16 345.998 632.16C347.762 632.16 349.47 632.692 350.702 633.504L349.862 635.184ZM354.905 644.368C355.661 644.368 356.249 644.984 356.249 645.796C356.249 646.608 355.661 647.224 354.905 647.224C354.121 647.224 353.533 646.608 353.533 645.796C353.533 644.984 354.121 644.368 354.905 644.368Z" fill="#333333"/>
</svg>
