<svg width="520" height="571" viewBox="0 0 520 571" fill="none" xmlns="http://www.w3.org/2000/svg">
<path d="M9.888 3.472C15.296 3.472 18.304 7.504 18.304 14.768C18.304 22.064 15.296 26.096 9.888 26.096C4.448 26.096 1.44 22.064 1.44 14.768C1.44 7.504 4.448 3.472 9.888 3.472ZM9.888 6.416C6.752 6.416 5.184 9.072 5.184 14.768C5.184 20.464 6.752 23.152 9.888 23.152C12.992 23.152 14.56 20.464 14.56 14.768C14.56 9.072 12.992 6.416 9.888 6.416ZM30.342 13.008C34.534 13.36 37.35 15.504 37.35 19.056C37.35 23.248 33.958 26.16 28.55 26.16C25.574 26.16 22.47 25.2 20.422 23.728L21.99 20.656C23.75 22.16 26.022 22.992 28.294 22.992C31.686 22.992 33.67 21.456 33.67 19.12C33.67 16.688 31.654 15.44 28.23 15.44H24.966V13.264L31.526 6.96H21.542L21.51 3.6H36.23V5.968L29.03 12.912L30.342 13.008Z" fill="#FA8334"/>
<path d="M67.888 29.472C73.296 29.472 76.304 33.504 76.304 40.768C76.304 48.064 73.296 52.096 67.888 52.096C62.448 52.096 59.44 48.064 59.44 40.768C59.44 33.504 62.448 29.472 67.888 29.472ZM67.888 32.416C64.752 32.416 63.184 35.072 63.184 40.768C63.184 46.464 64.752 49.152 67.888 49.152C70.992 49.152 72.56 46.464 72.56 40.768C72.56 35.072 70.992 32.416 67.888 32.416ZM86.678 29.568H90.326L82.902 43.104H89.782L89.75 37.824H93.27L93.302 43.104H96.598V46.496H93.27V52H89.75V46.496H78.838V43.68L86.678 29.568Z" fill="#FA8334"/>
<path d="M49.472 15.888H52.608L42.464 45.744H39.328L49.472 15.888Z" fill="#FA8334"/>
<path d="M61.49 197H38.958L31.734 181.348H24.252V197H4.3V136.714H33.454C49.794 136.714 59.168 144.54 59.168 158.3C59.168 167.072 55.814 173.608 49.622 177.392L61.49 197ZM24.252 151.85V166.212H33.454C37.754 166.212 40.248 163.546 40.248 158.902C40.248 154.43 37.754 151.85 33.454 151.85H24.252ZM88.7184 149.27C105.144 149.27 114.776 160.45 113.744 177.822H83.1284C84.4184 181.52 87.1704 183.412 90.9544 183.412C94.2224 183.412 97.5764 181.95 100.5 179.198L110.562 189.088C105.574 194.592 98.3504 197.688 89.2344 197.688C73.1524 197.688 63.6064 188.228 63.6064 173.694C63.6064 158.816 73.5824 149.27 88.7184 149.27ZM94.3944 168.878C94.6524 165.008 92.2444 162.17 88.8904 162.17C85.5364 162.17 83.4724 164.922 82.6984 168.878H94.3944ZM129.591 126.738C135.353 126.738 139.395 130.78 139.395 136.542C139.395 142.304 135.353 146.346 129.591 146.346C123.829 146.346 119.787 142.304 119.787 136.542C119.787 130.78 123.829 126.738 129.591 126.738ZM119.873 149.958H139.223V197H119.873V149.958ZM212.663 149.098C222.381 149.098 229.261 156.15 229.261 166.986V197H209.911V172.576C209.911 168.62 207.761 166.126 204.579 166.126C200.967 166.126 198.645 169.136 198.645 173.694V197H179.295V172.576C179.295 168.62 177.145 166.126 173.963 166.126C170.351 166.126 168.029 169.136 168.029 173.694V197H148.679V149.958H168.029V156.58C171.211 151.85 175.941 149.098 182.047 149.098C189.185 149.098 194.775 152.882 197.269 159.16C200.279 152.796 205.611 149.098 212.663 149.098ZM260.327 149.098C273.915 149.098 281.999 155.462 281.999 166.556V197H262.993V191.926C260.241 195.71 255.769 197.86 249.749 197.86C239.773 197.86 234.011 192.012 234.011 183.068C234.011 173.78 240.289 168.878 252.243 168.706H262.993C262.907 165.438 260.413 163.546 255.683 163.546C252.157 163.546 246.739 164.578 241.407 166.556L237.107 153.656C245.105 150.732 253.361 149.098 260.327 149.098ZM256.457 185.562C258.951 185.562 261.445 184.272 262.993 181.95V177.65H256.285C253.619 177.65 252.157 178.94 252.157 181.434C252.157 184.014 253.705 185.562 256.457 185.562ZM317.885 149.958H337.149V193.13C337.149 206.202 326.399 214.544 310.833 214.544C301.803 214.544 293.547 211.706 288.645 208.438L294.751 195.452C298.879 198.032 304.555 199.58 309.113 199.58C314.789 199.58 317.885 197.258 317.885 193.646V189.174C315.047 192.356 311.005 194.162 306.103 194.162C295.009 194.162 286.753 185.304 286.753 171.458C286.753 157.956 294.665 149.27 305.759 149.27C310.833 149.27 314.961 151.076 317.885 154.344V149.958ZM311.349 180.402C315.305 180.402 317.885 177.048 317.885 171.974C317.885 166.814 315.305 163.46 311.349 163.46C307.393 163.46 304.813 166.814 304.813 171.974C304.813 177.048 307.393 180.402 311.349 180.402ZM356.18 126.738C361.942 126.738 365.984 130.78 365.984 136.542C365.984 142.304 361.942 146.346 356.18 146.346C350.418 146.346 346.376 142.304 346.376 136.542C346.376 130.78 350.418 126.738 356.18 126.738ZM346.462 149.958H365.812V197H346.462V149.958ZM408.895 149.098C418.785 149.098 425.751 156.15 425.751 166.986V197H406.401V172.576C406.401 168.62 404.165 166.126 400.811 166.126C397.027 166.126 394.619 169.136 394.619 173.694V197H375.269V149.958H394.619V156.666C397.801 151.85 402.703 149.098 408.895 149.098ZM455.562 149.27C471.988 149.27 481.62 160.45 480.588 177.822H449.972C451.262 181.52 454.014 183.412 457.798 183.412C461.066 183.412 464.42 181.95 467.344 179.198L477.406 189.088C472.418 194.592 465.194 197.688 456.078 197.688C439.996 197.688 430.45 188.228 430.45 173.694C430.45 158.816 440.426 149.27 455.562 149.27ZM461.238 168.878C461.496 165.008 459.088 162.17 455.734 162.17C452.38 162.17 450.316 164.922 449.542 168.878H461.238ZM34.83 221.714C49.364 221.714 58.738 227.734 58.738 236.936C58.738 242.87 54.782 247.944 48.59 249.836C55.814 251.47 60.544 257.49 60.544 265.058C60.544 275.378 50.998 282 36.292 282H4.3V221.714H34.83ZM33.712 244.934C36.464 244.934 38.27 243.214 38.27 240.548C38.27 237.968 36.464 236.334 33.712 236.334H24.166V244.934H33.712ZM33.712 267.38C37.41 267.38 39.818 265.488 39.818 262.564C39.818 259.898 37.41 258.178 33.712 258.178H24.166V267.38H33.712ZM95.9444 234.958H115.294V282H95.9444V275.464C92.8484 280.194 88.1184 282.86 82.0984 282.86C72.4664 282.86 65.6724 275.808 65.6724 264.972V234.958H85.0224V259.382C85.0224 263.338 87.0864 265.832 90.1824 265.832C93.7084 265.832 95.9444 262.822 95.9444 258.264V234.958ZM159.488 251.986C152.522 248.546 147.19 246.826 143.578 246.826C141.944 246.826 140.912 247.428 140.912 248.374C140.912 252.76 165.336 251.04 165.336 266.864C165.336 276.582 156.994 282.86 144.008 282.86C135.322 282.86 127.582 280.624 121.046 276.152L126.894 264.112C133.172 267.982 139.02 269.96 144.266 269.96C146.072 269.96 147.19 269.444 147.19 268.584C147.19 264.456 123.282 266.262 123.282 250.352C123.282 240.462 131.452 234.098 144.008 234.098C151.49 234.098 158.8 236.076 165.852 240.032L159.488 251.986ZM181.913 211.738C187.675 211.738 191.717 215.78 191.717 221.542C191.717 227.304 187.675 231.346 181.913 231.346C176.151 231.346 172.109 227.304 172.109 221.542C172.109 215.78 176.151 211.738 181.913 211.738ZM172.195 234.958H191.545V282H172.195V234.958ZM234.627 234.098C244.517 234.098 251.483 241.15 251.483 251.986V282H232.133V257.576C232.133 253.62 229.897 251.126 226.543 251.126C222.759 251.126 220.351 254.136 220.351 258.694V282H201.001V234.958H220.351V241.666C223.533 236.85 228.435 234.098 234.627 234.098ZM281.295 234.27C297.721 234.27 307.353 245.45 306.321 262.822H275.705C276.995 266.52 279.747 268.412 283.531 268.412C286.799 268.412 290.153 266.95 293.077 264.198L303.139 274.088C298.151 279.592 290.927 282.688 281.811 282.688C265.729 282.688 256.183 273.228 256.183 258.694C256.183 243.816 266.159 234.27 281.295 234.27ZM286.971 253.878C287.229 250.008 284.821 247.17 281.467 247.17C278.113 247.17 276.049 249.922 275.275 253.878H286.971ZM347.193 251.986C340.227 248.546 334.895 246.826 331.283 246.826C329.649 246.826 328.617 247.428 328.617 248.374C328.617 252.76 353.041 251.04 353.041 266.864C353.041 276.582 344.699 282.86 331.713 282.86C323.027 282.86 315.287 280.624 308.751 276.152L314.599 264.112C320.877 267.982 326.725 269.96 331.971 269.96C333.777 269.96 334.895 269.444 334.895 268.584C334.895 264.456 310.987 266.262 310.987 250.352C310.987 240.462 319.157 234.098 331.713 234.098C339.195 234.098 346.505 236.076 353.557 240.032L347.193 251.986ZM394.644 251.986C387.678 248.546 382.346 246.826 378.734 246.826C377.1 246.826 376.068 247.428 376.068 248.374C376.068 252.76 400.492 251.04 400.492 266.864C400.492 276.582 392.15 282.86 379.164 282.86C370.478 282.86 362.738 280.624 356.202 276.152L362.05 264.112C368.328 267.982 374.176 269.96 379.422 269.96C381.228 269.96 382.346 269.444 382.346 268.584C382.346 264.456 358.438 266.262 358.438 250.352C358.438 240.462 366.608 234.098 379.164 234.098C386.646 234.098 393.956 236.076 401.008 240.032L394.644 251.986Z" fill="#293239"/>
<path d="M14.056 391.124C12.292 389.976 10.22 389.5 8.652 389.5C6.132 389.5 4.48 390.508 4.48 392.188C4.48 397.284 15.512 394.624 15.484 401.736C15.484 404.984 12.6 407.084 8.4 407.084C5.544 407.084 2.744 405.852 0.896 404.088L1.904 402.156C3.724 403.892 6.216 404.9 8.428 404.9C11.256 404.9 13.02 403.752 13.02 401.848C13.048 396.612 2.016 399.384 2.016 392.356C2.016 389.276 4.732 387.316 8.792 387.316C11.06 387.316 13.384 388.044 15.008 389.136L14.056 391.124ZM25.6012 392.188C30.3612 392.188 32.7132 395.464 32.4892 400.448H20.4492C20.8132 403.36 22.9132 405.264 25.7972 405.264C27.6172 405.264 29.2132 404.592 30.3612 403.388L31.5652 404.648C30.1652 406.188 28.0932 407.084 25.6292 407.084C21.2892 407.084 18.2932 404.032 18.2932 399.636C18.2932 395.24 21.3172 392.216 25.6012 392.188ZM20.4492 398.712H30.5292C30.3892 395.856 28.4852 394.008 25.6012 394.008C22.7732 394.008 20.7572 395.856 20.4492 398.712ZM47.5221 407H45.3941V404.704C44.2181 406.3 42.3421 407.084 39.9901 407.084C36.9381 407.084 34.9781 405.152 34.9781 402.632C34.9781 400.056 37.0221 398.432 40.4941 398.404H45.3381V397.48C45.3381 395.324 43.9941 394.008 41.3901 394.008C39.7661 394.008 38.2541 394.624 36.7141 395.716L35.7901 394.176C37.6941 392.916 39.2901 392.188 41.8101 392.188C45.4501 392.188 47.4661 394.12 47.4941 397.256L47.5221 407ZM40.4101 405.264C42.9021 405.264 44.8061 404.032 45.3661 401.932V400.14H40.7741C38.3101 400.14 37.0221 400.896 37.0221 402.548C37.0221 404.172 38.3381 405.264 40.4101 405.264ZM60.1823 395.184C59.0343 394.456 57.5503 394.008 56.1783 394.008C54.5263 394.008 53.2663 394.596 53.2663 395.996C53.2663 399.328 61.4983 397.62 61.4983 402.912C61.4983 405.796 58.9223 407.084 56.0943 407.084C53.9943 407.084 51.8383 406.356 50.4383 405.012L51.2783 403.416C52.5383 404.592 54.4423 405.292 56.1783 405.292C57.9143 405.292 59.3143 404.62 59.3423 403.136C59.4263 399.552 51.1663 401.372 51.1943 396.164C51.1943 393.364 53.6303 392.16 56.3183 392.16C58.0823 392.16 59.7903 392.692 61.0223 393.504L60.1823 395.184ZM71.0778 392.188C75.4458 392.188 78.5538 395.24 78.5538 399.608C78.5538 404.032 75.4458 407.084 71.0778 407.084C66.7098 407.084 63.6018 404.032 63.6018 399.608C63.6018 395.24 66.7098 392.188 71.0778 392.188ZM71.0778 394.12C67.9978 394.12 65.7858 396.388 65.7858 399.636C65.7858 402.94 67.9978 405.18 71.0778 405.18C74.1578 405.18 76.3698 402.94 76.3698 399.636C76.3698 396.388 74.1578 394.12 71.0778 394.12ZM90.2904 392.188C93.8184 392.188 95.8904 394.344 95.8904 397.928V407H93.7064V398.488C93.7064 395.856 92.1384 394.288 89.5344 394.288C86.6224 394.316 84.8304 396.248 84.5784 399.104V407H82.3944V392.272H84.5784V395.52C85.6144 393.28 87.6024 392.216 90.2904 392.188ZM108.553 395.184C107.405 394.456 105.921 394.008 104.549 394.008C102.897 394.008 101.637 394.596 101.637 395.996C101.637 399.328 109.869 397.62 109.869 402.912C109.869 405.796 107.293 407.084 104.465 407.084C102.365 407.084 100.209 406.356 98.8094 405.012L99.6494 403.416C100.909 404.592 102.813 405.292 104.549 405.292C106.285 405.292 107.685 404.62 107.713 403.136C107.797 399.552 99.5374 401.372 99.5654 396.164C99.5654 393.364 102.001 392.16 104.689 392.16C106.453 392.16 108.161 392.692 109.393 393.504L108.553 395.184ZM132.424 407H130.296V404.704C129.12 406.3 127.244 407.084 124.892 407.084C121.84 407.084 119.88 405.152 119.88 402.632C119.88 400.056 121.924 398.432 125.396 398.404H130.24V397.48C130.24 395.324 128.896 394.008 126.292 394.008C124.668 394.008 123.156 394.624 121.616 395.716L120.692 394.176C122.596 392.916 124.192 392.188 126.712 392.188C130.352 392.188 132.368 394.12 132.396 397.256L132.424 407ZM125.312 405.264C127.804 405.264 129.708 404.032 130.268 401.932V400.14H125.676C123.212 400.14 121.924 400.896 121.924 402.548C121.924 404.172 123.24 405.264 125.312 405.264ZM139.485 395.548C140.465 393.392 142.285 392.216 144.777 392.188V394.316C141.669 394.26 139.737 396.192 139.485 399.16V407H137.301V392.272H139.485V395.548ZM153.543 392.188C158.303 392.188 160.655 395.464 160.431 400.448H148.391C148.755 403.36 150.855 405.264 153.739 405.264C155.559 405.264 157.155 404.592 158.303 403.388L159.507 404.648C158.107 406.188 156.035 407.084 153.571 407.084C149.231 407.084 146.235 404.032 146.235 399.636C146.235 395.24 149.259 392.216 153.543 392.188ZM148.391 398.712H158.471C158.331 395.856 156.427 394.008 153.543 394.008C150.715 394.008 148.699 395.856 148.391 398.712ZM179.871 392.188C184.043 392.188 186.955 395.268 186.955 399.664C186.955 404.032 184.099 407.084 179.927 407.084C177.295 407.084 175.279 405.88 174.187 403.836V412.432H172.003V392.272H174.187V395.436C175.279 393.392 177.295 392.188 179.871 392.188ZM179.479 405.152C182.559 405.152 184.743 402.828 184.743 399.608C184.743 396.416 182.559 394.064 179.479 394.064C176.371 394.064 174.187 396.388 174.187 399.608C174.187 402.856 176.371 405.152 179.479 405.152ZM202.069 407H199.941V404.704C198.765 406.3 196.889 407.084 194.537 407.084C191.485 407.084 189.525 405.152 189.525 402.632C189.525 400.056 191.569 398.432 195.041 398.404H199.885V397.48C199.885 395.324 198.541 394.008 195.937 394.008C194.313 394.008 192.801 394.624 191.261 395.716L190.337 394.176C192.241 392.916 193.837 392.188 196.357 392.188C199.997 392.188 202.013 394.12 202.041 397.256L202.069 407ZM194.957 405.264C197.449 405.264 199.353 404.032 199.913 401.932V400.14H195.321C192.857 400.14 191.569 400.896 191.569 402.548C191.569 404.172 192.885 405.264 194.957 405.264ZM214.729 395.184C213.581 394.456 212.097 394.008 210.725 394.008C209.073 394.008 207.813 394.596 207.813 395.996C207.813 399.328 216.045 397.62 216.045 402.912C216.045 405.796 213.469 407.084 210.641 407.084C208.541 407.084 206.385 406.356 204.985 405.012L205.825 403.416C207.085 404.592 208.989 405.292 210.725 405.292C212.461 405.292 213.861 404.62 213.889 403.136C213.973 399.552 205.713 401.372 205.741 396.164C205.741 393.364 208.177 392.16 210.865 392.16C212.629 392.16 214.337 392.692 215.569 393.504L214.729 395.184ZM227.417 395.184C226.269 394.456 224.785 394.008 223.413 394.008C221.761 394.008 220.501 394.596 220.501 395.996C220.501 399.328 228.733 397.62 228.733 402.912C228.733 405.796 226.157 407.084 223.329 407.084C221.229 407.084 219.073 406.356 217.673 405.012L218.513 403.416C219.773 404.592 221.677 405.292 223.413 405.292C225.149 405.292 226.549 404.62 226.577 403.136C226.661 399.552 218.401 401.372 218.429 396.164C218.429 393.364 220.865 392.16 223.553 392.16C225.317 392.16 227.025 392.692 228.257 393.504L227.417 395.184ZM238.144 392.188C242.904 392.188 245.256 395.464 245.032 400.448H232.992C233.356 403.36 235.456 405.264 238.34 405.264C240.16 405.264 241.756 404.592 242.904 403.388L244.108 404.648C242.708 406.188 240.636 407.084 238.172 407.084C233.832 407.084 230.836 404.032 230.836 399.636C230.836 395.24 233.86 392.216 238.144 392.188ZM232.992 398.712H243.072C242.932 395.856 241.028 394.008 238.144 394.008C235.316 394.008 233.3 395.856 232.992 398.712ZM247.801 387.4H249.537V393.7H247.801V387.4ZM252.202 404.368C252.958 404.368 253.546 404.984 253.546 405.796C253.546 406.608 252.958 407.224 252.202 407.224C251.418 407.224 250.83 406.608 250.83 405.796C250.83 404.984 251.418 404.368 252.202 404.368ZM274.06 387.344C279.772 387.344 284.308 391.684 284.308 397.2C284.308 402.716 279.772 407.084 274.06 407.084C268.32 407.084 263.784 402.716 263.784 397.2C263.784 391.684 268.32 387.344 274.06 387.344ZM274.06 389.416C269.692 389.416 266.052 392.86 266.052 397.2C266.052 401.54 269.692 405.04 274.06 405.04C278.428 405.04 282.012 401.54 282.012 397.2C282.012 392.86 278.428 389.416 274.06 389.416ZM298.713 392.272H300.897V407H298.713V403.668C297.733 405.964 295.773 407.056 293.113 407.084C289.669 407.084 287.597 404.9 287.597 401.344V392.272H289.781V400.784C289.781 403.416 291.321 404.984 293.869 404.984C296.921 404.928 298.713 402.688 298.713 399.496V392.272ZM308.414 395.548C309.394 393.392 311.214 392.216 313.706 392.188V394.316C310.598 394.26 308.666 396.192 308.414 399.16V407H306.23V392.272H308.414V395.548ZM14.028 426.224H16.212V447H14.028V443.836C12.936 445.908 10.92 447.112 8.288 447.112C4.088 447.112 1.176 444.004 1.176 439.608C1.176 435.212 4.088 432.16 8.26 432.16C10.892 432.16 12.936 433.364 14.028 435.464V426.224ZM8.708 445.236C11.816 445.236 14.028 442.912 14.028 439.664C14.028 436.416 11.816 434.064 8.708 434.064C5.572 434.064 3.36 436.416 3.36 439.664C3.36 442.912 5.572 445.236 8.708 445.236ZM23.8479 435.548C24.8279 433.392 26.6479 432.216 29.1399 432.188V434.316C26.0319 434.26 24.0999 436.192 23.8479 439.16V447H21.6639V432.272H23.8479V435.548ZM38.0739 432.188C42.4419 432.188 45.5499 435.24 45.5499 439.608C45.5499 444.032 42.4419 447.084 38.0739 447.084C33.7059 447.084 30.5979 444.032 30.5979 439.608C30.5979 435.24 33.7059 432.188 38.0739 432.188ZM38.0739 434.12C34.9939 434.12 32.7819 436.388 32.7819 439.636C32.7819 442.94 34.9939 445.18 38.0739 445.18C41.1539 445.18 43.3659 442.94 43.3659 439.636C43.3659 436.388 41.1539 434.12 38.0739 434.12ZM57.3985 432.188C61.5705 432.188 64.4825 435.268 64.4825 439.664C64.4825 444.032 61.6265 447.084 57.4545 447.084C54.8225 447.084 52.8065 445.88 51.7145 443.836V452.432H49.5305V432.272H51.7145V435.436C52.8065 433.392 54.8225 432.188 57.3985 432.188ZM57.0065 445.152C60.0865 445.152 62.2705 442.828 62.2705 439.608C62.2705 436.416 60.0865 434.064 57.0065 434.064C53.8985 434.064 51.7145 436.388 51.7145 439.608C51.7145 442.856 53.8985 445.152 57.0065 445.152ZM76.0963 435.184C74.9483 434.456 73.4643 434.008 72.0923 434.008C70.4403 434.008 69.1803 434.596 69.1803 435.996C69.1803 439.328 77.4123 437.62 77.4123 442.912C77.4123 445.796 74.8363 447.084 72.0083 447.084C69.9083 447.084 67.7523 446.356 66.3523 445.012L67.1923 443.416C68.4523 444.592 70.3563 445.292 72.0923 445.292C73.8283 445.292 75.2283 444.62 75.2563 443.136C75.3403 439.552 67.0803 441.372 67.1083 436.164C67.1083 433.364 69.5443 432.16 72.2323 432.16C73.9963 432.16 75.7043 432.692 76.9363 433.504L76.0963 435.184ZM99.9674 447H97.8394V444.704C96.6634 446.3 94.7874 447.084 92.4354 447.084C89.3834 447.084 87.4234 445.152 87.4234 442.632C87.4234 440.056 89.4674 438.432 92.9394 438.404H97.7834V437.48C97.7834 435.324 96.4394 434.008 93.8354 434.008C92.2114 434.008 90.6994 434.624 89.1594 435.716L88.2354 434.176C90.1394 432.916 91.7354 432.188 94.2554 432.188C97.8954 432.188 99.9114 434.12 99.9394 437.256L99.9674 447ZM92.8554 445.264C95.3474 445.264 97.2514 444.032 97.8114 441.932V440.14H93.2194C90.7554 440.14 89.4674 440.896 89.4674 442.548C89.4674 444.172 90.7834 445.264 92.8554 445.264ZM107.028 435.548C108.008 433.392 109.828 432.216 112.32 432.188V434.316C109.212 434.26 107.28 436.192 107.028 439.16V447H104.844V432.272H107.028V435.548ZM121.086 432.188C125.846 432.188 128.198 435.464 127.974 440.448H115.934C116.298 443.36 118.398 445.264 121.282 445.264C123.102 445.264 124.698 444.592 125.846 443.388L127.05 444.648C125.65 446.188 123.578 447.084 121.114 447.084C116.774 447.084 113.778 444.032 113.778 439.636C113.778 435.24 116.802 432.216 121.086 432.188ZM115.934 438.712H126.014C125.874 435.856 123.97 434.008 121.086 434.008C118.258 434.008 116.242 435.856 115.934 438.712ZM150.774 426.224H152.958V447H150.774V443.836C149.682 445.908 147.666 447.112 145.034 447.112C140.834 447.112 137.922 444.004 137.922 439.608C137.922 435.212 140.834 432.16 145.006 432.16C147.638 432.16 149.682 433.364 150.774 435.464V426.224ZM145.454 445.236C148.562 445.236 150.774 442.912 150.774 439.664C150.774 436.416 148.562 434.064 145.454 434.064C142.318 434.064 140.106 436.416 140.106 439.664C140.106 442.912 142.318 445.236 145.454 445.236ZM164.234 432.188C168.994 432.188 171.346 435.464 171.122 440.448H159.082C159.446 443.36 161.546 445.264 164.43 445.264C166.25 445.264 167.846 444.592 168.994 443.388L170.198 444.648C168.798 446.188 166.726 447.084 164.262 447.084C159.922 447.084 156.926 444.032 156.926 439.636C156.926 435.24 159.95 432.216 164.234 432.188ZM159.082 438.712H169.162C169.022 435.856 167.118 434.008 164.234 434.008C161.406 434.008 159.39 435.856 159.082 438.712ZM175.237 430.956C175.237 427.708 177.561 426.028 179.969 426.028C180.921 426.056 181.873 426.308 182.629 426.784L182.573 428.744C181.761 428.296 180.837 428.016 179.997 428.016C178.541 428.016 177.393 428.94 177.393 430.704V432.608H181.621V434.344H177.393V447H175.237V434.344H173.333V432.608H175.237V430.956ZM184.925 429.528C184.113 429.528 183.497 428.884 183.497 428.044C183.497 427.176 184.113 426.56 184.925 426.56C185.737 426.56 186.353 427.176 186.353 428.044C186.353 428.884 185.737 429.528 184.925 429.528ZM183.861 447V432.272H186.017V447H183.861ZM199.228 432.188C202.756 432.188 204.828 434.344 204.828 437.928V447H202.644V438.488C202.644 435.856 201.076 434.288 198.472 434.288C195.56 434.316 193.768 436.248 193.516 439.104V447H191.332V432.272H193.516V435.52C194.552 433.28 196.54 432.216 199.228 432.188ZM215.531 432.188C220.291 432.188 222.643 435.464 222.419 440.448H210.379C210.743 443.36 212.843 445.264 215.727 445.264C217.547 445.264 219.143 444.592 220.291 443.388L221.495 444.648C220.095 446.188 218.023 447.084 215.559 447.084C211.219 447.084 208.223 444.032 208.223 439.636C208.223 435.24 211.247 432.216 215.531 432.188ZM210.379 438.712H220.459C220.319 435.856 218.415 434.008 215.531 434.008C212.703 434.008 210.687 435.856 210.379 438.712ZM237.536 426.224H239.72V447H237.536V443.836C236.444 445.908 234.428 447.112 231.796 447.112C227.596 447.112 224.684 444.004 224.684 439.608C224.684 435.212 227.596 432.16 231.768 432.16C234.4 432.16 236.444 433.364 237.536 435.464V426.224ZM232.216 445.236C235.324 445.236 237.536 442.912 237.536 439.664C237.536 436.416 235.324 434.064 232.216 434.064C229.08 434.064 226.868 436.416 226.868 439.664C226.868 442.912 229.08 445.236 232.216 445.236ZM260.863 432.188C265.035 432.188 267.947 435.268 267.947 439.664C267.947 444.032 265.091 447.084 260.919 447.084C258.287 447.084 256.271 445.88 255.179 443.836V447H252.995V426.224H255.179V435.436C256.271 433.392 258.287 432.188 260.863 432.188ZM260.471 445.152C263.551 445.152 265.735 442.828 265.735 439.608C265.735 436.416 263.551 434.064 260.471 434.064C257.363 434.064 255.179 436.388 255.179 439.608C255.179 442.856 257.363 445.152 260.471 445.152ZM276.016 449.1C275.092 451.34 273.552 452.516 271.592 452.516C270.36 452.516 269.38 452.18 268.484 451.452L269.408 449.716C270.08 450.192 270.752 450.416 271.48 450.416C272.628 450.416 273.58 449.688 274.168 448.288L274.784 446.888L268.68 432.272H270.976L275.876 444.536L280.552 432.272H282.792L276.016 449.1ZM3.724 466.56C4.536 466.56 5.152 467.176 5.152 468.044C5.152 468.884 4.536 469.528 3.724 469.528C2.912 469.528 2.296 468.884 2.296 468.044C2.296 467.176 2.912 466.56 3.724 466.56ZM2.66 472.272H4.816V487H2.66V472.272ZM18.0208 472.188C21.5488 472.188 23.6208 474.344 23.6208 477.928V487H21.4368V478.488C21.4368 475.856 19.8688 474.288 17.2648 474.288C14.3528 474.316 12.5608 476.248 12.3088 479.104V487H10.1248V472.272H12.3088V475.52C13.3448 473.28 15.3328 472.216 18.0208 472.188ZM38.8038 475.884C37.6838 474.792 36.1998 474.148 34.4078 474.148C31.3558 474.148 29.1718 476.388 29.1718 479.636C29.1718 482.912 31.3558 485.152 34.4078 485.152C36.3398 485.152 37.9358 484.48 38.9718 483.248L40.2318 484.536C38.9158 486.132 36.8718 487.084 34.3238 487.084C30.0398 487.084 27.0158 484.032 27.0158 479.636C27.0158 475.268 30.0678 472.188 34.3238 472.188C36.7038 472.188 38.6638 473 40.0078 474.372L38.8038 475.884ZM46.3792 475.548C47.3592 473.392 49.1792 472.216 51.6712 472.188V474.316C48.5632 474.26 46.6312 476.192 46.3792 479.16V487H44.1952V472.272H46.3792V475.548ZM60.4371 472.188C65.1971 472.188 67.5491 475.464 67.3251 480.448H55.2851C55.6491 483.36 57.7491 485.264 60.6331 485.264C62.4531 485.264 64.0491 484.592 65.1971 483.388L66.4011 484.648C65.0011 486.188 62.9291 487.084 60.4651 487.084C56.1251 487.084 53.1291 484.032 53.1291 479.636C53.1291 475.24 56.1531 472.216 60.4371 472.188ZM55.2851 478.712H65.3651C65.2251 475.856 63.3211 474.008 60.4371 474.008C57.6091 474.008 55.5931 475.856 55.2851 478.712ZM82.3581 487H80.2301V484.704C79.0541 486.3 77.1781 487.084 74.8261 487.084C71.7741 487.084 69.8141 485.152 69.8141 482.632C69.8141 480.056 71.8581 478.432 75.3301 478.404H80.1741V477.48C80.1741 475.324 78.8301 474.008 76.2261 474.008C74.6021 474.008 73.0901 474.624 71.5501 475.716L70.6261 474.176C72.5301 472.916 74.1261 472.188 76.6461 472.188C80.2861 472.188 82.3021 474.12 82.3301 477.256L82.3581 487ZM75.2461 485.264C77.7381 485.264 79.6421 484.032 80.2021 481.932V480.14H75.6101C73.1461 480.14 71.8581 480.896 71.8581 482.548C71.8581 484.172 73.1741 485.264 75.2461 485.264ZM95.0182 475.184C93.8702 474.456 92.3862 474.008 91.0142 474.008C89.3622 474.008 88.1022 474.596 88.1022 475.996C88.1022 479.328 96.3342 477.62 96.3342 482.912C96.3342 485.796 93.7582 487.084 90.9302 487.084C88.8302 487.084 86.6742 486.356 85.2742 485.012L86.1142 483.416C87.3742 484.592 89.2782 485.292 91.0142 485.292C92.7502 485.292 94.1502 484.62 94.1782 483.136C94.2622 479.552 86.0022 481.372 86.0302 476.164C86.0302 473.364 88.4662 472.16 91.1542 472.16C92.9182 472.16 94.6262 472.692 95.8582 473.504L95.0182 475.184ZM100.986 466.56C101.798 466.56 102.414 467.176 102.414 468.044C102.414 468.884 101.798 469.528 100.986 469.528C100.174 469.528 99.5577 468.884 99.5577 468.044C99.5577 467.176 100.174 466.56 100.986 466.56ZM99.9217 472.272H102.078V487H99.9217V472.272ZM115.283 472.188C118.811 472.188 120.883 474.344 120.883 477.928V487H118.699V478.488C118.699 475.856 117.131 474.288 114.527 474.288C111.615 474.316 109.823 476.248 109.571 479.104V487H107.387V472.272H109.571V475.52C110.607 473.28 112.595 472.216 115.283 472.188ZM136.43 472.272H138.614V485.46C138.614 489.772 135.674 492.488 131.194 492.488C128.87 492.46 126.938 491.704 125.146 490.332L126.154 488.736C127.61 489.94 129.15 490.584 131.11 490.612C134.33 490.612 136.43 488.624 136.43 485.516V483.276C135.394 485.236 133.49 486.356 130.998 486.356C127.022 486.356 124.278 483.416 124.278 479.244C124.278 475.1 126.994 472.216 130.942 472.188C133.462 472.16 135.366 473.308 136.43 475.268V472.272ZM131.39 484.564C134.33 484.564 136.43 482.352 136.43 479.3C136.43 476.22 134.33 474.008 131.39 474.008C128.422 474.008 126.35 476.22 126.322 479.3C126.35 482.352 128.422 484.564 131.39 484.564ZM156.454 468.1C155.026 468.072 153.85 469.052 153.85 470.788V472.72H158.078V474.428H153.85V487H151.694V474.428H149.79V472.72H151.694V471.068C151.694 467.876 153.962 466.112 156.426 466.14C157.546 466.14 158.694 466.504 159.59 467.176L158.694 468.856C158.022 468.38 157.21 468.1 156.454 468.1ZM162.508 475.548C163.488 473.392 165.308 472.216 167.8 472.188V474.316C164.692 474.26 162.76 476.192 162.508 479.16V487H160.324V472.272H162.508V475.548ZM176.566 472.188C181.326 472.188 183.678 475.464 183.454 480.448H171.414C171.778 483.36 173.878 485.264 176.762 485.264C178.582 485.264 180.178 484.592 181.326 483.388L182.53 484.648C181.13 486.188 179.058 487.084 176.594 487.084C172.254 487.084 169.258 484.032 169.258 479.636C169.258 475.24 172.282 472.216 176.566 472.188ZM171.414 478.712H181.494C181.354 475.856 179.45 474.008 176.566 474.008C173.738 474.008 171.722 475.856 171.414 478.712ZM198.571 472.272H200.755V492.432H198.571V483.836C197.479 485.908 195.463 487.112 192.831 487.112C188.631 487.112 185.719 484.004 185.719 479.608C185.719 475.212 188.631 472.16 192.803 472.16C195.435 472.16 197.479 473.364 198.571 475.464V472.272ZM193.251 485.236C196.359 485.236 198.571 482.912 198.571 479.664C198.571 476.416 196.359 474.064 193.251 474.064C190.115 474.064 187.903 476.416 187.903 479.664C187.903 482.912 190.115 485.236 193.251 485.236ZM216.819 472.272H219.003V487H216.819V483.668C215.839 485.964 213.879 487.056 211.219 487.084C207.775 487.084 205.703 484.9 205.703 481.344V472.272H207.887V480.784C207.887 483.416 209.427 484.984 211.975 484.984C215.027 484.928 216.819 482.688 216.819 479.496V472.272ZM230.16 472.188C234.92 472.188 237.272 475.464 237.048 480.448H225.008C225.372 483.36 227.472 485.264 230.356 485.264C232.176 485.264 233.772 484.592 234.92 483.388L236.124 484.648C234.724 486.188 232.652 487.084 230.188 487.084C225.848 487.084 222.852 484.032 222.852 479.636C222.852 475.24 225.876 472.216 230.16 472.188ZM225.008 478.712H235.088C234.948 475.856 233.044 474.008 230.16 474.008C227.332 474.008 225.316 475.856 225.008 478.712ZM248.693 472.188C252.221 472.188 254.293 474.344 254.293 477.928V487H252.109V478.488C252.109 475.856 250.541 474.288 247.937 474.288C245.025 474.316 243.233 476.248 242.981 479.104V487H240.797V472.272H242.981V475.52C244.017 473.28 246.005 472.216 248.693 472.188ZM269.476 475.884C268.356 474.792 266.872 474.148 265.08 474.148C262.028 474.148 259.844 476.388 259.844 479.636C259.844 482.912 262.028 485.152 265.08 485.152C267.012 485.152 268.608 484.48 269.644 483.248L270.904 484.536C269.588 486.132 267.544 487.084 264.996 487.084C260.712 487.084 257.688 484.032 257.688 479.636C257.688 475.268 260.74 472.188 264.996 472.188C267.376 472.188 269.336 473 270.68 474.372L269.476 475.884ZM279.571 489.1C278.647 491.34 277.107 492.516 275.147 492.516C273.915 492.516 272.935 492.18 272.039 491.452L272.963 489.716C273.635 490.192 274.307 490.416 275.035 490.416C276.183 490.416 277.135 489.688 277.723 488.288L278.339 486.888L272.235 472.272H274.531L279.431 484.536L284.107 472.272H286.347L279.571 489.1ZM307.889 487H305.761V484.704C304.585 486.3 302.709 487.084 300.357 487.084C297.305 487.084 295.345 485.152 295.345 482.632C295.345 480.056 297.389 478.432 300.861 478.404H305.705V477.48C305.705 475.324 304.361 474.008 301.757 474.008C300.133 474.008 298.621 474.624 297.081 475.716L296.157 474.176C298.061 472.916 299.657 472.188 302.177 472.188C305.817 472.188 307.833 474.12 307.861 477.256L307.889 487ZM300.777 485.264C303.269 485.264 305.173 484.032 305.733 481.932V480.14H301.141C298.677 480.14 297.389 480.896 297.389 482.548C297.389 484.172 298.705 485.264 300.777 485.264ZM320.661 472.188C324.189 472.188 326.261 474.344 326.261 477.928V487H324.077V478.488C324.077 475.856 322.509 474.288 319.905 474.288C316.993 474.316 315.201 476.248 314.949 479.104V487H312.765V472.272H314.949V475.52C315.985 473.28 317.973 472.216 320.661 472.188ZM342.508 466.224H344.692V487H342.508V483.836C341.416 485.908 339.4 487.112 336.768 487.112C332.568 487.112 329.656 484.004 329.656 479.608C329.656 475.212 332.568 472.16 336.74 472.16C339.372 472.16 341.416 473.364 342.508 475.464V466.224ZM337.188 485.236C340.296 485.236 342.508 482.912 342.508 479.664C342.508 476.416 340.296 474.064 337.188 474.064C334.052 474.064 331.84 476.416 331.84 479.664C331.84 482.912 334.052 485.236 337.188 485.236ZM10.668 512.188C14.84 512.188 17.752 515.268 17.752 519.664C17.752 524.032 14.896 527.084 10.724 527.084C8.092 527.084 6.076 525.88 4.984 523.836V527H2.8V506.224H4.984V515.436C6.076 513.392 8.092 512.188 10.668 512.188ZM10.276 525.152C13.356 525.152 15.54 522.828 15.54 519.608C15.54 516.416 13.356 514.064 10.276 514.064C7.168 514.064 4.984 516.388 4.984 519.608C4.984 522.856 7.168 525.152 10.276 525.152ZM32.1939 512.272H34.3779V527H32.1939V523.668C31.2139 525.964 29.2539 527.056 26.5939 527.084C23.1499 527.084 21.0779 524.9 21.0779 521.344V512.272H23.2619V520.784C23.2619 523.416 24.8019 524.984 27.3499 524.984C30.4019 524.928 32.1939 522.688 32.1939 519.496V512.272ZM44.4148 529.1C43.4908 531.34 41.9508 532.516 39.9908 532.516C38.7588 532.516 37.7788 532.18 36.8828 531.452L37.8068 529.716C38.4788 530.192 39.1508 530.416 39.8788 530.416C41.0268 530.416 41.9788 529.688 42.5668 528.288L43.1828 526.888L37.0788 512.272H39.3748L44.2748 524.536L48.9508 512.272H51.1908L44.4148 529.1ZM54.8295 506.56C55.6415 506.56 56.2575 507.176 56.2575 508.044C56.2575 508.884 55.6415 509.528 54.8295 509.528C54.0175 509.528 53.4015 508.884 53.4015 508.044C53.4015 507.176 54.0175 506.56 54.8295 506.56ZM53.7655 512.272H55.9215V527H53.7655V512.272ZM69.1263 512.188C72.6543 512.188 74.7263 514.344 74.7263 517.928V527H72.5423V518.488C72.5423 515.856 70.9743 514.288 68.3703 514.288C65.4583 514.316 63.6663 516.248 63.4143 519.104V527H61.2303V512.272H63.4143V515.52C64.4503 513.28 66.4383 512.216 69.1263 512.188ZM90.2733 512.272H92.4573V525.46C92.4573 529.772 89.5173 532.488 85.0373 532.488C82.7133 532.46 80.7813 531.704 78.9893 530.332L79.9973 528.736C81.4533 529.94 82.9933 530.584 84.9533 530.612C88.1733 530.612 90.2733 528.624 90.2733 525.516V523.276C89.2373 525.236 87.3333 526.356 84.8413 526.356C80.8653 526.356 78.1213 523.416 78.1213 519.244C78.1213 515.1 80.8373 512.216 84.7853 512.188C87.3053 512.16 89.2093 513.308 90.2733 515.268V512.272ZM85.2333 524.564C88.1733 524.564 90.2733 522.352 90.2733 519.3C90.2733 516.22 88.1733 514.008 85.2333 514.008C82.2653 514.008 80.1933 516.22 80.1653 519.3C80.1933 522.352 82.2653 524.564 85.2333 524.564ZM111.082 512.188C115.45 512.188 118.558 515.24 118.558 519.608C118.558 524.032 115.45 527.084 111.082 527.084C106.714 527.084 103.606 524.032 103.606 519.608C103.606 515.24 106.714 512.188 111.082 512.188ZM111.082 514.12C108.002 514.12 105.79 516.388 105.79 519.636C105.79 522.94 108.002 525.18 111.082 525.18C114.162 525.18 116.374 522.94 116.374 519.636C116.374 516.388 114.162 514.12 111.082 514.12ZM132.702 515.884C131.582 514.792 130.098 514.148 128.306 514.148C125.254 514.148 123.07 516.388 123.07 519.636C123.07 522.912 125.254 525.152 128.306 525.152C130.238 525.152 131.834 524.48 132.87 523.248L134.13 524.536C132.814 526.132 130.77 527.084 128.222 527.084C123.938 527.084 120.914 524.032 120.914 519.636C120.914 515.268 123.966 512.188 128.222 512.188C130.602 512.188 132.562 513 133.906 514.372L132.702 515.884ZM147.687 515.884C146.567 514.792 145.083 514.148 143.291 514.148C140.239 514.148 138.055 516.388 138.055 519.636C138.055 522.912 140.239 525.152 143.291 525.152C145.223 525.152 146.819 524.48 147.855 523.248L149.115 524.536C147.799 526.132 145.755 527.084 143.207 527.084C138.923 527.084 135.899 524.032 135.899 519.636C135.899 515.268 138.951 512.188 143.207 512.188C145.587 512.188 147.547 513 148.891 514.372L147.687 515.884ZM163.542 527H161.414V524.704C160.238 526.3 158.362 527.084 156.01 527.084C152.958 527.084 150.998 525.152 150.998 522.632C150.998 520.056 153.042 518.432 156.514 518.404H161.358V517.48C161.358 515.324 160.014 514.008 157.41 514.008C155.786 514.008 154.274 514.624 152.734 515.716L151.81 514.176C153.714 512.916 155.31 512.188 157.83 512.188C161.47 512.188 163.486 514.12 163.514 517.256L163.542 527ZM156.43 525.264C158.922 525.264 160.826 524.032 161.386 521.932V520.14H156.794C154.33 520.14 153.042 520.896 153.042 522.548C153.042 524.172 154.358 525.264 156.43 525.264ZM176.202 515.184C175.054 514.456 173.57 514.008 172.198 514.008C170.546 514.008 169.286 514.596 169.286 515.996C169.286 519.328 177.518 517.62 177.518 522.912C177.518 525.796 174.942 527.084 172.114 527.084C170.014 527.084 167.858 526.356 166.458 525.012L167.298 523.416C168.558 524.592 170.462 525.292 172.198 525.292C173.934 525.292 175.334 524.62 175.362 523.136C175.446 519.552 167.186 521.372 167.214 516.164C167.214 513.364 169.65 512.16 172.338 512.16C174.102 512.16 175.81 512.692 177.042 513.504L176.202 515.184ZM182.169 506.56C182.981 506.56 183.597 507.176 183.597 508.044C183.597 508.884 182.981 509.528 182.169 509.528C181.357 509.528 180.741 508.884 180.741 508.044C180.741 507.176 181.357 506.56 182.169 506.56ZM181.105 512.272H183.261V527H181.105V512.272ZM194.562 512.188C198.93 512.188 202.038 515.24 202.038 519.608C202.038 524.032 198.93 527.084 194.562 527.084C190.194 527.084 187.086 524.032 187.086 519.608C187.086 515.24 190.194 512.188 194.562 512.188ZM194.562 514.12C191.482 514.12 189.27 516.388 189.27 519.636C189.27 522.94 191.482 525.18 194.562 525.18C197.642 525.18 199.854 522.94 199.854 519.636C199.854 516.388 197.642 514.12 194.562 514.12ZM213.775 512.188C217.303 512.188 219.375 514.344 219.375 517.928V527H217.191V518.488C217.191 515.856 215.623 514.288 213.019 514.288C210.107 514.316 208.315 516.248 208.063 519.104V527H205.879V512.272H208.063V515.52C209.099 513.28 211.087 512.216 213.775 512.188ZM232.038 515.184C230.89 514.456 229.406 514.008 228.034 514.008C226.382 514.008 225.122 514.596 225.122 515.996C225.122 519.328 233.354 517.62 233.354 522.912C233.354 525.796 230.778 527.084 227.95 527.084C225.85 527.084 223.694 526.356 222.294 525.012L223.134 523.416C224.394 524.592 226.298 525.292 228.034 525.292C229.77 525.292 231.17 524.62 231.198 523.136C231.282 519.552 223.022 521.372 223.05 516.164C223.05 513.364 225.486 512.16 228.174 512.16C229.938 512.16 231.646 512.692 232.878 513.504L232.038 515.184ZM250.617 512.188C254.985 512.188 258.093 515.24 258.093 519.608C258.093 524.032 254.985 527.084 250.617 527.084C246.249 527.084 243.141 524.032 243.141 519.608C243.141 515.24 246.249 512.188 250.617 512.188ZM250.617 514.12C247.537 514.12 245.325 516.388 245.325 519.636C245.325 522.94 247.537 525.18 250.617 525.18C253.697 525.18 255.909 522.94 255.909 519.636C255.909 516.388 253.697 514.12 250.617 514.12ZM267.059 508.1C265.631 508.072 264.455 509.052 264.455 510.788V512.72H268.683V514.428H264.455V527H262.299V514.428H260.395V512.72H262.299V511.068C262.299 507.876 264.567 506.112 267.031 506.14C268.151 506.14 269.299 506.504 270.195 507.176L269.299 508.856C268.627 508.38 267.815 508.1 267.059 508.1ZM285.613 524.312L286.229 525.992C285.193 526.692 284.073 527.084 282.897 527.084C280.741 527.112 279.145 525.824 279.145 522.912V514.428H277.017V512.72H279.145V508.856H281.301V512.72H285.977V514.428H281.301V522.548C281.301 524.34 282.001 525.068 283.261 525.068C284.017 525.04 284.801 524.788 285.613 524.312ZM297.587 512.188C301.115 512.188 303.187 514.344 303.187 517.928V527H301.003V518.488C301.003 515.856 299.435 514.288 296.831 514.288C293.695 514.316 291.847 516.556 291.847 519.776V527H289.663V506.224H291.847V515.576C292.855 513.28 294.871 512.216 297.587 512.188ZM313.886 512.188C318.646 512.188 320.998 515.464 320.774 520.448H308.734C309.098 523.36 311.198 525.264 314.082 525.264C315.902 525.264 317.498 524.592 318.646 523.388L319.85 524.648C318.45 526.188 316.378 527.084 313.914 527.084C309.574 527.084 306.578 524.032 306.578 519.636C306.578 515.24 309.602 512.216 313.886 512.188ZM308.734 518.712H318.814C318.674 515.856 316.77 514.008 313.886 514.008C311.058 514.008 309.042 515.856 308.734 518.712ZM2.968 547.4H5.208V567H2.968V547.4ZM18.7318 552.188C22.2598 552.188 24.3318 554.344 24.3318 557.928V567H22.1478V558.488C22.1478 555.856 20.5798 554.288 17.9758 554.288C15.0638 554.316 13.2718 556.248 13.0198 559.104V567H10.8358V552.272H13.0198V555.52C14.0558 553.28 16.0438 552.216 18.7318 552.188ZM40.5788 546.224H42.7628V567H40.5788V563.836C39.4868 565.908 37.4708 567.112 34.8388 567.112C30.6388 567.112 27.7268 564.004 27.7268 559.608C27.7268 555.212 30.6388 552.16 34.8108 552.16C37.4428 552.16 39.4868 553.364 40.5788 555.464V546.224ZM35.2588 565.236C38.3668 565.236 40.5788 562.912 40.5788 559.664C40.5788 556.416 38.3668 554.064 35.2588 554.064C32.1228 554.064 29.9108 556.416 29.9108 559.664C29.9108 562.912 32.1228 565.236 35.2588 565.236ZM49.2787 546.56C50.0907 546.56 50.7067 547.176 50.7067 548.044C50.7067 548.884 50.0907 549.528 49.2787 549.528C48.4667 549.528 47.8507 548.884 47.8507 548.044C47.8507 547.176 48.4667 546.56 49.2787 546.56ZM48.2147 552.272H50.3707V567H48.2147V552.272ZM66.9635 567H64.8355V564.704C63.6595 566.3 61.7835 567.084 59.4315 567.084C56.3795 567.084 54.4195 565.152 54.4195 562.632C54.4195 560.056 56.4635 558.432 59.9355 558.404H64.7795V557.48C64.7795 555.324 63.4355 554.008 60.8315 554.008C59.2075 554.008 57.6955 554.624 56.1555 555.716L55.2315 554.176C57.1355 552.916 58.7315 552.188 61.2515 552.188C64.8915 552.188 66.9075 554.12 66.9355 557.256L66.9635 567ZM59.8515 565.264C62.3435 565.264 64.2475 564.032 64.8075 561.932V560.14H60.2155C57.7515 560.14 56.4635 560.896 56.4635 562.548C56.4635 564.172 57.7795 565.264 59.8515 565.264ZM79.7357 552.188C83.2637 552.188 85.3357 554.344 85.3357 557.928V567H83.1517V558.488C83.1517 555.856 81.5837 554.288 78.9797 554.288C76.0677 554.316 74.2757 556.248 74.0237 559.104V567H71.8397V552.272H74.0237V555.52C75.0597 553.28 77.0477 552.216 79.7357 552.188ZM108.202 555.884C107.082 554.792 105.598 554.148 103.806 554.148C100.754 554.148 98.5703 556.388 98.5703 559.636C98.5703 562.912 100.754 565.152 103.806 565.152C105.738 565.152 107.334 564.48 108.37 563.248L109.63 564.536C108.314 566.132 106.27 567.084 103.722 567.084C99.4383 567.084 96.4143 564.032 96.4143 559.636C96.4143 555.268 99.4663 552.188 103.722 552.188C106.102 552.188 108.062 553 109.406 554.372L108.202 555.884ZM118.875 552.188C123.243 552.188 126.351 555.24 126.351 559.608C126.351 564.032 123.243 567.084 118.875 567.084C114.507 567.084 111.399 564.032 111.399 559.608C111.399 555.24 114.507 552.188 118.875 552.188ZM118.875 554.12C115.795 554.12 113.583 556.388 113.583 559.636C113.583 562.94 115.795 565.18 118.875 565.18C121.955 565.18 124.167 562.94 124.167 559.636C124.167 556.388 121.955 554.12 118.875 554.12ZM138.087 552.188C141.615 552.188 143.687 554.344 143.687 557.928V567H141.503V558.488C141.503 555.856 139.935 554.288 137.331 554.288C134.419 554.316 132.627 556.248 132.375 559.104V567H130.191V552.272H132.375V555.52C133.411 553.28 135.399 552.216 138.087 552.188ZM156.35 555.184C155.202 554.456 153.718 554.008 152.346 554.008C150.694 554.008 149.434 554.596 149.434 555.996C149.434 559.328 157.666 557.62 157.666 562.912C157.666 565.796 155.09 567.084 152.262 567.084C150.162 567.084 148.006 566.356 146.606 565.012L147.446 563.416C148.706 564.592 150.61 565.292 152.346 565.292C154.082 565.292 155.482 564.62 155.51 563.136C155.594 559.552 147.334 561.372 147.362 556.164C147.362 553.364 149.798 552.16 152.486 552.16C154.25 552.16 155.958 552.692 157.19 553.504L156.35 555.184ZM171.866 552.272H174.05V567H171.866V563.668C170.886 565.964 168.926 567.056 166.266 567.084C162.822 567.084 160.75 564.9 160.75 561.344V552.272H162.934V560.784C162.934 563.416 164.474 564.984 167.022 564.984C170.074 564.928 171.866 562.688 171.866 559.496V552.272ZM198.283 552.188C201.727 552.188 203.771 554.344 203.771 557.928V567H201.587V558.488C201.587 555.828 200.047 554.26 197.499 554.26C194.447 554.344 192.683 556.556 192.683 559.748V567H190.471V558.488C190.471 555.828 188.959 554.26 186.383 554.26C183.359 554.344 181.539 556.556 181.539 559.748V567H179.383V552.272H181.539V555.604C182.519 553.308 184.507 552.216 187.167 552.188C189.939 552.188 191.843 553.588 192.459 556.024C193.383 553.448 195.455 552.216 198.283 552.188ZM214.437 552.188C219.197 552.188 221.549 555.464 221.325 560.448H209.285C209.649 563.36 211.749 565.264 214.633 565.264C216.453 565.264 218.049 564.592 219.197 563.388L220.401 564.648C219.001 566.188 216.929 567.084 214.465 567.084C210.125 567.084 207.129 564.032 207.129 559.636C207.129 555.24 210.153 552.216 214.437 552.188ZM209.285 558.712H219.365C219.225 555.856 217.321 554.008 214.437 554.008C211.609 554.008 209.593 555.856 209.285 558.712ZM227.258 555.548C228.238 553.392 230.058 552.216 232.55 552.188V554.316C229.442 554.26 227.51 556.192 227.258 559.16V567H225.074V552.272H227.258V555.548ZM235.632 564.368C236.388 564.368 236.976 564.984 236.976 565.796C236.976 566.608 236.388 567.224 235.632 567.224C234.848 567.224 234.26 566.608 234.26 565.796C234.26 564.984 234.848 564.368 235.632 564.368Z" fill="#333333"/>
</svg>
