<svg width="485" height="578" viewBox="0 0 485 578" fill="none" xmlns="http://www.w3.org/2000/svg">
<path d="M61.49 197H38.958L31.734 181.348H24.252V197H4.3V136.714H33.454C49.794 136.714 59.168 144.54 59.168 158.3C59.168 167.072 55.814 173.608 49.622 177.392L61.49 197ZM24.252 151.85V166.212H33.454C37.754 166.212 40.248 163.546 40.248 158.902C40.248 154.43 37.754 151.85 33.454 151.85H24.252ZM88.7184 149.27C105.144 149.27 114.776 160.45 113.744 177.822H83.1284C84.4184 181.52 87.1704 183.412 90.9544 183.412C94.2224 183.412 97.5764 181.95 100.5 179.198L110.562 189.088C105.574 194.592 98.3504 197.688 89.2344 197.688C73.1524 197.688 63.6064 188.228 63.6064 173.694C63.6064 158.816 73.5824 149.27 88.7184 149.27ZM94.3944 168.878C94.6524 165.008 92.2444 162.17 88.8904 162.17C85.5364 162.17 83.4724 164.922 82.6984 168.878H94.3944ZM129.591 126.738C135.353 126.738 139.395 130.78 139.395 136.542C139.395 142.304 135.353 146.346 129.591 146.346C123.829 146.346 119.787 142.304 119.787 136.542C119.787 130.78 123.829 126.738 129.591 126.738ZM119.873 149.958H139.223V197H119.873V149.958ZM212.663 149.098C222.381 149.098 229.261 156.15 229.261 166.986V197H209.911V172.576C209.911 168.62 207.761 166.126 204.579 166.126C200.967 166.126 198.645 169.136 198.645 173.694V197H179.295V172.576C179.295 168.62 177.145 166.126 173.963 166.126C170.351 166.126 168.029 169.136 168.029 173.694V197H148.679V149.958H168.029V156.58C171.211 151.85 175.941 149.098 182.047 149.098C189.185 149.098 194.775 152.882 197.269 159.16C200.279 152.796 205.611 149.098 212.663 149.098ZM260.327 149.098C273.915 149.098 281.999 155.462 281.999 166.556V197H262.993V191.926C260.241 195.71 255.769 197.86 249.749 197.86C239.773 197.86 234.011 192.012 234.011 183.068C234.011 173.78 240.289 168.878 252.243 168.706H262.993C262.907 165.438 260.413 163.546 255.683 163.546C252.157 163.546 246.739 164.578 241.407 166.556L237.107 153.656C245.105 150.732 253.361 149.098 260.327 149.098ZM256.457 185.562C258.951 185.562 261.445 184.272 262.993 181.95V177.65H256.285C253.619 177.65 252.157 178.94 252.157 181.434C252.157 184.014 253.705 185.562 256.457 185.562ZM317.885 149.958H337.149V193.13C337.149 206.202 326.399 214.544 310.833 214.544C301.803 214.544 293.547 211.706 288.645 208.438L294.751 195.452C298.879 198.032 304.555 199.58 309.113 199.58C314.789 199.58 317.885 197.258 317.885 193.646V189.174C315.047 192.356 311.005 194.162 306.103 194.162C295.009 194.162 286.753 185.304 286.753 171.458C286.753 157.956 294.665 149.27 305.759 149.27C310.833 149.27 314.961 151.076 317.885 154.344V149.958ZM311.349 180.402C315.305 180.402 317.885 177.048 317.885 171.974C317.885 166.814 315.305 163.46 311.349 163.46C307.393 163.46 304.813 166.814 304.813 171.974C304.813 177.048 307.393 180.402 311.349 180.402ZM356.18 126.738C361.942 126.738 365.984 130.78 365.984 136.542C365.984 142.304 361.942 146.346 356.18 146.346C350.418 146.346 346.376 142.304 346.376 136.542C346.376 130.78 350.418 126.738 356.18 126.738ZM346.462 149.958H365.812V197H346.462V149.958ZM408.895 149.098C418.785 149.098 425.751 156.15 425.751 166.986V197H406.401V172.576C406.401 168.62 404.165 166.126 400.811 166.126C397.027 166.126 394.619 169.136 394.619 173.694V197H375.269V149.958H394.619V156.666C397.801 151.85 402.703 149.098 408.895 149.098ZM455.562 149.27C471.988 149.27 481.62 160.45 480.588 177.822H449.972C451.262 181.52 454.014 183.412 457.798 183.412C461.066 183.412 464.42 181.95 467.344 179.198L477.406 189.088C472.418 194.592 465.194 197.688 456.078 197.688C439.996 197.688 430.45 188.228 430.45 173.694C430.45 158.816 440.426 149.27 455.562 149.27ZM461.238 168.878C461.496 165.008 459.088 162.17 455.734 162.17C452.38 162.17 450.316 164.922 449.542 168.878H461.238ZM31.218 221.714C51.084 221.714 63.984 233.496 63.984 251.814C63.984 270.132 50.826 282 30.444 282H4.3V221.714H31.218ZM31.734 266.52C38.958 266.52 43.602 260.844 43.602 251.986C43.602 243.042 38.528 237.194 30.788 237.194H24.252V266.52H31.734ZM91.6579 234.27C108.084 234.27 117.716 245.45 116.684 262.822H86.0679C87.3579 266.52 90.1099 268.412 93.8939 268.412C97.1619 268.412 100.516 266.95 103.44 264.198L113.502 274.088C108.514 279.592 101.29 282.688 92.1739 282.688C76.0919 282.688 66.5459 273.228 66.5459 258.694C66.5459 243.816 76.5219 234.27 91.6579 234.27ZM97.3339 253.878C97.5919 250.008 95.1839 247.17 91.8299 247.17C88.4759 247.17 86.4119 249.922 85.6379 253.878H97.3339ZM157.556 251.986C150.59 248.546 145.258 246.826 141.646 246.826C140.012 246.826 138.98 247.428 138.98 248.374C138.98 252.76 163.404 251.04 163.404 266.864C163.404 276.582 155.062 282.86 142.076 282.86C133.39 282.86 125.65 280.624 119.114 276.152L124.962 264.112C131.24 267.982 137.088 269.96 142.334 269.96C144.14 269.96 145.258 269.444 145.258 268.584C145.258 264.456 121.35 266.262 121.35 250.352C121.35 240.462 129.52 234.098 142.076 234.098C149.558 234.098 156.868 236.076 163.92 240.032L157.556 251.986ZM179.981 211.738C185.743 211.738 189.785 215.78 189.785 221.542C189.785 227.304 185.743 231.346 179.981 231.346C174.219 231.346 170.177 227.304 170.177 221.542C170.177 215.78 174.219 211.738 179.981 211.738ZM170.263 234.958H189.613V282H170.263V234.958ZM226.762 234.958H246.026V278.13C246.026 291.202 235.276 299.544 219.71 299.544C210.68 299.544 202.424 296.706 197.522 293.438L203.628 280.452C207.756 283.032 213.432 284.58 217.99 284.58C223.666 284.58 226.762 282.258 226.762 278.646V274.174C223.924 277.356 219.882 279.162 214.98 279.162C203.886 279.162 195.63 270.304 195.63 256.458C195.63 242.956 203.542 234.27 214.636 234.27C219.71 234.27 223.838 236.076 226.762 239.344V234.958ZM220.226 265.402C224.182 265.402 226.762 262.048 226.762 256.974C226.762 251.814 224.182 248.46 220.226 248.46C216.27 248.46 213.69 251.814 213.69 256.974C213.69 262.048 216.27 265.402 220.226 265.402ZM288.965 234.098C298.855 234.098 305.821 241.15 305.821 251.986V282H286.471V257.576C286.471 253.62 284.235 251.126 280.881 251.126C277.097 251.126 274.689 254.136 274.689 258.694V282H255.339V234.958H274.689V241.666C277.871 236.85 282.773 234.098 288.965 234.098Z" fill="#293239"/>
<path d="M2.968 387.4H15.428V389.472H5.208V396.5H14.364V398.544H5.208V407H2.968V387.4ZM24.4293 392.188C28.7973 392.188 31.9053 395.24 31.9053 399.608C31.9053 404.032 28.7973 407.084 24.4293 407.084C20.0613 407.084 16.9533 404.032 16.9533 399.608C16.9533 395.24 20.0613 392.188 24.4293 392.188ZM24.4293 394.12C21.3493 394.12 19.1373 396.388 19.1373 399.636C19.1373 402.94 21.3493 405.18 24.4293 405.18C27.5093 405.18 29.7213 402.94 29.7213 399.636C29.7213 396.388 27.5093 394.12 24.4293 394.12ZM37.9299 395.548C38.9099 393.392 40.7299 392.216 43.2219 392.188V394.316C40.1139 394.26 38.1819 396.192 37.9299 399.16V407H35.7459V392.272H37.9299V395.548ZM65.0639 392.188C68.5079 392.188 70.5519 394.344 70.5519 397.928V407H68.3679V398.488C68.3679 395.828 66.8279 394.26 64.2799 394.26C61.2279 394.344 59.4639 396.556 59.4639 399.748V407H57.2519V398.488C57.2519 395.828 55.7399 394.26 53.1639 394.26C50.1399 394.344 48.3199 396.556 48.3199 399.748V407H46.1639V392.272H48.3199V395.604C49.2999 393.308 51.2879 392.216 53.9479 392.188C56.7199 392.188 58.6239 393.588 59.2399 396.024C60.1639 393.448 62.2359 392.216 65.0639 392.188ZM94.362 407H92.234V404.704C91.058 406.3 89.182 407.084 86.83 407.084C83.778 407.084 81.818 405.152 81.818 402.632C81.818 400.056 83.862 398.432 87.334 398.404H92.178V397.48C92.178 395.324 90.834 394.008 88.23 394.008C86.606 394.008 85.094 394.624 83.554 395.716L82.63 394.176C84.534 392.916 86.13 392.188 88.65 392.188C92.29 392.188 94.306 394.12 94.334 397.256L94.362 407ZM87.25 405.264C89.742 405.264 91.646 404.032 92.206 401.932V400.14H87.614C85.15 400.14 83.862 400.896 83.862 402.548C83.862 404.172 85.178 405.264 87.25 405.264ZM107.134 392.188C110.662 392.188 112.734 394.344 112.734 397.928V407H110.55V398.488C110.55 395.856 108.982 394.288 106.378 394.288C103.466 394.316 101.674 396.248 101.422 399.104V407H99.2381V392.272H101.422V395.52C102.458 393.28 104.446 392.216 107.134 392.188ZM128.981 386.224H131.165V407H128.981V403.836C127.889 405.908 125.873 407.112 123.241 407.112C119.041 407.112 116.129 404.004 116.129 399.608C116.129 395.212 119.041 392.16 123.213 392.16C125.845 392.16 127.889 393.364 128.981 395.464V386.224ZM123.661 405.236C126.769 405.236 128.981 402.912 128.981 399.664C128.981 396.416 126.769 394.064 123.661 394.064C120.525 394.064 118.313 396.416 118.313 399.664C118.313 402.912 120.525 405.236 123.661 405.236ZM144.609 387.4H157.069V389.472H146.849V396.5H156.005V398.544H146.849V407H144.609V387.4ZM170.69 392.272H172.874V407H170.69V403.668C169.71 405.964 167.75 407.056 165.09 407.084C161.646 407.084 159.574 404.9 159.574 401.344V392.272H161.758V400.784C161.758 403.416 163.298 404.984 165.846 404.984C168.898 404.928 170.69 402.688 170.69 399.496V392.272ZM186.103 392.188C189.631 392.188 191.703 394.344 191.703 397.928V407H189.519V398.488C189.519 395.856 187.951 394.288 185.347 394.288C182.435 394.316 180.643 396.248 180.391 399.104V407H178.207V392.272H180.391V395.52C181.427 393.28 183.415 392.216 186.103 392.188ZM206.886 395.884C205.766 394.792 204.282 394.148 202.49 394.148C199.438 394.148 197.254 396.388 197.254 399.636C197.254 402.912 199.438 405.152 202.49 405.152C204.422 405.152 206.018 404.48 207.054 403.248L208.314 404.536C206.998 406.132 204.954 407.084 202.406 407.084C198.122 407.084 195.098 404.032 195.098 399.636C195.098 395.268 198.15 392.188 202.406 392.188C204.786 392.188 206.746 393 208.09 394.372L206.886 395.884ZM219.277 404.312L219.893 405.992C218.857 406.692 217.737 407.084 216.561 407.084C214.405 407.112 212.809 405.824 212.809 402.912V394.428H210.681V392.72H212.809V388.856H214.965V392.72H219.641V394.428H214.965V402.548C214.965 404.34 215.665 405.068 216.925 405.068C217.681 405.04 218.465 404.788 219.277 404.312ZM224.251 386.56C225.063 386.56 225.679 387.176 225.679 388.044C225.679 388.884 225.063 389.528 224.251 389.528C223.439 389.528 222.823 388.884 222.823 388.044C222.823 387.176 223.439 386.56 224.251 386.56ZM223.187 392.272H225.343V407H223.187V392.272ZM236.644 392.188C241.012 392.188 244.12 395.24 244.12 399.608C244.12 404.032 241.012 407.084 236.644 407.084C232.276 407.084 229.168 404.032 229.168 399.608C229.168 395.24 232.276 392.188 236.644 392.188ZM236.644 394.12C233.564 394.12 231.352 396.388 231.352 399.636C231.352 402.94 233.564 405.18 236.644 405.18C239.724 405.18 241.936 402.94 241.936 399.636C241.936 396.388 239.724 394.12 236.644 394.12ZM255.857 392.188C259.385 392.188 261.457 394.344 261.457 397.928V407H259.273V398.488C259.273 395.856 257.705 394.288 255.101 394.288C252.189 394.316 250.397 396.248 250.145 399.104V407H247.961V392.272H250.145V395.52C251.181 393.28 253.169 392.216 255.857 392.188ZM284.323 395.884C283.203 394.792 281.719 394.148 279.927 394.148C276.875 394.148 274.691 396.388 274.691 399.636C274.691 402.912 276.875 405.152 279.927 405.152C281.859 405.152 283.455 404.48 284.491 403.248L285.751 404.536C284.435 406.132 282.391 407.084 279.843 407.084C275.559 407.084 272.535 404.032 272.535 399.636C272.535 395.268 275.587 392.188 279.843 392.188C282.223 392.188 284.183 393 285.527 394.372L284.323 395.884ZM294.996 392.188C299.364 392.188 302.472 395.24 302.472 399.608C302.472 404.032 299.364 407.084 294.996 407.084C290.628 407.084 287.52 404.032 287.52 399.608C287.52 395.24 290.628 392.188 294.996 392.188ZM294.996 394.12C291.916 394.12 289.704 396.388 289.704 399.636C289.704 402.94 291.916 405.18 294.996 405.18C298.076 405.18 300.288 402.94 300.288 399.636C300.288 396.388 298.076 394.12 294.996 394.12ZM325.212 392.188C328.656 392.188 330.7 394.344 330.7 397.928V407H328.516V398.488C328.516 395.828 326.976 394.26 324.428 394.26C321.376 394.344 319.612 396.556 319.612 399.748V407H317.4V398.488C317.4 395.828 315.888 394.26 313.312 394.26C310.288 394.344 308.468 396.556 308.468 399.748V407H306.312V392.272H308.468V395.604C309.448 393.308 311.436 392.216 314.096 392.188C316.868 392.188 318.772 393.588 319.388 396.024C320.312 393.448 322.384 392.216 325.212 392.188ZM341.367 392.188C346.127 392.188 348.479 395.464 348.255 400.448H336.215C336.579 403.36 338.679 405.264 341.563 405.264C343.383 405.264 344.979 404.592 346.127 403.388L347.331 404.648C345.931 406.188 343.859 407.084 341.395 407.084C337.055 407.084 334.059 404.032 334.059 399.636C334.059 395.24 337.083 392.216 341.367 392.188ZM336.215 398.712H346.295C346.155 395.856 344.251 394.008 341.367 394.008C338.539 394.008 336.523 395.856 336.215 398.712ZM9.66 444.312L10.276 445.992C9.24 446.692 8.12 447.084 6.944 447.084C4.788 447.112 3.192 445.824 3.192 442.912V434.428H1.064V432.72H3.192V428.856H5.348V432.72H10.024V434.428H5.348V442.548C5.348 444.34 6.048 445.068 7.308 445.068C8.064 445.04 8.848 444.788 9.66 444.312ZM19.3434 432.188C23.7114 432.188 26.8194 435.24 26.8194 439.608C26.8194 444.032 23.7114 447.084 19.3434 447.084C14.9754 447.084 11.8674 444.032 11.8674 439.608C11.8674 435.24 14.9754 432.188 19.3434 432.188ZM19.3434 434.12C16.2634 434.12 14.0514 436.388 14.0514 439.636C14.0514 442.94 16.2634 445.18 19.3434 445.18C22.4234 445.18 24.6354 442.94 24.6354 439.636C24.6354 436.388 22.4234 434.12 19.3434 434.12ZM41.328 432.272H43.512V445.46C43.512 449.772 40.572 452.488 36.092 452.488C33.768 452.46 31.836 451.704 30.044 450.332L31.052 448.736C32.508 449.94 34.048 450.584 36.008 450.612C39.228 450.612 41.328 448.624 41.328 445.516V443.276C40.292 445.236 38.388 446.356 35.896 446.356C31.92 446.356 29.176 443.416 29.176 439.244C29.176 435.1 31.892 432.216 35.84 432.188C38.36 432.16 40.264 433.308 41.328 435.268V432.272ZM36.288 444.564C39.228 444.564 41.328 442.352 41.328 439.3C41.328 436.22 39.228 434.008 36.288 434.008C33.32 434.008 31.248 436.22 31.22 439.3C31.248 442.352 33.32 444.564 36.288 444.564ZM54.2848 432.188C59.0448 432.188 61.3968 435.464 61.1728 440.448H49.1328C49.4968 443.36 51.5968 445.264 54.4808 445.264C56.3008 445.264 57.8968 444.592 59.0448 443.388L60.2488 444.648C58.8488 446.188 56.7768 447.084 54.3128 447.084C49.9728 447.084 46.9768 444.032 46.9768 439.636C46.9768 435.24 50.0008 432.216 54.2848 432.188ZM49.1328 438.712H59.2128C59.0728 435.856 57.1688 434.008 54.2848 434.008C51.4568 434.008 49.4408 435.856 49.1328 438.712ZM71.9217 444.312L72.5377 445.992C71.5017 446.692 70.3817 447.084 69.2057 447.084C67.0497 447.112 65.4537 445.824 65.4537 442.912V434.428H63.3257V432.72H65.4537V428.856H67.6097V432.72H72.2857V434.428H67.6097V442.548C67.6097 444.34 68.3097 445.068 69.5697 445.068C70.3257 445.04 71.1097 444.788 71.9217 444.312ZM83.8959 432.188C87.4239 432.188 89.4959 434.344 89.4959 437.928V447H87.3119V438.488C87.3119 435.856 85.7439 434.288 83.1399 434.288C80.0039 434.316 78.1559 436.556 78.1559 439.776V447H75.9719V426.224H78.1559V435.576C79.1639 433.28 81.1799 432.216 83.8959 432.188ZM100.195 432.188C104.955 432.188 107.307 435.464 107.083 440.448H95.0429C95.4069 443.36 97.5069 445.264 100.391 445.264C102.211 445.264 103.807 444.592 104.955 443.388L106.159 444.648C104.759 446.188 102.687 447.084 100.223 447.084C95.8829 447.084 92.8869 444.032 92.8869 439.636C92.8869 435.24 95.9109 432.216 100.195 432.188ZM95.0429 438.712H105.123C104.983 435.856 103.079 434.008 100.195 434.008C97.3669 434.008 95.3509 435.856 95.0429 438.712ZM113.016 435.548C113.996 433.392 115.816 432.216 118.308 432.188V434.316C115.2 434.26 113.268 436.192 113.016 439.16V447H110.832V432.272H113.016V435.548ZM121.39 444.368C122.146 444.368 122.734 444.984 122.734 445.796C122.734 446.608 122.146 447.224 121.39 447.224C120.606 447.224 120.018 446.608 120.018 445.796C120.018 444.984 120.606 444.368 121.39 444.368ZM148.484 443.388V437.424H150.472V444.536C148.54 446.076 145.824 447.084 143.192 447.084C137.508 447.084 132.972 442.716 132.972 437.2C132.972 431.684 137.536 427.344 143.304 427.344C146.02 427.344 148.652 428.38 150.528 430.032L149.24 431.656C147.644 430.228 145.488 429.388 143.304 429.388C138.824 429.388 135.24 432.86 135.24 437.2C135.24 441.568 138.852 445.04 143.332 445.04C145.096 445.04 146.972 444.424 148.484 443.388ZM155.734 426.224H157.918V447H155.734V426.224ZM169.379 432.188C173.747 432.188 176.855 435.24 176.855 439.608C176.855 444.032 173.747 447.084 169.379 447.084C165.011 447.084 161.903 444.032 161.903 439.608C161.903 435.24 165.011 432.188 169.379 432.188ZM169.379 434.12C166.299 434.12 164.087 436.388 164.087 439.636C164.087 442.94 166.299 445.18 169.379 445.18C172.459 445.18 174.671 442.94 174.671 439.636C174.671 436.388 172.459 434.12 169.379 434.12ZM188.703 432.188C192.875 432.188 195.787 435.268 195.787 439.664C195.787 444.032 192.931 447.084 188.759 447.084C186.127 447.084 184.111 445.88 183.019 443.836V447H180.835V426.224H183.019V435.436C184.111 433.392 186.127 432.188 188.703 432.188ZM188.311 445.152C191.391 445.152 193.575 442.828 193.575 439.608C193.575 436.416 191.391 434.064 188.311 434.064C185.203 434.064 183.019 436.388 183.019 439.608C183.019 442.856 185.203 445.152 188.311 445.152ZM210.901 447H208.773V444.704C207.597 446.3 205.721 447.084 203.369 447.084C200.317 447.084 198.357 445.152 198.357 442.632C198.357 440.056 200.401 438.432 203.873 438.404H208.717V437.48C208.717 435.324 207.373 434.008 204.769 434.008C203.145 434.008 201.633 434.624 200.093 435.716L199.169 434.176C201.073 432.916 202.669 432.188 205.189 432.188C208.829 432.188 210.845 434.12 210.873 437.256L210.901 447ZM203.789 445.264C206.281 445.264 208.185 444.032 208.745 441.932V440.14H204.153C201.689 440.14 200.401 440.896 200.401 442.548C200.401 444.172 201.717 445.264 203.789 445.264ZM215.917 426.224H218.101V447H215.917V426.224ZM238.254 444.312L238.87 445.992C237.834 446.692 236.714 447.084 235.538 447.084C233.382 447.112 231.786 445.824 231.786 442.912V434.428H229.658V432.72H231.786V428.856H233.942V432.72H238.618V434.428H233.942V442.548C233.942 444.34 234.642 445.068 235.902 445.068C236.658 445.04 237.442 444.788 238.254 444.312ZM244.348 435.548C245.328 433.392 247.148 432.216 249.64 432.188V434.316C246.532 434.26 244.6 436.192 244.348 439.16V447H242.164V432.272H244.348V435.548ZM258.406 432.188C263.166 432.188 265.518 435.464 265.294 440.448H253.254C253.618 443.36 255.718 445.264 258.602 445.264C260.422 445.264 262.018 444.592 263.166 443.388L264.37 444.648C262.97 446.188 260.898 447.084 258.434 447.084C254.094 447.084 251.098 444.032 251.098 439.636C251.098 435.24 254.122 432.216 258.406 432.188ZM253.254 438.712H263.334C263.194 435.856 261.29 434.008 258.406 434.008C255.578 434.008 253.562 435.856 253.254 438.712ZM276.939 432.188C280.467 432.188 282.539 434.344 282.539 437.928V447H280.355V438.488C280.355 435.856 278.787 434.288 276.183 434.288C273.271 434.316 271.479 436.248 271.227 439.104V447H269.043V432.272H271.227V435.52C272.263 433.28 274.251 432.216 276.939 432.188ZM298.786 426.224H300.97V447H298.786V443.836C297.694 445.908 295.678 447.112 293.046 447.112C288.846 447.112 285.934 444.004 285.934 439.608C285.934 435.212 288.846 432.16 293.018 432.16C295.65 432.16 297.694 433.364 298.786 435.464V426.224ZM293.466 445.236C296.574 445.236 298.786 442.912 298.786 439.664C298.786 436.416 296.574 434.064 293.466 434.064C290.33 434.064 288.118 436.416 288.118 439.664C288.118 442.912 290.33 445.236 293.466 445.236ZM314.206 435.184C313.058 434.456 311.574 434.008 310.202 434.008C308.55 434.008 307.29 434.596 307.29 435.996C307.29 439.328 315.522 437.62 315.522 442.912C315.522 445.796 312.946 447.084 310.118 447.084C308.018 447.084 305.862 446.356 304.462 445.012L305.302 443.416C306.562 444.592 308.466 445.292 310.202 445.292C311.938 445.292 313.338 444.62 313.366 443.136C313.45 439.552 305.19 441.372 305.218 436.164C305.218 433.364 307.654 432.16 310.342 432.16C312.106 432.16 313.814 432.692 315.046 433.504L314.206 435.184ZM4.844 475.548C5.824 473.392 7.644 472.216 10.136 472.188V474.316C7.028 474.26 5.096 476.192 4.844 479.16V487H2.66V472.272H4.844V475.548ZM18.902 472.188C23.662 472.188 26.014 475.464 25.79 480.448H13.75C14.114 483.36 16.214 485.264 19.098 485.264C20.918 485.264 22.514 484.592 23.662 483.388L24.866 484.648C23.466 486.188 21.394 487.084 18.93 487.084C14.59 487.084 11.594 484.032 11.594 479.636C11.594 475.24 14.618 472.216 18.902 472.188ZM13.75 478.712H23.83C23.69 475.856 21.786 474.008 18.902 474.008C16.074 474.008 14.058 475.856 13.75 478.712ZM30.6029 466.56C31.4149 466.56 32.0309 467.176 32.0309 468.044C32.0309 468.884 31.4149 469.528 30.6029 469.528C29.7909 469.528 29.1749 468.884 29.1749 468.044C29.1749 467.176 29.7909 466.56 30.6029 466.56ZM29.5389 472.272H31.6949V487H29.5389V472.272ZM44.8998 472.188C48.4278 472.188 50.4998 474.344 50.4998 477.928V487H48.3158V478.488C48.3158 475.856 46.7478 474.288 44.1438 474.288C41.2318 474.316 39.4398 476.248 39.1878 479.104V487H37.0038V472.272H39.1878V475.52C40.2238 473.28 42.2118 472.216 44.8998 472.188ZM62.3788 484.312L62.9948 485.992C61.9588 486.692 60.8388 487.084 59.6628 487.084C57.5068 487.112 55.9108 485.824 55.9108 482.912V474.428H53.7828V472.72H55.9108V468.856H58.0668V472.72H62.7428V474.428H58.0668V482.548C58.0668 484.34 58.7668 485.068 60.0268 485.068C60.7828 485.04 61.5668 484.788 62.3788 484.312ZM71.8942 472.188C76.6542 472.188 79.0062 475.464 78.7822 480.448H66.7422C67.1062 483.36 69.2062 485.264 72.0902 485.264C73.9102 485.264 75.5062 484.592 76.6542 483.388L77.8582 484.648C76.4582 486.188 74.3862 487.084 71.9222 487.084C67.5822 487.084 64.5862 484.032 64.5862 479.636C64.5862 475.24 67.6102 472.216 71.8942 472.188ZM66.7422 478.712H76.8222C76.6822 475.856 74.7782 474.008 71.8942 474.008C69.0662 474.008 67.0502 475.856 66.7422 478.712ZM84.7151 475.548C85.6951 473.392 87.5151 472.216 90.0071 472.188V474.316C86.8991 474.26 84.9671 476.192 84.7151 479.16V487H82.5311V472.272H84.7151V475.548ZM100.957 472.188C105.129 472.188 108.041 475.268 108.041 479.664C108.041 484.032 105.185 487.084 101.013 487.084C98.3811 487.084 96.3651 485.88 95.2731 483.836V492.432H93.0891V472.272H95.2731V475.436C96.3651 473.392 98.3811 472.188 100.957 472.188ZM100.565 485.152C103.645 485.152 105.829 482.828 105.829 479.608C105.829 476.416 103.645 474.064 100.565 474.064C97.4571 474.064 95.2731 476.388 95.2731 479.608C95.2731 482.856 97.4571 485.152 100.565 485.152ZM114.055 475.548C115.035 473.392 116.855 472.216 119.347 472.188V474.316C116.239 474.26 114.307 476.192 114.055 479.16V487H111.871V472.272H114.055V475.548ZM128.113 472.188C132.873 472.188 135.225 475.464 135.001 480.448H122.961C123.325 483.36 125.425 485.264 128.309 485.264C130.129 485.264 131.725 484.592 132.873 483.388L134.077 484.648C132.677 486.188 130.605 487.084 128.141 487.084C123.801 487.084 120.805 484.032 120.805 479.636C120.805 475.24 123.829 472.216 128.113 472.188ZM122.961 478.712H133.041C132.901 475.856 130.997 474.008 128.113 474.008C125.285 474.008 123.269 475.856 122.961 478.712ZM145.75 484.312L146.366 485.992C145.33 486.692 144.21 487.084 143.034 487.084C140.878 487.112 139.282 485.824 139.282 482.912V474.428H137.154V472.72H139.282V468.856H141.438V472.72H146.114V474.428H141.438V482.548C141.438 484.34 142.138 485.068 143.398 485.068C144.154 485.04 144.938 484.788 145.75 484.312ZM155.265 472.188C160.025 472.188 162.377 475.464 162.153 480.448H150.113C150.477 483.36 152.577 485.264 155.461 485.264C157.281 485.264 158.877 484.592 160.025 483.388L161.229 484.648C159.829 486.188 157.757 487.084 155.293 487.084C150.953 487.084 147.957 484.032 147.957 479.636C147.957 475.24 150.981 472.216 155.265 472.188ZM150.113 478.712H160.193C160.053 475.856 158.149 474.008 155.265 474.008C152.437 474.008 150.421 475.856 150.113 478.712ZM177.27 466.224H179.454V487H177.27V483.836C176.178 485.908 174.162 487.112 171.53 487.112C167.33 487.112 164.418 484.004 164.418 479.608C164.418 475.212 167.33 472.16 171.502 472.16C174.134 472.16 176.178 473.364 177.27 475.464V466.224ZM171.95 485.236C175.058 485.236 177.27 482.912 177.27 479.664C177.27 476.416 175.058 474.064 171.95 474.064C168.814 474.064 166.602 476.416 166.602 479.664C166.602 482.912 168.814 485.236 171.95 485.236ZM197.798 468.1C196.37 468.072 195.194 469.052 195.194 470.788V472.72H199.422V474.428H195.194V487H193.038V474.428H191.134V472.72H193.038V471.068C193.038 467.876 195.306 466.112 197.77 466.14C198.89 466.14 200.038 466.504 200.934 467.176L200.038 468.856C199.366 468.38 198.554 468.1 197.798 468.1ZM207.386 472.188C211.754 472.188 214.862 475.24 214.862 479.608C214.862 484.032 211.754 487.084 207.386 487.084C203.018 487.084 199.91 484.032 199.91 479.608C199.91 475.24 203.018 472.188 207.386 472.188ZM207.386 474.12C204.306 474.12 202.094 476.388 202.094 479.636C202.094 482.94 204.306 485.18 207.386 485.18C210.466 485.18 212.678 482.94 212.678 479.636C212.678 476.388 210.466 474.12 207.386 474.12ZM220.887 475.548C221.867 473.392 223.687 472.216 226.179 472.188V474.316C223.071 474.26 221.139 476.192 220.887 479.16V487H218.703V472.272H220.887V475.548ZM243.805 484.312L244.421 485.992C243.385 486.692 242.265 487.084 241.089 487.084C238.933 487.112 237.337 485.824 237.337 482.912V474.428H235.209V472.72H237.337V468.856H239.493V472.72H244.169V474.428H239.493V482.548C239.493 484.34 240.193 485.068 241.453 485.068C242.209 485.04 242.993 484.788 243.805 484.312ZM255.779 472.188C259.307 472.188 261.379 474.344 261.379 477.928V487H259.195V478.488C259.195 475.856 257.627 474.288 255.023 474.288C251.887 474.316 250.039 476.556 250.039 479.776V487H247.855V466.224H250.039V475.576C251.047 473.28 253.063 472.216 255.779 472.188ZM272.078 472.188C276.838 472.188 279.19 475.464 278.966 480.448H266.926C267.29 483.36 269.39 485.264 272.274 485.264C274.094 485.264 275.69 484.592 276.838 483.388L278.042 484.648C276.642 486.188 274.57 487.084 272.106 487.084C267.766 487.084 264.77 484.032 264.77 479.636C264.77 475.24 267.794 472.216 272.078 472.188ZM266.926 478.712H277.006C276.866 475.856 274.962 474.008 272.078 474.008C269.25 474.008 267.234 475.856 266.926 478.712ZM2.968 507.4H5.208V527H2.968V507.4ZM18.7318 512.188C22.2598 512.188 24.3318 514.344 24.3318 517.928V527H22.1478V518.488C22.1478 515.856 20.5798 514.288 17.9758 514.288C15.0638 514.316 13.2718 516.248 13.0198 519.104V527H10.8358V512.272H13.0198V515.52C14.0558 513.28 16.0438 512.216 18.7318 512.188ZM40.5788 506.224H42.7628V527H40.5788V523.836C39.4868 525.908 37.4708 527.112 34.8388 527.112C30.6388 527.112 27.7268 524.004 27.7268 519.608C27.7268 515.212 30.6388 512.16 34.8108 512.16C37.4428 512.16 39.4868 513.364 40.5788 515.464V506.224ZM35.2588 525.236C38.3668 525.236 40.5788 522.912 40.5788 519.664C40.5788 516.416 38.3668 514.064 35.2588 514.064C32.1228 514.064 29.9108 516.416 29.9108 519.664C29.9108 522.912 32.1228 525.236 35.2588 525.236ZM49.2787 506.56C50.0907 506.56 50.7067 507.176 50.7067 508.044C50.7067 508.884 50.0907 509.528 49.2787 509.528C48.4667 509.528 47.8507 508.884 47.8507 508.044C47.8507 507.176 48.4667 506.56 49.2787 506.56ZM48.2147 512.272H50.3707V527H48.2147V512.272ZM66.9635 527H64.8355V524.704C63.6595 526.3 61.7835 527.084 59.4315 527.084C56.3795 527.084 54.4195 525.152 54.4195 522.632C54.4195 520.056 56.4635 518.432 59.9355 518.404H64.7795V517.48C64.7795 515.324 63.4355 514.008 60.8315 514.008C59.2075 514.008 57.6955 514.624 56.1555 515.716L55.2315 514.176C57.1355 512.916 58.7315 512.188 61.2515 512.188C64.8915 512.188 66.9075 514.12 66.9355 517.256L66.9635 527ZM59.8515 525.264C62.3435 525.264 64.2475 524.032 64.8075 521.932V520.14H60.2155C57.7515 520.14 56.4635 520.896 56.4635 522.548C56.4635 524.172 57.7795 525.264 59.8515 525.264ZM79.7357 512.188C83.2637 512.188 85.3357 514.344 85.3357 517.928V527H83.1517V518.488C83.1517 515.856 81.5837 514.288 78.9797 514.288C76.0677 514.316 74.2757 516.248 74.0237 519.104V527H71.8397V512.272H74.0237V515.52C75.0597 513.28 77.0477 512.216 79.7357 512.188ZM108.202 515.884C107.082 514.792 105.598 514.148 103.806 514.148C100.754 514.148 98.5703 516.388 98.5703 519.636C98.5703 522.912 100.754 525.152 103.806 525.152C105.738 525.152 107.334 524.48 108.37 523.248L109.63 524.536C108.314 526.132 106.27 527.084 103.722 527.084C99.4383 527.084 96.4143 524.032 96.4143 519.636C96.4143 515.268 99.4663 512.188 103.722 512.188C106.102 512.188 108.062 513 109.406 514.372L108.202 515.884ZM118.875 512.188C123.243 512.188 126.351 515.24 126.351 519.608C126.351 524.032 123.243 527.084 118.875 527.084C114.507 527.084 111.399 524.032 111.399 519.608C111.399 515.24 114.507 512.188 118.875 512.188ZM118.875 514.12C115.795 514.12 113.583 516.388 113.583 519.636C113.583 522.94 115.795 525.18 118.875 525.18C121.955 525.18 124.167 522.94 124.167 519.636C124.167 516.388 121.955 514.12 118.875 514.12ZM138.087 512.188C141.615 512.188 143.687 514.344 143.687 517.928V527H141.503V518.488C141.503 515.856 139.935 514.288 137.331 514.288C134.419 514.316 132.627 516.248 132.375 519.104V527H130.191V512.272H132.375V515.52C133.411 513.28 135.399 512.216 138.087 512.188ZM156.35 515.184C155.202 514.456 153.718 514.008 152.346 514.008C150.694 514.008 149.434 514.596 149.434 515.996C149.434 519.328 157.666 517.62 157.666 522.912C157.666 525.796 155.09 527.084 152.262 527.084C150.162 527.084 148.006 526.356 146.606 525.012L147.446 523.416C148.706 524.592 150.61 525.292 152.346 525.292C154.082 525.292 155.482 524.62 155.51 523.136C155.594 519.552 147.334 521.372 147.362 516.164C147.362 513.364 149.798 512.16 152.486 512.16C154.25 512.16 155.958 512.692 157.19 513.504L156.35 515.184ZM171.866 512.272H174.05V527H171.866V523.668C170.886 525.964 168.926 527.056 166.266 527.084C162.822 527.084 160.75 524.9 160.75 521.344V512.272H162.934V520.784C162.934 523.416 164.474 524.984 167.022 524.984C170.074 524.928 171.866 522.688 171.866 519.496V512.272ZM198.283 512.188C201.727 512.188 203.771 514.344 203.771 517.928V527H201.587V518.488C201.587 515.828 200.047 514.26 197.499 514.26C194.447 514.344 192.683 516.556 192.683 519.748V527H190.471V518.488C190.471 515.828 188.959 514.26 186.383 514.26C183.359 514.344 181.539 516.556 181.539 519.748V527H179.383V512.272H181.539V515.604C182.519 513.308 184.507 512.216 187.167 512.188C189.939 512.188 191.843 513.588 192.459 516.024C193.383 513.448 195.455 512.216 198.283 512.188ZM214.437 512.188C219.197 512.188 221.549 515.464 221.325 520.448H209.285C209.649 523.36 211.749 525.264 214.633 525.264C216.453 525.264 218.049 524.592 219.197 523.388L220.401 524.648C219.001 526.188 216.929 527.084 214.465 527.084C210.125 527.084 207.129 524.032 207.129 519.636C207.129 515.24 210.153 512.216 214.437 512.188ZM209.285 518.712H219.365C219.225 515.856 217.321 514.008 214.437 514.008C211.609 514.008 209.593 515.856 209.285 518.712ZM227.258 515.548C228.238 513.392 230.058 512.216 232.55 512.188V514.316C229.442 514.26 227.51 516.192 227.258 519.16V527H225.074V512.272H227.258V515.548ZM254.46 527H252.332V524.704C251.156 526.3 249.28 527.084 246.928 527.084C243.876 527.084 241.916 525.152 241.916 522.632C241.916 520.056 243.96 518.432 247.432 518.404H252.276V517.48C252.276 515.324 250.932 514.008 248.328 514.008C246.704 514.008 245.192 514.624 243.652 515.716L242.728 514.176C244.632 512.916 246.228 512.188 248.748 512.188C252.388 512.188 254.404 514.12 254.432 517.256L254.46 527ZM247.348 525.264C249.84 525.264 251.744 524.032 252.304 521.932V520.14H247.712C245.248 520.14 243.96 520.896 243.96 522.548C243.96 524.172 245.276 525.264 247.348 525.264ZM267.232 512.188C270.76 512.188 272.832 514.344 272.832 517.928V527H270.648V518.488C270.648 515.856 269.08 514.288 266.476 514.288C263.564 514.316 261.772 516.248 261.52 519.104V527H259.336V512.272H261.52V515.52C262.556 513.28 264.544 512.216 267.232 512.188ZM289.079 506.224H291.263V527H289.079V523.836C287.987 525.908 285.971 527.112 283.339 527.112C279.139 527.112 276.227 524.004 276.227 519.608C276.227 515.212 279.139 512.16 283.311 512.16C285.943 512.16 287.987 513.364 289.079 515.464V506.224ZM283.759 525.236C286.867 525.236 289.079 522.912 289.079 519.664C289.079 516.416 286.867 514.064 283.759 514.064C280.623 514.064 278.411 516.416 278.411 519.664C278.411 522.912 280.623 525.236 283.759 525.236ZM310.39 512.188C314.758 512.188 317.866 515.24 317.866 519.608C317.866 524.032 314.758 527.084 310.39 527.084C306.022 527.084 302.914 524.032 302.914 519.608C302.914 515.24 306.022 512.188 310.39 512.188ZM310.39 514.12C307.31 514.12 305.098 516.388 305.098 519.636C305.098 522.94 307.31 525.18 310.39 525.18C313.47 525.18 315.682 522.94 315.682 519.636C315.682 516.388 313.47 514.12 310.39 514.12ZM332.319 512.272H334.503V527H332.319V523.668C331.339 525.964 329.379 527.056 326.719 527.084C323.275 527.084 321.203 524.9 321.203 521.344V512.272H323.387V520.784C323.387 523.416 324.927 524.984 327.475 524.984C330.527 524.928 332.319 522.688 332.319 519.496V512.272ZM342.02 515.548C343 513.392 344.82 512.216 347.312 512.188V514.316C344.204 514.26 342.272 516.192 342.02 519.16V527H339.836V512.272H342.02V515.548ZM13.272 552.272H15.456V567H13.272V563.668C12.292 565.964 10.332 567.056 7.672 567.084C4.228 567.084 2.156 564.9 2.156 561.344V552.272H4.34V560.784C4.34 563.416 5.88 564.984 8.428 564.984C11.48 564.928 13.272 562.688 13.272 559.496V552.272ZM28.6849 552.188C32.2129 552.188 34.2849 554.344 34.2849 557.928V567H32.1009V558.488C32.1009 555.856 30.5329 554.288 27.9289 554.288C25.0169 554.316 23.2249 556.248 22.9729 559.104V567H20.7889V552.272H22.9729V555.52C24.0089 553.28 25.9969 552.216 28.6849 552.188ZM40.2279 546.56C41.0399 546.56 41.6559 547.176 41.6559 548.044C41.6559 548.884 41.0399 549.528 40.2279 549.528C39.4159 549.528 38.7999 548.884 38.7999 548.044C38.7999 547.176 39.4159 546.56 40.2279 546.56ZM39.1639 552.272H41.3199V567H39.1639V552.272ZM57.9968 552.272H60.1808V572.432H57.9968V563.836C56.9048 565.908 54.8888 567.112 52.2568 567.112C48.0568 567.112 45.1448 564.004 45.1448 559.608C45.1448 555.212 48.0568 552.16 52.2288 552.16C54.8608 552.16 56.9048 553.364 57.9968 555.464V552.272ZM52.6768 565.236C55.7848 565.236 57.9968 562.912 57.9968 559.664C57.9968 556.416 55.7848 554.064 52.6768 554.064C49.5408 554.064 47.3288 556.416 47.3288 559.664C47.3288 562.912 49.5408 565.236 52.6768 565.236ZM76.2447 552.272H78.4287V567H76.2447V563.668C75.2647 565.964 73.3047 567.056 70.6447 567.084C67.2007 567.084 65.1287 564.9 65.1287 561.344V552.272H67.3127V560.784C67.3127 563.416 68.8527 564.984 71.4007 564.984C74.4527 564.928 76.2447 562.688 76.2447 559.496V552.272ZM89.5856 552.188C94.3456 552.188 96.6976 555.464 96.4736 560.448H84.4336C84.7976 563.36 86.8976 565.264 89.7816 565.264C91.6016 565.264 93.1976 564.592 94.3456 563.388L95.5496 564.648C94.1496 566.188 92.0776 567.084 89.6136 567.084C85.2736 567.084 82.2776 564.032 82.2776 559.636C82.2776 555.24 85.3016 552.216 89.5856 552.188ZM84.4336 558.712H94.5136C94.3736 555.856 92.4696 554.008 89.5856 554.008C86.7576 554.008 84.7416 555.856 84.4336 558.712ZM115.914 552.188C120.086 552.188 122.998 555.268 122.998 559.664C122.998 564.032 120.142 567.084 115.97 567.084C113.338 567.084 111.322 565.88 110.23 563.836V567H108.046V546.224H110.23V555.436C111.322 553.392 113.338 552.188 115.914 552.188ZM115.522 565.152C118.602 565.152 120.786 562.828 120.786 559.608C120.786 556.416 118.602 554.064 115.522 554.064C112.414 554.064 110.23 556.388 110.23 559.608C110.23 562.856 112.414 565.152 115.522 565.152ZM132.82 552.188C137.188 552.188 140.296 555.24 140.296 559.608C140.296 564.032 137.188 567.084 132.82 567.084C128.452 567.084 125.344 564.032 125.344 559.608C125.344 555.24 128.452 552.188 132.82 552.188ZM132.82 554.12C129.74 554.12 127.528 556.388 127.528 559.636C127.528 562.94 129.74 565.18 132.82 565.18C135.9 565.18 138.112 562.94 138.112 559.636C138.112 556.388 135.9 554.12 132.82 554.12ZM155.505 546.224H157.689V567H155.505V563.836C154.413 565.908 152.397 567.112 149.765 567.112C145.565 567.112 142.653 564.004 142.653 559.608C142.653 555.212 145.565 552.16 149.737 552.16C152.369 552.16 154.413 553.364 155.505 555.464V546.224ZM150.185 565.236C153.293 565.236 155.505 562.912 155.505 559.664C155.505 556.416 153.293 554.064 150.185 554.064C147.049 554.064 144.837 556.416 144.837 559.664C144.837 562.912 147.049 565.236 150.185 565.236ZM167.844 569.1C166.92 571.34 165.38 572.516 163.42 572.516C162.188 572.516 161.208 572.18 160.312 571.452L161.236 569.716C161.908 570.192 162.58 570.416 163.308 570.416C164.456 570.416 165.408 569.688 165.996 568.288L166.612 566.888L160.508 552.272H162.804L167.704 564.536L172.38 552.272H174.62L167.844 569.1ZM191.879 564.312L192.495 565.992C191.459 566.692 190.339 567.084 189.163 567.084C187.007 567.112 185.411 565.824 185.411 562.912V554.428H183.283V552.72H185.411V548.856H187.567V552.72H192.243V554.428H187.567V562.548C187.567 564.34 188.267 565.068 189.527 565.068C190.283 565.04 191.067 564.788 191.879 564.312ZM200.493 569.1C199.569 571.34 198.029 572.516 196.069 572.516C194.837 572.516 193.857 572.18 192.961 571.452L193.885 569.716C194.557 570.192 195.229 570.416 195.957 570.416C197.105 570.416 198.057 569.688 198.645 568.288L199.261 566.888L193.157 552.272H195.453L200.353 564.536L205.029 552.272H207.269L200.493 569.1ZM217.852 552.188C222.024 552.188 224.936 555.268 224.936 559.664C224.936 564.032 222.08 567.084 217.908 567.084C215.276 567.084 213.26 565.88 212.168 563.836V572.432H209.984V552.272H212.168V555.436C213.26 553.392 215.276 552.188 217.852 552.188ZM217.46 565.152C220.54 565.152 222.724 562.828 222.724 559.608C222.724 556.416 220.54 554.064 217.46 554.064C214.352 554.064 212.168 556.388 212.168 559.608C212.168 562.856 214.352 565.152 217.46 565.152ZM234.589 552.188C239.349 552.188 241.701 555.464 241.477 560.448H229.437C229.801 563.36 231.901 565.264 234.785 565.264C236.605 565.264 238.201 564.592 239.349 563.388L240.553 564.648C239.153 566.188 237.081 567.084 234.617 567.084C230.277 567.084 227.281 564.032 227.281 559.636C227.281 555.24 230.305 552.216 234.589 552.188ZM229.437 558.712H239.517C239.377 555.856 237.473 554.008 234.589 554.008C231.761 554.008 229.745 555.856 229.437 558.712ZM253.01 555.184C251.862 554.456 250.378 554.008 249.006 554.008C247.354 554.008 246.094 554.596 246.094 555.996C246.094 559.328 254.326 557.62 254.326 562.912C254.326 565.796 251.75 567.084 248.922 567.084C246.822 567.084 244.666 566.356 243.266 565.012L244.106 563.416C245.366 564.592 247.27 565.292 249.006 565.292C250.742 565.292 252.142 564.62 252.17 563.136C252.254 559.552 243.994 561.372 244.022 556.164C244.022 553.364 246.458 552.16 249.146 552.16C250.91 552.16 252.618 552.692 253.85 553.504L253.01 555.184ZM258.054 564.368C258.81 564.368 259.398 564.984 259.398 565.796C259.398 566.608 258.81 567.224 258.054 567.224C257.27 567.224 256.682 566.608 256.682 565.796C256.682 564.984 257.27 564.368 258.054 564.368Z" fill="#333333"/>
<path d="M9.888 3.472C15.296 3.472 18.304 7.504 18.304 14.768C18.304 22.064 15.296 26.096 9.888 26.096C4.448 26.096 1.44 22.064 1.44 14.768C1.44 7.504 4.448 3.472 9.888 3.472ZM9.888 6.416C6.752 6.416 5.184 9.072 5.184 14.768C5.184 20.464 6.752 23.152 9.888 23.152C12.992 23.152 14.56 20.464 14.56 14.768C14.56 9.072 12.992 6.416 9.888 6.416ZM29.958 14.384C31.654 12.688 32.806 10.896 32.806 9.616C32.806 7.792 31.334 6.736 28.87 6.736C26.854 6.736 24.486 7.792 22.566 9.52L21.03 6.608C23.526 4.624 26.438 3.408 29.382 3.408C33.766 3.408 36.742 5.616 36.742 9.072C36.742 11.312 34.982 13.84 32.518 16.4L26.374 22.608H37.83V26H21.414V23.216L29.958 14.384Z" fill="#FA8334"/>
<path d="M67.888 29.472C73.296 29.472 76.304 33.504 76.304 40.768C76.304 48.064 73.296 52.096 67.888 52.096C62.448 52.096 59.44 48.064 59.44 40.768C59.44 33.504 62.448 29.472 67.888 29.472ZM67.888 32.416C64.752 32.416 63.184 35.072 63.184 40.768C63.184 46.464 64.752 49.152 67.888 49.152C70.992 49.152 72.56 46.464 72.56 40.768C72.56 35.072 70.992 32.416 67.888 32.416ZM86.678 29.568H90.326L82.902 43.104H89.782L89.75 37.824H93.27L93.302 43.104H96.598V46.496H93.27V52H89.75V46.496H78.838V43.68L86.678 29.568Z" fill="#FA8334"/>
<path d="M49.472 15.888H52.608L42.464 45.744H39.328L49.472 15.888Z" fill="#FA8334"/>
</svg>
