<svg width="484" height="533" viewBox="0 0 484 533" fill="none" xmlns="http://www.w3.org/2000/svg">
<path d="M61.49 197H38.958L31.734 181.348H24.252V197H4.3V136.714H33.454C49.794 136.714 59.168 144.54 59.168 158.3C59.168 167.072 55.814 173.608 49.622 177.392L61.49 197ZM24.252 151.85V166.212H33.454C37.754 166.212 40.248 163.546 40.248 158.902C40.248 154.43 37.754 151.85 33.454 151.85H24.252ZM88.7184 149.27C105.144 149.27 114.776 160.45 113.744 177.822H83.1284C84.4184 181.52 87.1704 183.412 90.9544 183.412C94.2224 183.412 97.5764 181.95 100.5 179.198L110.562 189.088C105.574 194.592 98.3504 197.688 89.2344 197.688C73.1524 197.688 63.6064 188.228 63.6064 173.694C63.6064 158.816 73.5824 149.27 88.7184 149.27ZM94.3944 168.878C94.6524 165.008 92.2444 162.17 88.8904 162.17C85.5364 162.17 83.4724 164.922 82.6984 168.878H94.3944ZM129.591 126.738C135.353 126.738 139.395 130.78 139.395 136.542C139.395 142.304 135.353 146.346 129.591 146.346C123.829 146.346 119.787 142.304 119.787 136.542C119.787 130.78 123.829 126.738 129.591 126.738ZM119.873 149.958H139.223V197H119.873V149.958ZM212.663 149.098C222.381 149.098 229.261 156.15 229.261 166.986V197H209.911V172.576C209.911 168.62 207.761 166.126 204.579 166.126C200.967 166.126 198.645 169.136 198.645 173.694V197H179.295V172.576C179.295 168.62 177.145 166.126 173.963 166.126C170.351 166.126 168.029 169.136 168.029 173.694V197H148.679V149.958H168.029V156.58C171.211 151.85 175.941 149.098 182.047 149.098C189.185 149.098 194.775 152.882 197.269 159.16C200.279 152.796 205.611 149.098 212.663 149.098ZM260.327 149.098C273.915 149.098 281.999 155.462 281.999 166.556V197H262.993V191.926C260.241 195.71 255.769 197.86 249.749 197.86C239.773 197.86 234.011 192.012 234.011 183.068C234.011 173.78 240.289 168.878 252.243 168.706H262.993C262.907 165.438 260.413 163.546 255.683 163.546C252.157 163.546 246.739 164.578 241.407 166.556L237.107 153.656C245.105 150.732 253.361 149.098 260.327 149.098ZM256.457 185.562C258.951 185.562 261.445 184.272 262.993 181.95V177.65H256.285C253.619 177.65 252.157 178.94 252.157 181.434C252.157 184.014 253.705 185.562 256.457 185.562ZM317.885 149.958H337.149V193.13C337.149 206.202 326.399 214.544 310.833 214.544C301.803 214.544 293.547 211.706 288.645 208.438L294.751 195.452C298.879 198.032 304.555 199.58 309.113 199.58C314.789 199.58 317.885 197.258 317.885 193.646V189.174C315.047 192.356 311.005 194.162 306.103 194.162C295.009 194.162 286.753 185.304 286.753 171.458C286.753 157.956 294.665 149.27 305.759 149.27C310.833 149.27 314.961 151.076 317.885 154.344V149.958ZM311.349 180.402C315.305 180.402 317.885 177.048 317.885 171.974C317.885 166.814 315.305 163.46 311.349 163.46C307.393 163.46 304.813 166.814 304.813 171.974C304.813 177.048 307.393 180.402 311.349 180.402ZM356.18 126.738C361.942 126.738 365.984 130.78 365.984 136.542C365.984 142.304 361.942 146.346 356.18 146.346C350.418 146.346 346.376 142.304 346.376 136.542C346.376 130.78 350.418 126.738 356.18 126.738ZM346.462 149.958H365.812V197H346.462V149.958ZM408.895 149.098C418.785 149.098 425.751 156.15 425.751 166.986V197H406.401V172.576C406.401 168.62 404.165 166.126 400.811 166.126C397.027 166.126 394.619 169.136 394.619 173.694V197H375.269V149.958H394.619V156.666C397.801 151.85 402.703 149.098 408.895 149.098ZM455.562 149.27C471.988 149.27 481.62 160.45 480.588 177.822H449.972C451.262 181.52 454.014 183.412 457.798 183.412C461.066 183.412 464.42 181.95 467.344 179.198L477.406 189.088C472.418 194.592 465.194 197.688 456.078 197.688C439.996 197.688 430.45 188.228 430.45 173.694C430.45 158.816 440.426 149.27 455.562 149.27ZM461.238 168.878C461.496 165.008 459.088 162.17 455.734 162.17C452.38 162.17 450.316 164.922 449.542 168.878H461.238ZM34.83 221.714C49.364 221.714 58.738 227.734 58.738 236.936C58.738 242.87 54.782 247.944 48.59 249.836C55.814 251.47 60.544 257.49 60.544 265.058C60.544 275.378 50.998 282 36.292 282H4.3V221.714H34.83ZM33.712 244.934C36.464 244.934 38.27 243.214 38.27 240.548C38.27 237.968 36.464 236.334 33.712 236.334H24.166V244.934H33.712ZM33.712 267.38C37.41 267.38 39.818 265.488 39.818 262.564C39.818 259.898 37.41 258.178 33.712 258.178H24.166V267.38H33.712ZM86.3124 241.838C89.5804 236.936 94.5684 234.098 100.674 234.098V251.556C91.9884 250.266 86.3124 253.362 86.3124 259.554V282H66.9624V234.958H86.3124V241.838ZM128.303 234.098C141.891 234.098 149.975 240.462 149.975 251.556V282H130.969V276.926C128.217 280.71 123.745 282.86 117.725 282.86C107.749 282.86 101.987 277.012 101.987 268.068C101.987 258.78 108.265 253.878 120.219 253.706H130.969C130.883 250.438 128.389 248.546 123.659 248.546C120.133 248.546 114.715 249.578 109.383 251.556L105.083 238.656C113.081 235.732 121.337 234.098 128.303 234.098ZM124.433 270.562C126.927 270.562 129.421 269.272 130.969 266.95V262.65H124.261C121.595 262.65 120.133 263.94 120.133 266.434C120.133 269.014 121.681 270.562 124.433 270.562ZM191.795 234.098C201.685 234.098 208.651 241.15 208.651 251.986V282H189.301V257.576C189.301 253.62 187.065 251.126 183.711 251.126C179.927 251.126 177.519 254.136 177.519 258.694V282H158.169V234.958H177.519V241.666C180.701 236.85 185.603 234.098 191.795 234.098ZM246.891 218.188H266.241V282H246.891V277.27C243.881 280.796 239.753 282.688 234.937 282.688C221.865 282.688 213.351 273.056 213.351 258.178C213.351 243.644 221.607 234.27 234.421 234.27C239.495 234.27 243.795 236.248 246.891 239.774V218.188ZM239.925 267.81C244.139 267.81 246.891 264.198 246.891 258.694C246.891 253.19 244.139 249.578 239.925 249.578C235.625 249.578 232.873 253.19 232.873 258.694C232.873 264.198 235.625 267.81 239.925 267.81ZM310.912 251.986C303.946 248.546 298.614 246.826 295.002 246.826C293.368 246.826 292.336 247.428 292.336 248.374C292.336 252.76 316.76 251.04 316.76 266.864C316.76 276.582 308.418 282.86 295.432 282.86C286.746 282.86 279.006 280.624 272.47 276.152L278.318 264.112C284.596 267.982 290.444 269.96 295.69 269.96C297.496 269.96 298.614 269.444 298.614 268.584C298.614 264.456 274.706 266.262 274.706 250.352C274.706 240.462 282.876 234.098 295.432 234.098C302.914 234.098 310.224 236.076 317.276 240.032L310.912 251.986Z" fill="#293239"/>
<path d="M11.396 387.344C17.108 387.344 21.644 391.684 21.644 397.2C21.644 402.716 17.108 407.084 11.396 407.084C5.656 407.084 1.12 402.716 1.12 397.2C1.12 391.684 5.656 387.344 11.396 387.344ZM11.396 389.416C7.028 389.416 3.388 392.86 3.388 397.2C3.388 401.54 7.028 405.04 11.396 405.04C15.764 405.04 19.348 401.54 19.348 397.2C19.348 392.86 15.764 389.416 11.396 389.416ZM36.0493 392.272H38.2333V407H36.0493V403.668C35.0693 405.964 33.1093 407.056 30.4493 407.084C27.0053 407.084 24.9333 404.9 24.9333 401.344V392.272H27.1173V400.784C27.1173 403.416 28.6573 404.984 31.2053 404.984C34.2573 404.928 36.0493 402.688 36.0493 399.496V392.272ZM45.7503 395.548C46.7303 393.392 48.5503 392.216 51.0423 392.188V394.316C47.9343 394.26 46.0023 396.192 45.7503 399.16V407H43.5663V392.272H45.7503V395.548ZM70.2358 387.4C74.1838 387.4 76.5638 389.22 76.5638 392.3C76.5638 394.596 75.2478 396.248 72.9518 396.724C75.7798 397.144 77.4318 398.992 77.4318 401.68C77.4318 405.012 74.7998 407 70.3758 407H61.9758V387.4H70.2358ZM70.1238 395.884C72.7558 395.884 74.2958 394.708 74.2958 392.636C74.2958 390.62 72.7558 389.472 70.1238 389.472H64.2158V395.884H70.1238ZM70.1238 404.928C73.3158 404.928 75.1638 403.668 75.1638 401.4C75.1638 399.216 73.3158 397.956 70.1238 397.956H64.2158V404.928H70.1238ZM83.8948 395.548C84.8748 393.392 86.6948 392.216 89.1868 392.188V394.316C86.0788 394.26 84.1468 396.192 83.8948 399.16V407H81.7108V392.272H83.8948V395.548ZM102.702 407H100.574V404.704C99.3978 406.3 97.5218 407.084 95.1698 407.084C92.1178 407.084 90.1578 405.152 90.1578 402.632C90.1578 400.056 92.2018 398.432 95.6738 398.404H100.518V397.48C100.518 395.324 99.1738 394.008 96.5698 394.008C94.9458 394.008 93.4338 394.624 91.8938 395.716L90.9698 394.176C92.8738 392.916 94.4698 392.188 96.9898 392.188C100.63 392.188 102.646 394.12 102.674 397.256L102.702 407ZM95.5898 405.264C98.0818 405.264 99.9858 404.032 100.546 401.932V400.14H95.9538C93.4898 400.14 92.2018 400.896 92.2018 402.548C92.2018 404.172 93.5178 405.264 95.5898 405.264ZM115.474 392.188C119.002 392.188 121.074 394.344 121.074 397.928V407H118.89V398.488C118.89 395.856 117.322 394.288 114.718 394.288C111.806 394.316 110.014 396.248 109.762 399.104V407H107.578V392.272H109.762V395.52C110.798 393.28 112.786 392.216 115.474 392.188ZM137.321 386.224H139.505V407H137.321V403.836C136.229 405.908 134.213 407.112 131.581 407.112C127.381 407.112 124.469 404.004 124.469 399.608C124.469 395.212 127.381 392.16 131.553 392.16C134.185 392.16 136.229 393.364 137.321 395.464V386.224ZM132.001 405.236C135.109 405.236 137.321 402.912 137.321 399.664C137.321 396.416 135.109 394.064 132.001 394.064C128.865 394.064 126.653 396.416 126.653 399.664C126.653 402.912 128.865 405.236 132.001 405.236ZM152.741 395.184C151.593 394.456 150.109 394.008 148.737 394.008C147.085 394.008 145.825 394.596 145.825 395.996C145.825 399.328 154.057 397.62 154.057 402.912C154.057 405.796 151.481 407.084 148.653 407.084C146.553 407.084 144.397 406.356 142.997 405.012L143.837 403.416C145.097 404.592 147.001 405.292 148.737 405.292C150.473 405.292 151.873 404.62 151.901 403.136C151.985 399.552 143.725 401.372 143.753 396.164C143.753 393.364 146.189 392.16 148.877 392.16C150.641 392.16 152.349 392.692 153.581 393.504L152.741 395.184ZM175.632 395.884C174.512 394.792 173.028 394.148 171.236 394.148C168.184 394.148 166 396.388 166 399.636C166 402.912 168.184 405.152 171.236 405.152C173.168 405.152 174.764 404.48 175.8 403.248L177.06 404.536C175.744 406.132 173.7 407.084 171.152 407.084C166.868 407.084 163.844 404.032 163.844 399.636C163.844 395.268 166.896 392.188 171.152 392.188C173.532 392.188 175.492 393 176.836 394.372L175.632 395.884ZM191.635 392.272H193.819V407H191.635V403.668C190.655 405.964 188.695 407.056 186.035 407.084C182.591 407.084 180.519 404.9 180.519 401.344V392.272H182.703V400.784C182.703 403.416 184.243 404.984 186.791 404.984C189.843 404.928 191.635 402.688 191.635 399.496V392.272ZM206.152 404.312L206.768 405.992C205.732 406.692 204.612 407.084 203.436 407.084C201.28 407.112 199.684 405.824 199.684 402.912V394.428H197.556V392.72H199.684V388.856H201.84V392.72H206.516V394.428H201.84V402.548C201.84 404.34 202.54 405.068 203.8 405.068C204.556 405.04 205.34 404.788 206.152 404.312ZM229.03 407H226.902V404.704C225.726 406.3 223.85 407.084 221.498 407.084C218.446 407.084 216.486 405.152 216.486 402.632C216.486 400.056 218.53 398.432 222.002 398.404H226.846V397.48C226.846 395.324 225.502 394.008 222.898 394.008C221.274 394.008 219.762 394.624 218.222 395.716L217.298 394.176C219.202 392.916 220.798 392.188 223.318 392.188C226.958 392.188 228.974 394.12 229.002 397.256L229.03 407ZM221.918 405.264C224.41 405.264 226.314 404.032 226.874 401.932V400.14H222.282C219.818 400.14 218.53 400.896 218.53 402.548C218.53 404.172 219.846 405.264 221.918 405.264ZM244.21 395.884C243.09 394.792 241.606 394.148 239.814 394.148C236.762 394.148 234.578 396.388 234.578 399.636C234.578 402.912 236.762 405.152 239.814 405.152C241.746 405.152 243.342 404.48 244.378 403.248L245.638 404.536C244.322 406.132 242.278 407.084 239.73 407.084C235.446 407.084 232.422 404.032 232.422 399.636C232.422 395.268 235.474 392.188 239.73 392.188C242.11 392.188 244.07 393 245.414 394.372L244.21 395.884ZM251.785 395.548C252.765 393.392 254.585 392.216 257.077 392.188V394.316C253.969 394.26 252.037 396.192 251.785 399.16V407H249.601V392.272H251.785V395.548ZM266.011 392.188C270.379 392.188 273.487 395.24 273.487 399.608C273.487 404.032 270.379 407.084 266.011 407.084C261.643 407.084 258.535 404.032 258.535 399.608C258.535 395.24 261.643 392.188 266.011 392.188ZM266.011 394.12C262.931 394.12 260.719 396.388 260.719 399.636C260.719 402.94 262.931 405.18 266.011 405.18C269.091 405.18 271.303 402.94 271.303 399.636C271.303 396.388 269.091 394.12 266.011 394.12ZM285.112 395.184C283.964 394.456 282.48 394.008 281.108 394.008C279.456 394.008 278.196 394.596 278.196 395.996C278.196 399.328 286.428 397.62 286.428 402.912C286.428 405.796 283.852 407.084 281.024 407.084C278.924 407.084 276.768 406.356 275.368 405.012L276.208 403.416C277.468 404.592 279.372 405.292 281.108 405.292C282.844 405.292 284.244 404.62 284.272 403.136C284.356 399.552 276.096 401.372 276.124 396.164C276.124 393.364 278.56 392.16 281.248 392.16C283.012 392.16 284.72 392.692 285.952 393.504L285.112 395.184ZM297.799 395.184C296.651 394.456 295.167 394.008 293.795 394.008C292.143 394.008 290.883 394.596 290.883 395.996C290.883 399.328 299.115 397.62 299.115 402.912C299.115 405.796 296.539 407.084 293.711 407.084C291.611 407.084 289.455 406.356 288.055 405.012L288.895 403.416C290.155 404.592 292.059 405.292 293.795 405.292C295.531 405.292 296.931 404.62 296.959 403.136C297.043 399.552 288.783 401.372 288.811 396.164C288.811 393.364 291.247 392.16 293.935 392.16C295.699 392.16 297.407 392.692 298.639 393.504L297.799 395.184ZM12.964 435.884C11.844 434.792 10.36 434.148 8.568 434.148C5.516 434.148 3.332 436.388 3.332 439.636C3.332 442.912 5.516 445.152 8.568 445.152C10.5 445.152 12.096 444.48 13.132 443.248L14.392 444.536C13.076 446.132 11.032 447.084 8.484 447.084C4.2 447.084 1.176 444.032 1.176 439.636C1.176 435.268 4.228 432.188 8.484 432.188C10.864 432.188 12.824 433 14.168 434.372L12.964 435.884ZM23.6364 432.188C28.0044 432.188 31.1124 435.24 31.1124 439.608C31.1124 444.032 28.0044 447.084 23.6364 447.084C19.2684 447.084 16.1604 444.032 16.1604 439.608C16.1604 435.24 19.2684 432.188 23.6364 432.188ZM23.6364 434.12C20.5564 434.12 18.3444 436.388 18.3444 439.636C18.3444 442.94 20.5564 445.18 23.6364 445.18C26.7164 445.18 28.9284 442.94 28.9284 439.636C28.9284 436.388 26.7164 434.12 23.6364 434.12ZM42.849 432.188C46.377 432.188 48.449 434.344 48.449 437.928V447H46.265V438.488C46.265 435.856 44.697 434.288 42.093 434.288C39.181 434.316 37.389 436.248 37.137 439.104V447H34.953V432.272H37.137V435.52C38.173 433.28 40.161 432.216 42.849 432.188ZM50.1511 432.272H52.4751L57.1791 444.788L61.8551 432.272H64.0671L58.2711 447H56.0031L50.1511 432.272ZM72.0035 432.188C76.7635 432.188 79.1155 435.464 78.8915 440.448H66.8515C67.2155 443.36 69.3155 445.264 72.1995 445.264C74.0195 445.264 75.6155 444.592 76.7635 443.388L77.9675 444.648C76.5675 446.188 74.4955 447.084 72.0315 447.084C67.6915 447.084 64.6955 444.032 64.6955 439.636C64.6955 435.24 67.7195 432.216 72.0035 432.188ZM66.8515 438.712H76.9315C76.7915 435.856 74.8875 434.008 72.0035 434.008C69.1755 434.008 67.1595 435.856 66.8515 438.712ZM90.5365 432.188C94.0645 432.188 96.1365 434.344 96.1365 437.928V447H93.9525V438.488C93.9525 435.856 92.3845 434.288 89.7805 434.288C86.8685 434.316 85.0765 436.248 84.8245 439.104V447H82.6405V432.272H84.8245V435.52C85.8605 433.28 87.8485 432.216 90.5365 432.188ZM108.015 444.312L108.631 445.992C107.595 446.692 106.475 447.084 105.299 447.084C103.143 447.112 101.547 445.824 101.547 442.912V434.428H99.4195V432.72H101.547V428.856H103.703V432.72H108.379V434.428H103.703V442.548C103.703 444.34 104.403 445.068 105.663 445.068C106.419 445.04 107.203 444.788 108.015 444.312ZM112.99 426.56C113.802 426.56 114.418 427.176 114.418 428.044C114.418 428.884 113.802 429.528 112.99 429.528C112.178 429.528 111.562 428.884 111.562 428.044C111.562 427.176 112.178 426.56 112.99 426.56ZM111.926 432.272H114.082V447H111.926V432.272ZM125.382 432.188C129.75 432.188 132.858 435.24 132.858 439.608C132.858 444.032 129.75 447.084 125.382 447.084C121.014 447.084 117.906 444.032 117.906 439.608C117.906 435.24 121.014 432.188 125.382 432.188ZM125.382 434.12C122.302 434.12 120.09 436.388 120.09 439.636C120.09 442.94 122.302 445.18 125.382 445.18C128.462 445.18 130.674 442.94 130.674 439.636C130.674 436.388 128.462 434.12 125.382 434.12ZM144.595 432.188C148.123 432.188 150.195 434.344 150.195 437.928V447H148.011V438.488C148.011 435.856 146.443 434.288 143.839 434.288C140.927 434.316 139.135 436.248 138.883 439.104V447H136.699V432.272H138.883V435.52C139.919 433.28 141.907 432.216 144.595 432.188ZM166.358 447H164.23V444.704C163.054 446.3 161.178 447.084 158.826 447.084C155.774 447.084 153.814 445.152 153.814 442.632C153.814 440.056 155.858 438.432 159.33 438.404H164.174V437.48C164.174 435.324 162.83 434.008 160.226 434.008C158.602 434.008 157.09 434.624 155.55 435.716L154.626 434.176C156.53 432.916 158.126 432.188 160.646 432.188C164.286 432.188 166.302 434.12 166.33 437.256L166.358 447ZM159.246 445.264C161.738 445.264 163.642 444.032 164.202 441.932V440.14H159.61C157.146 440.14 155.858 440.896 155.858 442.548C155.858 444.172 157.174 445.264 159.246 445.264ZM171.374 426.224H173.558V447H171.374V426.224ZM194.495 435.184C193.347 434.456 191.863 434.008 190.491 434.008C188.839 434.008 187.579 434.596 187.579 435.996C187.579 439.328 195.811 437.62 195.811 442.912C195.811 445.796 193.235 447.084 190.407 447.084C188.307 447.084 186.151 446.356 184.751 445.012L185.591 443.416C186.851 444.592 188.755 445.292 190.491 445.292C192.227 445.292 193.627 444.62 193.655 443.136C193.739 439.552 185.479 441.372 185.507 436.164C185.507 433.364 187.943 432.16 190.631 432.16C192.395 432.16 194.103 432.692 195.335 433.504L194.495 435.184ZM205.222 432.188C209.982 432.188 212.334 435.464 212.11 440.448H200.07C200.434 443.36 202.534 445.264 205.418 445.264C207.238 445.264 208.834 444.592 209.982 443.388L211.186 444.648C209.786 446.188 207.714 447.084 205.25 447.084C200.91 447.084 197.914 444.032 197.914 439.636C197.914 435.24 200.938 432.216 205.222 432.188ZM200.07 438.712H210.15C210.01 435.856 208.106 434.008 205.222 434.008C202.394 434.008 200.378 435.856 200.07 438.712ZM226.527 432.272H228.711V445.46C228.711 449.772 225.771 452.488 221.291 452.488C218.967 452.46 217.035 451.704 215.243 450.332L216.251 448.736C217.707 449.94 219.247 450.584 221.207 450.612C224.427 450.612 226.527 448.624 226.527 445.516V443.276C225.491 445.236 223.587 446.356 221.095 446.356C217.119 446.356 214.375 443.416 214.375 439.244C214.375 435.1 217.091 432.216 221.039 432.188C223.559 432.16 225.463 433.308 226.527 435.268V432.272ZM221.487 444.564C224.427 444.564 226.527 442.352 226.527 439.3C226.527 436.22 224.427 434.008 221.487 434.008C218.519 434.008 216.447 436.22 216.419 439.3C216.447 442.352 218.519 444.564 221.487 444.564ZM252.56 432.188C256.004 432.188 258.048 434.344 258.048 437.928V447H255.864V438.488C255.864 435.828 254.324 434.26 251.776 434.26C248.724 434.344 246.96 436.556 246.96 439.748V447H244.748V438.488C244.748 435.828 243.236 434.26 240.66 434.26C237.636 434.344 235.816 436.556 235.816 439.748V447H233.66V432.272H235.816V435.604C236.796 433.308 238.784 432.216 241.444 432.188C244.216 432.188 246.12 433.588 246.736 436.024C247.66 433.448 249.732 432.216 252.56 432.188ZM268.714 432.188C273.474 432.188 275.826 435.464 275.602 440.448H263.562C263.926 443.36 266.026 445.264 268.91 445.264C270.73 445.264 272.326 444.592 273.474 443.388L274.678 444.648C273.278 446.188 271.206 447.084 268.742 447.084C264.402 447.084 261.406 444.032 261.406 439.636C261.406 435.24 264.43 432.216 268.714 432.188ZM263.562 438.712H273.642C273.502 435.856 271.598 434.008 268.714 434.008C265.886 434.008 263.87 435.856 263.562 438.712ZM287.247 432.188C290.775 432.188 292.847 434.344 292.847 437.928V447H290.663V438.488C290.663 435.856 289.095 434.288 286.491 434.288C283.579 434.316 281.787 436.248 281.535 439.104V447H279.351V432.272H281.535V435.52C282.571 433.28 284.559 432.216 287.247 432.188ZM304.726 444.312L305.342 445.992C304.306 446.692 303.186 447.084 302.01 447.084C299.854 447.112 298.258 445.824 298.258 442.912V434.428H296.13V432.72H298.258V428.856H300.414V432.72H305.09V434.428H300.414V442.548C300.414 444.34 301.114 445.068 302.374 445.068C303.13 445.04 303.914 444.788 304.726 444.312ZM316.421 435.184C315.273 434.456 313.789 434.008 312.417 434.008C310.765 434.008 309.505 434.596 309.505 435.996C309.505 439.328 317.737 437.62 317.737 442.912C317.737 445.796 315.161 447.084 312.333 447.084C310.233 447.084 308.077 446.356 306.677 445.012L307.517 443.416C308.777 444.592 310.681 445.292 312.417 445.292C314.153 445.292 315.553 444.62 315.581 443.136C315.665 439.552 307.405 441.372 307.433 436.164C307.433 433.364 309.869 432.16 312.557 432.16C314.321 432.16 316.029 432.692 317.261 433.504L316.421 435.184ZM340.292 447H338.164V444.704C336.988 446.3 335.112 447.084 332.76 447.084C329.708 447.084 327.748 445.152 327.748 442.632C327.748 440.056 329.792 438.432 333.264 438.404H338.108V437.48C338.108 435.324 336.764 434.008 334.16 434.008C332.536 434.008 331.024 434.624 329.484 435.716L328.56 434.176C330.464 432.916 332.06 432.188 334.58 432.188C338.22 432.188 340.236 434.12 340.264 437.256L340.292 447ZM333.18 445.264C335.672 445.264 337.576 444.032 338.136 441.932V440.14H333.544C331.08 440.14 329.792 440.896 329.792 442.548C329.792 444.172 331.108 445.264 333.18 445.264ZM353.064 432.188C356.592 432.188 358.664 434.344 358.664 437.928V447H356.48V438.488C356.48 435.856 354.912 434.288 352.308 434.288C349.396 434.316 347.604 436.248 347.352 439.104V447H345.168V432.272H347.352V435.52C348.388 433.28 350.376 432.216 353.064 432.188ZM374.911 426.224H377.095V447H374.911V443.836C373.819 445.908 371.803 447.112 369.171 447.112C364.971 447.112 362.059 444.004 362.059 439.608C362.059 435.212 364.971 432.16 369.143 432.16C371.775 432.16 373.819 433.364 374.911 435.464V426.224ZM369.591 445.236C372.699 445.236 374.911 442.912 374.911 439.664C374.911 436.416 372.699 434.064 369.591 434.064C366.455 434.064 364.243 436.416 364.243 439.664C364.243 442.912 366.455 445.236 369.591 445.236ZM10.444 475.184C9.296 474.456 7.812 474.008 6.44 474.008C4.788 474.008 3.528 474.596 3.528 475.996C3.528 479.328 11.76 477.62 11.76 482.912C11.76 485.796 9.184 487.084 6.356 487.084C4.256 487.084 2.1 486.356 0.7 485.012L1.54 483.416C2.8 484.592 4.704 485.292 6.44 485.292C8.176 485.292 9.576 484.62 9.604 483.136C9.688 479.552 1.428 481.372 1.456 476.164C1.456 473.364 3.892 472.16 6.58 472.16C8.344 472.16 10.052 472.692 11.284 473.504L10.444 475.184ZM22.3475 484.312L22.9635 485.992C21.9275 486.692 20.8075 487.084 19.6315 487.084C17.4755 487.112 15.8795 485.824 15.8795 482.912V474.428H13.7515V472.72H15.8795V468.856H18.0355V472.72H22.7115V474.428H18.0355V482.548C18.0355 484.34 18.7355 485.068 19.9955 485.068C20.7515 485.04 21.5355 484.788 22.3475 484.312ZM37.5417 487H35.4137V484.704C34.2377 486.3 32.3617 487.084 30.0097 487.084C26.9577 487.084 24.9977 485.152 24.9977 482.632C24.9977 480.056 27.0417 478.432 30.5137 478.404H35.3577V477.48C35.3577 475.324 34.0137 474.008 31.4097 474.008C29.7857 474.008 28.2737 474.624 26.7337 475.716L25.8097 474.176C27.7137 472.916 29.3097 472.188 31.8297 472.188C35.4697 472.188 37.4857 474.12 37.5137 477.256L37.5417 487ZM30.4297 485.264C32.9217 485.264 34.8257 484.032 35.3857 481.932V480.14H30.7937C28.3297 480.14 27.0417 480.896 27.0417 482.548C27.0417 484.172 28.3577 485.264 30.4297 485.264ZM50.3138 472.188C53.8418 472.188 55.9138 474.344 55.9138 477.928V487H53.7298V478.488C53.7298 475.856 52.1618 474.288 49.5578 474.288C46.6458 474.316 44.8538 476.248 44.6018 479.104V487H42.4178V472.272H44.6018V475.52C45.6378 473.28 47.6258 472.216 50.3138 472.188ZM72.1608 466.224H74.3448V487H72.1608V483.836C71.0688 485.908 69.0528 487.112 66.4208 487.112C62.2208 487.112 59.3088 484.004 59.3088 479.608C59.3088 475.212 62.2208 472.16 66.3928 472.16C69.0248 472.16 71.0688 473.364 72.1608 475.464V466.224ZM66.8408 485.236C69.9488 485.236 72.1608 482.912 72.1608 479.664C72.1608 476.416 69.9488 474.064 66.8408 474.064C63.7048 474.064 61.4928 476.416 61.4928 479.664C61.4928 482.912 63.7048 485.236 66.8408 485.236ZM92.6883 468.1C91.2603 468.072 90.0843 469.052 90.0843 470.788V472.72H94.3123V474.428H90.0843V487H87.9283V474.428H86.0243V472.72H87.9283V471.068C87.9283 467.876 90.1963 466.112 92.6603 466.14C93.7803 466.14 94.9283 466.504 95.8243 467.176L94.9283 468.856C94.2563 468.38 93.4443 468.1 92.6883 468.1ZM102.277 472.188C106.645 472.188 109.753 475.24 109.753 479.608C109.753 484.032 106.645 487.084 102.277 487.084C97.909 487.084 94.801 484.032 94.801 479.608C94.801 475.24 97.909 472.188 102.277 472.188ZM102.277 474.12C99.197 474.12 96.985 476.388 96.985 479.636C96.985 482.94 99.197 485.18 102.277 485.18C105.357 485.18 107.569 482.94 107.569 479.636C107.569 476.388 105.357 474.12 102.277 474.12ZM115.778 475.548C116.758 473.392 118.578 472.216 121.07 472.188V474.316C117.962 474.26 116.03 476.192 115.778 479.16V487H113.594V472.272H115.778V475.548ZM141.999 475.884C140.879 474.792 139.395 474.148 137.603 474.148C134.551 474.148 132.367 476.388 132.367 479.636C132.367 482.912 134.551 485.152 137.603 485.152C139.535 485.152 141.131 484.48 142.167 483.248L143.427 484.536C142.111 486.132 140.067 487.084 137.519 487.084C133.235 487.084 130.211 484.032 130.211 479.636C130.211 475.268 133.263 472.188 137.519 472.188C139.899 472.188 141.859 473 143.203 474.372L141.999 475.884ZM152.672 472.188C157.04 472.188 160.148 475.24 160.148 479.608C160.148 484.032 157.04 487.084 152.672 487.084C148.304 487.084 145.196 484.032 145.196 479.608C145.196 475.24 148.304 472.188 152.672 472.188ZM152.672 474.12C149.592 474.12 147.38 476.388 147.38 479.636C147.38 482.94 149.592 485.18 152.672 485.18C155.752 485.18 157.964 482.94 157.964 479.636C157.964 476.388 155.752 474.12 152.672 474.12ZM182.888 472.188C186.332 472.188 188.376 474.344 188.376 477.928V487H186.192V478.488C186.192 475.828 184.652 474.26 182.104 474.26C179.052 474.344 177.288 476.556 177.288 479.748V487H175.076V478.488C175.076 475.828 173.564 474.26 170.988 474.26C167.964 474.344 166.144 476.556 166.144 479.748V487H163.988V472.272H166.144V475.604C167.124 473.308 169.112 472.216 171.772 472.188C174.544 472.188 176.448 473.588 177.064 476.024C177.988 473.448 180.06 472.216 182.888 472.188ZM201.227 472.188C205.399 472.188 208.311 475.268 208.311 479.664C208.311 484.032 205.455 487.084 201.283 487.084C198.651 487.084 196.635 485.88 195.543 483.836V492.432H193.359V472.272H195.543V475.436C196.635 473.392 198.651 472.188 201.227 472.188ZM200.835 485.152C203.915 485.152 206.099 482.828 206.099 479.608C206.099 476.416 203.915 474.064 200.835 474.064C197.727 474.064 195.543 476.388 195.543 479.608C195.543 482.856 197.727 485.152 200.835 485.152ZM217.964 472.188C222.724 472.188 225.076 475.464 224.852 480.448H212.812C213.176 483.36 215.276 485.264 218.16 485.264C219.98 485.264 221.576 484.592 222.724 483.388L223.928 484.648C222.528 486.188 220.456 487.084 217.992 487.084C213.652 487.084 210.656 484.032 210.656 479.636C210.656 475.24 213.68 472.216 217.964 472.188ZM212.812 478.712H222.892C222.752 475.856 220.848 474.008 217.964 474.008C215.136 474.008 213.12 475.856 212.812 478.712ZM228.741 466.224H230.925V487H228.741V466.224ZM236.534 466.224H238.718V487H236.534V466.224ZM245.251 466.56C246.063 466.56 246.679 467.176 246.679 468.044C246.679 468.884 246.063 469.528 245.251 469.528C244.439 469.528 243.823 468.884 243.823 468.044C243.823 467.176 244.439 466.56 245.251 466.56ZM244.187 472.272H246.343V487H244.187V472.272ZM259.548 472.188C263.076 472.188 265.148 474.344 265.148 477.928V487H262.964V478.488C262.964 475.856 261.396 474.288 258.792 474.288C255.88 474.316 254.088 476.248 253.836 479.104V487H251.652V472.272H253.836V475.52C254.872 473.28 256.86 472.216 259.548 472.188ZM280.695 472.272H282.879V485.46C282.879 489.772 279.939 492.488 275.459 492.488C273.135 492.46 271.203 491.704 269.411 490.332L270.419 488.736C271.875 489.94 273.415 490.584 275.375 490.612C278.595 490.612 280.695 488.624 280.695 485.516V483.276C279.659 485.236 277.755 486.356 275.263 486.356C271.287 486.356 268.543 483.416 268.543 479.244C268.543 475.1 271.259 472.216 275.207 472.188C277.727 472.16 279.631 473.308 280.695 475.268V472.272ZM275.655 484.564C278.595 484.564 280.695 482.352 280.695 479.3C280.695 476.22 278.595 474.008 275.655 474.008C272.687 474.008 270.615 476.22 270.587 479.3C270.615 482.352 272.687 484.564 275.655 484.564ZM306.796 487H304.668V484.704C303.492 486.3 301.616 487.084 299.264 487.084C296.212 487.084 294.252 485.152 294.252 482.632C294.252 480.056 296.296 478.432 299.768 478.404H304.612V477.48C304.612 475.324 303.268 474.008 300.664 474.008C299.04 474.008 297.528 474.624 295.988 475.716L295.064 474.176C296.968 472.916 298.564 472.188 301.084 472.188C304.724 472.188 306.74 474.12 306.768 477.256L306.796 487ZM299.684 485.264C302.176 485.264 304.08 484.032 304.64 481.932V480.14H300.048C297.584 480.14 296.296 480.896 296.296 482.548C296.296 484.172 297.612 485.264 299.684 485.264ZM318.672 484.312L319.288 485.992C318.252 486.692 317.132 487.084 315.956 487.084C313.8 487.112 312.204 485.824 312.204 482.912V474.428H310.076V472.72H312.204V468.856H314.36V472.72H319.036V474.428H314.36V482.548C314.36 484.34 315.06 485.068 316.32 485.068C317.076 485.04 317.86 484.788 318.672 484.312ZM329.582 484.312L330.198 485.992C329.162 486.692 328.042 487.084 326.866 487.084C324.71 487.112 323.114 485.824 323.114 482.912V474.428H320.986V472.72H323.114V468.856H325.27V472.72H329.946V474.428H325.27V482.548C325.27 484.34 325.97 485.068 327.23 485.068C327.986 485.04 328.77 484.788 329.582 484.312ZM334.556 466.56C335.368 466.56 335.984 467.176 335.984 468.044C335.984 468.884 335.368 469.528 334.556 469.528C333.744 469.528 333.128 468.884 333.128 468.044C333.128 467.176 333.744 466.56 334.556 466.56ZM333.492 472.272H335.648V487H333.492V472.272ZM347.957 484.312L348.573 485.992C347.537 486.692 346.417 487.084 345.241 487.084C343.085 487.112 341.489 485.824 341.489 482.912V474.428H339.361V472.72H341.489V468.856H343.645V472.72H348.321V474.428H343.645V482.548C343.645 484.34 344.345 485.068 345.605 485.068C346.361 485.04 347.145 484.788 347.957 484.312ZM362.479 472.272H364.663V487H362.479V483.668C361.499 485.964 359.539 487.056 356.879 487.084C353.435 487.084 351.363 484.9 351.363 481.344V472.272H353.547V480.784C353.547 483.416 355.087 484.984 357.635 484.984C360.687 484.928 362.479 482.688 362.479 479.496V472.272ZM381.364 466.224H383.548V487H381.364V483.836C380.272 485.908 378.256 487.112 375.624 487.112C371.424 487.112 368.512 484.004 368.512 479.608C368.512 475.212 371.424 472.16 375.596 472.16C378.228 472.16 380.272 473.364 381.364 475.464V466.224ZM376.044 485.236C379.152 485.236 381.364 482.912 381.364 479.664C381.364 476.416 379.152 474.064 376.044 474.064C372.908 474.064 370.696 476.416 370.696 479.664C370.696 482.912 372.908 485.236 376.044 485.236ZM394.824 472.188C399.584 472.188 401.936 475.464 401.712 480.448H389.672C390.036 483.36 392.136 485.264 395.02 485.264C396.84 485.264 398.436 484.592 399.584 483.388L400.788 484.648C399.388 486.188 397.316 487.084 394.852 487.084C390.512 487.084 387.516 484.032 387.516 479.636C387.516 475.24 390.54 472.216 394.824 472.188ZM389.672 478.712H399.752C399.612 475.856 397.708 474.008 394.824 474.008C391.996 474.008 389.98 475.856 389.672 478.712ZM413.245 475.184C412.097 474.456 410.613 474.008 409.241 474.008C407.589 474.008 406.329 474.596 406.329 475.996C406.329 479.328 414.561 477.62 414.561 482.912C414.561 485.796 411.985 487.084 409.157 487.084C407.057 487.084 404.901 486.356 403.501 485.012L404.341 483.416C405.601 484.592 407.505 485.292 409.241 485.292C410.977 485.292 412.377 484.62 412.405 483.136C412.489 479.552 404.229 481.372 404.257 476.164C404.257 473.364 406.693 472.16 409.381 472.16C411.145 472.16 412.853 472.692 414.085 473.504L413.245 475.184ZM13.944 527H11.816V524.704C10.64 526.3 8.764 527.084 6.412 527.084C3.36 527.084 1.4 525.152 1.4 522.632C1.4 520.056 3.444 518.432 6.916 518.404H11.76V517.48C11.76 515.324 10.416 514.008 7.812 514.008C6.188 514.008 4.676 514.624 3.136 515.716L2.212 514.176C4.116 512.916 5.712 512.188 8.232 512.188C11.872 512.188 13.888 514.12 13.916 517.256L13.944 527ZM6.832 525.264C9.324 525.264 11.228 524.032 11.788 521.932V520.14H7.196C4.732 520.14 3.444 520.896 3.444 522.548C3.444 524.172 4.76 525.264 6.832 525.264ZM26.7162 512.188C30.2442 512.188 32.3162 514.344 32.3162 517.928V527H30.1322V518.488C30.1322 515.856 28.5642 514.288 25.9602 514.288C23.0482 514.316 21.2562 516.248 21.0042 519.104V527H18.8202V512.272H21.0042V515.52C22.0402 513.28 24.0282 512.216 26.7162 512.188ZM48.5632 506.224H50.7472V527H48.5632V523.836C47.4712 525.908 45.4552 527.112 42.8232 527.112C38.6232 527.112 35.7112 524.004 35.7112 519.608C35.7112 515.212 38.6232 512.16 42.7952 512.16C45.4272 512.16 47.4712 513.364 48.5632 515.464V506.224ZM43.2432 525.236C46.3512 525.236 48.5632 522.912 48.5632 519.664C48.5632 516.416 46.3512 514.064 43.2432 514.064C40.1072 514.064 37.8952 516.416 37.8952 519.664C37.8952 522.912 40.1072 525.236 43.2432 525.236ZM70.8827 524.312L71.4987 525.992C70.4627 526.692 69.3427 527.084 68.1667 527.084C66.0107 527.112 64.4147 525.824 64.4147 522.912V514.428H62.2867V512.72H64.4147V508.856H66.5707V512.72H71.2467V514.428H66.5707V522.548C66.5707 524.34 67.2707 525.068 68.5307 525.068C69.2867 525.04 70.0707 524.788 70.8827 524.312ZM76.9768 515.548C77.9568 513.392 79.7768 512.216 82.2688 512.188V514.316C79.1608 514.26 77.2288 516.192 76.9768 519.16V527H74.7928V512.272H76.9768V515.548ZM91.0348 512.188C95.7948 512.188 98.1468 515.464 97.9228 520.448H85.8828C86.2468 523.36 88.3468 525.264 91.2308 525.264C93.0508 525.264 94.6468 524.592 95.7948 523.388L96.9988 524.648C95.5988 526.188 93.5268 527.084 91.0628 527.084C86.7228 527.084 83.7268 524.032 83.7268 519.636C83.7268 515.24 86.7508 512.216 91.0348 512.188ZM85.8828 518.712H95.9628C95.8228 515.856 93.9188 514.008 91.0348 514.008C88.2068 514.008 86.1908 515.856 85.8828 518.712ZM109.568 512.188C113.096 512.188 115.168 514.344 115.168 517.928V527H112.984V518.488C112.984 515.856 111.416 514.288 108.812 514.288C105.9 514.316 104.108 516.248 103.856 519.104V527H101.672V512.272H103.856V515.52C104.892 513.28 106.88 512.216 109.568 512.188ZM131.415 506.224H133.599V527H131.415V523.836C130.323 525.908 128.307 527.112 125.675 527.112C121.475 527.112 118.563 524.004 118.563 519.608C118.563 515.212 121.475 512.16 125.647 512.16C128.279 512.16 130.323 513.364 131.415 515.464V506.224ZM126.095 525.236C129.203 525.236 131.415 522.912 131.415 519.664C131.415 516.416 129.203 514.064 126.095 514.064C122.959 514.064 120.747 516.416 120.747 519.664C120.747 522.912 122.959 525.236 126.095 525.236ZM140.115 506.56C140.927 506.56 141.543 507.176 141.543 508.044C141.543 508.884 140.927 509.528 140.115 509.528C139.303 509.528 138.687 508.884 138.687 508.044C138.687 507.176 139.303 506.56 140.115 506.56ZM139.051 512.272H141.207V527H139.051V512.272ZM154.411 512.188C157.939 512.188 160.011 514.344 160.011 517.928V527H157.827V518.488C157.827 515.856 156.259 514.288 153.655 514.288C150.743 514.316 148.951 516.248 148.699 519.104V527H146.515V512.272H148.699V515.52C149.735 513.28 151.723 512.216 154.411 512.188ZM175.558 512.272H177.742V525.46C177.742 529.772 174.802 532.488 170.322 532.488C167.998 532.46 166.066 531.704 164.274 530.332L165.282 528.736C166.738 529.94 168.278 530.584 170.238 530.612C173.458 530.612 175.558 528.624 175.558 525.516V523.276C174.522 525.236 172.618 526.356 170.126 526.356C166.15 526.356 163.406 523.416 163.406 519.244C163.406 515.1 166.122 512.216 170.07 512.188C172.59 512.16 174.494 513.308 175.558 515.268V512.272ZM170.518 524.564C173.458 524.564 175.558 522.352 175.558 519.3C175.558 516.22 173.458 514.008 170.518 514.008C167.55 514.008 165.478 516.22 165.45 519.3C165.478 522.352 167.55 524.564 170.518 524.564ZM190.515 506.224H192.699V527H190.515V506.224ZM199.232 506.56C200.044 506.56 200.66 507.176 200.66 508.044C200.66 508.884 200.044 509.528 199.232 509.528C198.42 509.528 197.804 508.884 197.804 508.044C197.804 507.176 198.42 506.56 199.232 506.56ZM198.168 512.272H200.324V527H198.168V512.272ZM210.841 508.1C209.413 508.072 208.237 509.052 208.237 510.788V512.72H212.465V514.428H208.237V527H206.081V514.428H204.177V512.72H206.081V511.068C206.081 507.876 208.349 506.112 210.813 506.14C211.933 506.14 213.081 506.504 213.977 507.176L213.081 508.856C212.409 508.38 211.597 508.1 210.841 508.1ZM220.261 512.188C225.021 512.188 227.373 515.464 227.149 520.448H215.109C215.473 523.36 217.573 525.264 220.457 525.264C222.277 525.264 223.873 524.592 225.021 523.388L226.225 524.648C224.825 526.188 222.753 527.084 220.289 527.084C215.949 527.084 212.953 524.032 212.953 519.636C212.953 515.24 215.977 512.216 220.261 512.188ZM215.109 518.712H225.189C225.049 515.856 223.145 514.008 220.261 514.008C217.433 514.008 215.417 515.856 215.109 518.712ZM238.682 515.184C237.534 514.456 236.05 514.008 234.678 514.008C233.026 514.008 231.766 514.596 231.766 515.996C231.766 519.328 239.998 517.62 239.998 522.912C239.998 525.796 237.422 527.084 234.594 527.084C232.494 527.084 230.338 526.356 228.938 525.012L229.778 523.416C231.038 524.592 232.942 525.292 234.678 525.292C236.414 525.292 237.814 524.62 237.842 523.136C237.926 519.552 229.666 521.372 229.694 516.164C229.694 513.364 232.13 512.16 234.818 512.16C236.582 512.16 238.29 512.692 239.522 513.504L238.682 515.184ZM250.586 524.312L251.202 525.992C250.166 526.692 249.046 527.084 247.87 527.084C245.714 527.112 244.118 525.824 244.118 522.912V514.428H241.99V512.72H244.118V508.856H246.274V512.72H250.95V514.428H246.274V522.548C246.274 524.34 246.974 525.068 248.234 525.068C248.99 525.04 249.774 524.788 250.586 524.312ZM259.2 529.1C258.276 531.34 256.736 532.516 254.776 532.516C253.544 532.516 252.564 532.18 251.668 531.452L252.592 529.716C253.264 530.192 253.936 530.416 254.664 530.416C255.812 530.416 256.764 529.688 257.352 528.288L257.968 526.888L251.864 512.272H254.16L259.06 524.536L263.736 512.272H265.976L259.2 529.1ZM268.691 506.224H270.875V527H268.691V506.224ZM282.168 512.188C286.928 512.188 289.28 515.464 289.056 520.448H277.016C277.38 523.36 279.48 525.264 282.364 525.264C284.184 525.264 285.78 524.592 286.928 523.388L288.132 524.648C286.732 526.188 284.66 527.084 282.196 527.084C277.856 527.084 274.86 524.032 274.86 519.636C274.86 515.24 277.884 512.216 282.168 512.188ZM277.016 518.712H287.096C286.956 515.856 285.052 514.008 282.168 514.008C279.34 514.008 277.324 515.856 277.016 518.712ZM300.589 515.184C299.441 514.456 297.957 514.008 296.585 514.008C294.933 514.008 293.673 514.596 293.673 515.996C293.673 519.328 301.905 517.62 301.905 522.912C301.905 525.796 299.329 527.084 296.501 527.084C294.401 527.084 292.245 526.356 290.845 525.012L291.685 523.416C292.945 524.592 294.849 525.292 296.585 525.292C298.321 525.292 299.721 524.62 299.749 523.136C299.833 519.552 291.573 521.372 291.601 516.164C291.601 513.364 294.037 512.16 296.725 512.16C298.489 512.16 300.197 512.692 301.429 513.504L300.589 515.184ZM305.632 524.368C306.388 524.368 306.976 524.984 306.976 525.796C306.976 526.608 306.388 527.224 305.632 527.224C304.848 527.224 304.26 526.608 304.26 525.796C304.26 524.984 304.848 524.368 305.632 524.368Z" fill="#333333"/>
<path d="M9.888 3.472C15.296 3.472 18.304 7.504 18.304 14.768C18.304 22.064 15.296 26.096 9.888 26.096C4.448 26.096 1.44 22.064 1.44 14.768C1.44 7.504 4.448 3.472 9.888 3.472ZM9.888 6.416C6.752 6.416 5.184 9.072 5.184 14.768C5.184 20.464 6.752 23.152 9.888 23.152C12.992 23.152 14.56 20.464 14.56 14.768C14.56 9.072 12.992 6.416 9.888 6.416ZM23.142 3.568H31.75V26H27.974V6.96H23.142V3.568Z" fill="#FA8334"/>
<path d="M67.888 29.472C73.296 29.472 76.304 33.504 76.304 40.768C76.304 48.064 73.296 52.096 67.888 52.096C62.448 52.096 59.44 48.064 59.44 40.768C59.44 33.504 62.448 29.472 67.888 29.472ZM67.888 32.416C64.752 32.416 63.184 35.072 63.184 40.768C63.184 46.464 64.752 49.152 67.888 49.152C70.992 49.152 72.56 46.464 72.56 40.768C72.56 35.072 70.992 32.416 67.888 32.416ZM86.678 29.568H90.326L82.902 43.104H89.782L89.75 37.824H93.27L93.302 43.104H96.598V46.496H93.27V52H89.75V46.496H78.838V43.68L86.678 29.568Z" fill="#FA8334"/>
<path d="M49.472 15.888H52.608L42.464 45.744H39.328L49.472 15.888Z" fill="#FA8334"/>
</svg>
